# Blender 4.0.2
# www.blender.org
mtllib wardrobe.mtl
o Cube
v -0.021341 0.970106 -0.368196
v 0.483378 -0.990000 -0.376974
v 0.483378 0.990000 -0.376974
v -0.006979 -0.959907 -0.329646
v -0.006979 0.959907 -0.329646
v 0.483378 -0.953143 -0.326889
v 0.483378 0.953144 -0.326889
v -0.006979 -0.959907 0.083026
v -0.006979 0.959907 0.083025
v 0.483378 -0.953144 0.083026
v 0.483378 0.953144 0.083025
v -0.021341 -0.970106 0.534247
v 0.483378 -0.990000 0.543026
v 0.483378 0.990000 0.543025
v -0.006979 -0.959907 0.495697
v -0.006979 0.959907 0.495697
v 0.483378 -0.953144 0.492940
v 0.483378 0.953143 0.492940
v -0.021341 0.990000 -0.376974
v -0.021341 -0.990000 -0.376974
v -0.021341 0.990000 0.543025
v -0.021341 -0.990000 0.543026
v -0.021341 0.970105 0.083025
v -0.021341 0.970105 0.534246
v -0.021341 -0.970105 0.083026
v -0.021341 -0.970105 -0.368195
v -0.026301 0.970105 0.083025
v -0.026301 -0.970105 0.083026
v -0.026301 0.970106 -0.368196
v -0.026301 -0.970105 -0.368195
v -0.026301 0.970105 0.534246
v -0.026301 -0.970106 0.534247
vn -0.0000 -0.0000 -1.0000
vn 1.0000 -0.0000 -0.0000
vn -0.0056 -0.0000 1.0000
vn -0.0138 -0.9999 -0.0000
vn -0.0138 0.9999 -0.0000
vn -0.0000 -1.0000 -0.0000
vn -0.0000 -0.0000 1.0000
vn -0.0056 -0.0000 -1.0000
vn -0.0000 1.0000 -0.0000
vn -1.0000 -0.0000 -0.0000
vt 0.375000 0.250000
vt 0.625000 0.250000
vt 0.625000 0.500000
vt 0.375000 0.500000
vt 0.375000 0.125000
vt 0.625000 0.125000
vt 0.625000 0.625000
vt 0.875000 0.625000
vt 0.875000 0.500000
vt 0.125000 0.500000
vt 0.125000 0.625000
vt 0.375000 0.625000
vt 0.377512 0.247614
vt 0.377512 0.125000
vt 0.377512 0.247614
vt 0.622488 0.247614
vt 0.622488 0.247614
vt 0.622488 0.125000
s 0
usemtl drewno
f 20/1/1 19/2/1 3/3/1 2/4/1
f 8/5/2 4/1/2 5/2/2 9/6/2
f 4/1/3 6/4/3 7/3/3 5/2/3
f 2/4/2 3/3/2 7/3/2 6/4/2
f 14/3/2 18/3/2 11/7/2 7/3/2 3/3/2
f 7/3/4 11/7/4 9/8/4 5/9/4
f 4/10/5 8/11/5 10/12/5 6/4/5
f 22/10/6 20/10/6 2/4/6 13/4/6
f 10/12/2 17/4/2 13/4/2 2/4/2 6/4/2
f 22/1/7 13/4/7 14/3/7 21/2/7
f 8/5/2 9/6/2 16/2/2 15/1/2
f 15/1/8 16/2/8 18/3/8 17/4/8
f 13/4/2 17/4/2 18/3/2 14/3/2
f 18/3/4 16/9/4 9/8/4 11/7/4
f 15/10/5 17/4/5 10/12/5 8/11/5
f 14/3/9 3/3/9 19/9/9 21/9/9
f 12/13/10 25/14/10 26/15/10 20/1/10 22/1/10
f 26/15/10 1/16/10 19/2/10 20/1/10
f 24/17/10 12/13/10 22/1/10 21/2/10
f 23/18/10 24/17/10 21/2/10 19/2/10 1/16/10
usemtl płyta
f 25/14/2 26/15/2 1/16/2 23/18/2
f 25/14/2 23/18/2 24/17/2 12/13/2
f 26/15/6 25/14/6 28/14/6 30/15/6
f 12/13/7 24/17/7 31/17/7 32/13/7
f 28/14/10 27/18/10 29/16/10 30/15/10
f 28/14/10 32/13/10 31/17/10 27/18/10
f 23/18/9 1/16/9 29/16/9 27/18/9
f 25/14/6 12/13/6 32/13/6 28/14/6
f 24/17/9 23/18/9 27/18/9 31/17/9
f 1/16/1 26/15/1 30/15/1 29/16/1
o Cube.001
v 0.504703 0.953144 0.082506
v 0.504703 -0.962488 0.082504
v 0.481972 -0.962488 0.082504
v 0.481972 0.953144 0.082506
v 0.481972 0.962489 -0.328194
v 0.481972 -0.953143 -0.328196
v 0.504703 0.962489 -0.328194
v 0.504703 -0.953143 -0.328196
v 0.535038 -0.229028 -0.037598
v 0.535038 0.226622 -0.037598
v 0.535038 -0.229028 0.003754
v 0.535038 0.226622 0.003754
v 0.504703 -0.229028 0.003754
v 0.504703 0.226622 -0.037598
v 0.504703 -0.229028 -0.037598
v 0.519871 0.226622 0.003754
v 0.519871 -0.229028 0.003754
v 0.519871 -0.229028 -0.037598
v 0.519871 0.226622 -0.037598
v 0.535038 0.246622 0.003754
v 0.535038 0.246622 -0.037598
v 0.519871 0.246622 0.003754
v 0.504703 0.246622 -0.037598
v 0.504703 0.246622 0.003754
v 0.519871 0.246622 -0.037598
v 0.504703 0.226622 0.003754
v 0.535038 -0.249028 -0.037598
v 0.535038 -0.249028 0.003754
v 0.519871 -0.249028 0.003754
v 0.504703 -0.249028 0.003754
v 0.504703 -0.249028 -0.037598
v 0.519871 -0.249028 -0.037598
vn 1.0000 -0.0000 -0.0000
vn -1.0000 -0.0000 -0.0000
vn -0.0000 -0.0000 -1.0000
vn -0.0000 0.9997 0.0227
vn -0.0000 -0.9997 -0.0227
vn -0.0000 -0.0000 1.0000
vn -0.0000 -1.0000 -0.0000
vn -0.0000 1.0000 -0.0000
vt 0.375000 0.500000
vt 0.625000 0.500000
vt 0.625000 0.750000
vt 0.375000 0.750000
vt 0.625000 0.250000
vt 0.625000 1.000000
vt 0.625000 0.875000
vt 0.625000 0.375000
vt 0.375000 0.375000
vt 0.375000 0.875000
vt 0.375000 0.000000
vt 0.375000 0.250000
vt 0.625000 0.000000
vt 0.375000 1.000000
vt 0.750000 0.500000
vt 0.750000 0.750000
vt 0.875000 0.750000
vt 0.875000 0.500000
vt 0.250000 0.500000
vt 0.250000 0.750000
vt 0.125000 0.500000
vt 0.125000 0.750000
s 0
usemtl drewno
f 33/19/11 34/20/11 40/21/11 39/22/11
f 36/19/12 37/22/12 38/21/12 35/20/12
f 40/21/13 38/21/13 37/22/13 39/22/13
f 39/22/14 37/22/14 36/19/14 33/19/14
f 34/20/15 35/20/15 38/21/15 40/21/15
f 33/19/16 36/19/16 35/20/16 34/20/16
usemtl klamka
f 58/23/17 46/24/17 51/25/17 48/26/17
f 49/27/12 48/26/12 51/25/12 50/28/12
f 49/27/16 43/19/16 44/20/16 48/26/16
f 43/29/11 41/30/11 42/23/11 44/31/11
f 41/22/13 59/22/13 64/28/13 50/28/13
f 48/26/16 54/26/16 56/23/16 58/23/16
f 45/30/16 62/30/16 61/27/16 49/27/16
f 41/22/13 50/28/13 51/25/13 42/21/13
f 49/27/18 50/28/18 47/32/18 45/22/18
f 54/33/18 57/34/18 55/35/18 56/36/18
f 52/20/18 53/21/18 57/34/18 54/33/18
f 42/23/11 53/23/11 52/31/11 44/31/11
f 51/25/13 57/25/13 53/21/13 42/21/13
f 46/24/13 55/24/13 57/25/13 51/25/13
f 44/20/16 52/20/16 54/26/16 48/26/16
f 58/21/12 56/21/12 55/20/12 46/20/12
f 61/37/17 64/38/17 59/22/17 60/19/17
f 62/39/17 63/40/17 64/38/17 61/37/17
f 49/27/16 61/27/16 60/19/16 43/19/16
f 43/29/11 60/29/11 59/30/11 41/30/11
f 50/28/13 64/28/13 63/32/13 47/32/13
f 47/19/12 63/19/12 62/22/12 45/22/12
o Cube.002
v 0.504703 0.953144 0.085595
v 0.504703 -0.962488 0.085596
v 0.481972 -0.962488 0.085596
v 0.481972 0.953144 0.085595
v 0.481972 0.962489 0.496295
v 0.481972 -0.953144 0.496296
v 0.504703 0.962489 0.496295
v 0.504703 -0.953144 0.496296
v 0.535038 -0.229028 0.241133
v 0.535038 0.226622 0.241133
v 0.535038 -0.229028 0.199781
v 0.535038 0.226622 0.199781
v 0.504703 -0.229028 0.199781
v 0.504703 0.226622 0.241133
v 0.504703 -0.229028 0.241133
v 0.519871 0.226622 0.199781
v 0.519871 -0.229028 0.199781
v 0.519871 -0.229028 0.241133
v 0.519871 0.226622 0.241133
v 0.535038 0.246622 0.199781
v 0.535038 0.246622 0.241133
v 0.519871 0.246622 0.199781
v 0.504703 0.246622 0.241133
v 0.504703 0.246622 0.199781
v 0.519871 0.246622 0.241133
v 0.504703 0.226622 0.199781
v 0.535038 -0.249028 0.241133
v 0.535038 -0.249028 0.199781
v 0.519871 -0.249028 0.199781
v 0.504703 -0.249028 0.199781
v 0.504703 -0.249028 0.241133
v 0.519871 -0.249028 0.241133
vn 1.0000 -0.0000 -0.0000
vn -1.0000 -0.0000 -0.0000
vn -0.0000 -0.0000 1.0000
vn -0.0000 0.9997 -0.0227
vn -0.0000 -0.9997 0.0227
vn -0.0000 -0.0000 -1.0000
vn -0.0000 -1.0000 -0.0000
vn -0.0000 1.0000 -0.0000
vt 0.375000 0.500000
vt 0.375000 0.750000
vt 0.625000 0.750000
vt 0.625000 0.500000
vt 0.625000 0.250000
vt 0.625000 0.375000
vt 0.625000 0.875000
vt 0.625000 1.000000
vt 0.375000 0.375000
vt 0.375000 0.875000
vt 0.375000 0.000000
vt 0.625000 0.000000
vt 0.375000 0.250000
vt 0.375000 1.000000
vt 0.750000 0.500000
vt 0.875000 0.500000
vt 0.875000 0.750000
vt 0.750000 0.750000
vt 0.250000 0.500000
vt 0.250000 0.750000
vt 0.125000 0.500000
vt 0.125000 0.750000
s 0
usemtl drewno
f 65/41/19 71/42/19 72/43/19 66/44/19
f 68/41/20 67/44/20 70/43/20 69/42/20
f 72/43/21 71/42/21 69/42/21 70/43/21
f 71/42/22 65/41/22 68/41/22 69/42/22
f 66/44/23 72/43/23 70/43/23 67/44/23
f 65/41/24 66/44/24 67/44/24 68/41/24
usemtl klamka
f 90/45/25 80/46/25 83/47/25 78/48/25
f 81/49/20 82/50/20 83/47/20 80/46/20
f 81/49/24 80/46/24 76/44/24 75/41/24
f 75/51/19 76/52/19 74/45/19 73/53/19
f 73/42/21 82/50/21 96/50/21 91/42/21
f 80/46/24 90/45/24 88/45/24 86/46/24
f 77/53/24 81/49/24 93/49/24 94/53/24
f 73/42/21 74/43/21 83/47/21 82/50/21
f 81/49/26 77/42/26 79/54/26 82/50/26
f 86/55/26 88/56/26 87/57/26 89/58/26
f 84/44/26 86/55/26 89/58/26 85/43/26
f 74/45/19 76/52/19 84/52/19 85/45/19
f 83/47/21 74/43/21 85/43/21 89/47/21
f 78/48/21 83/47/21 89/47/21 87/48/21
f 76/44/24 80/46/24 86/46/24 84/44/24
f 90/43/20 78/44/20 87/44/20 88/43/20
f 93/59/25 92/41/25 91/42/25 96/60/25
f 94/61/25 93/59/25 96/60/25 95/62/25
f 81/49/24 75/41/24 92/41/24 93/49/24
f 75/51/19 73/53/19 91/53/19 92/51/19
f 82/50/21 79/54/21 95/54/21 96/50/21
f 79/41/20 77/42/20 94/42/20 95/41/20
