# Blender 4.0.2
# www.blender.org
mtllib chair1.mtl
o Cube.005
v 0.206330 0.311002 0.241490
v 0.300000 0.360442 0.300000
v 0.206330 0.311002 -0.241490
v 0.300000 0.360442 -0.300000
v 0.206330 -0.160204 0.237130
v 0.300000 -0.239558 0.300000
v 0.206330 -0.160204 -0.237130
v 0.300000 -0.239558 -0.300000
v -0.300000 -0.343389 0.300000
v -0.300000 -0.239558 0.300000
v -0.300000 -0.343389 -0.300000
v -0.300000 -0.239558 -0.300000
v 0.300000 -0.343389 0.300000
v 0.300000 -0.239558 0.300000
v 0.300000 -0.343389 -0.300000
v 0.300000 -0.239558 -0.300000
v 0.150000 -0.804353 0.250000
v 0.150000 -0.349818 0.250000
v 0.150000 -0.804353 0.150000
v 0.150000 -0.349818 0.150000
v 0.250000 -0.804353 0.250000
v 0.250000 -0.349818 0.250000
v 0.250000 -0.804353 0.150000
v 0.250000 -0.349818 0.150000
v -0.250000 -0.804353 0.250000
v -0.250000 -0.349818 0.250000
v -0.250000 -0.804353 0.150000
v -0.250000 -0.349818 0.150000
v -0.150000 -0.804353 0.250000
v -0.150000 -0.349818 0.250000
v -0.150000 -0.804353 0.150000
v -0.150000 -0.349818 0.150000
v -0.250000 -0.804353 -0.150000
v -0.250000 -0.349818 -0.150000
v -0.250000 -0.804353 -0.250000
v -0.250000 -0.349818 -0.250000
v -0.150000 -0.804353 -0.150000
v -0.150000 -0.349818 -0.150000
v -0.150000 -0.804353 -0.250000
v -0.150000 -0.349818 -0.250000
v 0.150000 -0.804353 -0.150000
v 0.150000 -0.349818 -0.150000
v 0.150000 -0.804353 -0.250000
v 0.150000 -0.349818 -0.250000
v 0.250000 -0.804353 -0.150000
v 0.250000 -0.349818 -0.150000
v 0.250000 -0.804353 -0.250000
v 0.250000 -0.349818 -0.250000
v 0.300000 0.160442 -0.300000
v 0.300000 -0.039558 -0.300000
v 0.300000 -0.039558 0.300000
v 0.300000 0.160442 0.300000
v 0.206330 -0.055700 -0.237130
v 0.206330 0.034870 -0.237130
v 0.203892 -0.039558 -0.300000
v 0.206330 0.118981 -0.237130
v 0.206330 0.209551 -0.237130
v 0.203892 0.160442 -0.300000
v 0.206330 0.209551 0.237130
v 0.206330 0.118981 0.237130
v 0.203892 0.160442 0.300000
v 0.206330 0.034870 0.237130
v 0.206330 -0.055700 0.237130
v 0.203892 -0.039558 0.300000
v 0.200000 0.360442 -0.300000
v 0.200000 0.360442 0.300000
v 0.200000 -0.239558 0.300000
v 0.200000 -0.239558 -0.300000
v 0.200000 0.137092 -0.300000
v 0.200000 0.137092 0.300000
v 0.200000 0.183791 0.300000
v 0.200000 0.183791 -0.300000
v 0.200000 -0.062908 -0.300000
v 0.200000 -0.062908 0.300000
v 0.200000 -0.016209 0.300000
v 0.200000 -0.016209 -0.300000
v 0.293670 0.311002 -0.241490
v 0.293670 0.311002 0.241490
v 0.293670 -0.160204 -0.237130
v 0.293670 -0.160204 0.237130
v 0.293670 -0.055700 0.237130
v 0.293670 0.034870 0.237130
v 0.293670 0.118981 0.237130
v 0.293670 0.209551 0.237130
v 0.293670 0.209551 -0.237130
v 0.293670 0.118981 -0.237130
v 0.293670 0.034870 -0.237130
v 0.293670 -0.055700 -0.237130
v 0.300000 0.360442 0.300000
v 0.300000 0.360442 -0.300000
v 0.300000 -0.239558 -0.300000
v 0.300000 -0.239558 0.300000
v 0.300000 0.137092 0.300000
v 0.300000 0.137092 -0.300000
v 0.300000 0.183791 -0.300000
v 0.300000 0.183791 0.300000
v 0.300000 -0.062908 0.300000
v 0.300000 -0.062908 -0.300000
v 0.300000 -0.016209 -0.300000
v 0.300000 -0.016209 0.300000
v 0.300000 0.398035 0.257266
v 0.300000 0.426859 0.211336
v 0.300000 0.447195 0.153330
v 0.300000 0.459307 0.080111
v 0.300000 0.463331 -0.000000
v 0.300000 0.459307 -0.080111
v 0.300000 0.447195 -0.153331
v 0.300000 0.426859 -0.211337
v 0.300000 0.398035 -0.257267
v 0.293670 0.339157 0.214685
v 0.293670 0.361420 0.178879
v 0.293670 0.377541 0.129946
v 0.293670 0.387293 0.067806
v 0.293670 0.390555 -0.000000
v 0.293670 0.387293 -0.067806
v 0.293670 0.377541 -0.129946
v 0.293670 0.361420 -0.178879
v 0.293670 0.339157 -0.214685
v 0.206330 0.339158 0.214685
v 0.206330 0.361420 0.178879
v 0.206330 0.377541 0.129946
v 0.206330 0.387293 0.067806
v 0.206330 0.390555 0.000000
v 0.206330 0.387293 -0.067806
v 0.206330 0.377541 -0.129946
v 0.206330 0.361420 -0.178879
v 0.206330 0.339158 -0.214685
v 0.200000 0.398035 0.257267
v 0.200000 0.426859 0.211336
v 0.200000 0.447195 0.153331
v 0.200000 0.459307 0.080111
v 0.200000 0.463331 0.000000
v 0.200000 0.459307 -0.080111
v 0.200000 0.447196 -0.153330
v 0.200000 0.426859 -0.211336
v 0.200000 0.398035 -0.257266
v 0.300000 0.398035 -0.257267
v 0.300000 0.426859 -0.211337
v 0.300000 0.447195 -0.153331
v 0.300000 0.459307 -0.080111
v 0.300000 0.463331 -0.000000
v 0.300000 0.459307 0.080111
v 0.300000 0.447195 0.153330
v 0.300000 0.426859 0.211336
v 0.300000 0.398035 0.257266
v 0.206330 0.006925 0.237125
v 0.206330 -0.033862 0.237124
v 0.206330 0.181606 0.237126
v 0.206330 0.140819 0.237126
v 0.206330 0.006925 -0.237129
v 0.206330 -0.033862 -0.237130
v 0.206330 0.140819 -0.237129
v 0.206330 0.181606 -0.237128
v 0.293670 0.006925 0.237131
v 0.293670 -0.033862 0.237131
v 0.293670 0.181606 0.237131
v 0.293670 0.140819 0.237131
v 0.293670 0.181606 -0.237128
v 0.293670 -0.033862 -0.237131
v 0.293670 0.006925 -0.237129
v 0.293670 0.140819 -0.237131
v 0.200000 -0.239558 -0.055438
v 0.300000 -0.239558 -0.056576
v 0.300000 -0.239558 -0.056576
v 0.206330 -0.160204 -0.049146
v 0.293670 -0.160204 -0.050022
v 0.300000 -0.239558 0.048015
v 0.293670 -0.160204 0.042513
v 0.206330 -0.160204 0.048673
v 0.300000 -0.239558 0.048015
v 0.200000 -0.239558 0.056019
v 0.293654 -0.104306 -0.050980
v 0.293654 -0.026200 -0.051764
v 0.293664 0.065204 -0.052445
v 0.293677 0.161054 -0.053192
v 0.293687 0.252533 -0.058606
v 0.293687 0.330858 -0.064939
v 0.206346 0.331681 -0.064833
v 0.206346 0.253692 -0.058415
v 0.206336 0.162328 -0.052833
v 0.206323 0.066477 -0.051941
v 0.206314 -0.025042 -0.051136
v 0.206313 -0.103484 -0.050228
v 0.218823 0.331563 -0.064901
v 0.231300 0.253362 -0.058496
v 0.243768 0.161783 -0.053157
v 0.256232 0.065751 -0.052443
v 0.268700 -0.025869 -0.051764
v 0.281177 -0.104188 -0.050980
v 0.206347 0.334305 0.008374
v 0.206347 0.255757 0.015297
v 0.206337 0.163874 0.020979
v 0.206324 0.067531 0.027750
v 0.206314 -0.024447 0.034597
v 0.206314 -0.103274 0.041547
v 0.206314 -0.103040 -0.042297
v 0.206314 -0.024173 -0.035273
v 0.206324 0.067773 -0.028146
v 0.206337 0.164055 -0.021027
v 0.206347 0.255867 -0.015046
v 0.206347 0.334344 -0.008026
v 0.206313 -0.103763 0.049476
v 0.206313 -0.025442 0.050453
v 0.206323 0.066030 0.051533
v 0.206336 0.161872 0.052763
v 0.206346 0.253270 0.058617
v 0.206346 0.331376 0.065150
v 0.293687 0.330592 0.048247
v 0.293686 0.252221 0.027701
v 0.293677 0.160779 0.010357
v 0.293664 0.064998 -0.004866
v 0.293654 -0.026325 -0.020045
v 0.293654 -0.104350 -0.035120
v 0.293687 0.330555 0.064056
v 0.293686 0.252117 0.056610
v 0.293677 0.160608 0.050096
v 0.293664 0.064769 0.048011
v 0.293654 -0.026585 0.046051
v 0.293654 -0.104571 0.044195
v 0.281209 0.330670 0.065035
v 0.268732 0.252441 0.058387
v 0.256245 0.161143 0.052708
v 0.243755 0.065483 0.051532
v 0.231268 -0.025773 0.050452
v 0.218791 -0.103880 0.049476
v 0.293654 -0.103862 -0.043049
v 0.293654 -0.025330 -0.035901
v 0.293664 0.066499 -0.028649
v 0.293677 0.162781 -0.021398
v 0.293687 0.254707 -0.015301
v 0.293687 0.333521 -0.008170
vn -0.0000 -0.0000 -1.0000
vn -0.0000 -1.0000 -0.0000
vn -0.0000 -0.0000 1.0000
vn 0.9950 -0.0000 -0.1002
vn -1.0000 -0.0000 -0.0000
vn 1.0000 -0.0000 -0.0000
vn -0.0000 1.0000 -0.0000
vn 0.9950 -0.0000 0.1002
vn -0.9950 -0.0000 0.1002
vn 0.9968 0.0795 -0.0000
vn -0.9968 0.0795 -0.0000
vn -0.9950 -0.0000 -0.1002
vn -0.9946 0.0016 0.1040
vn -0.9946 0.0016 -0.1040
vn 0.9946 0.0016 -0.1040
vn 0.9946 0.0016 0.1040
vn 0.0001 -0.0000 -1.0000
vn -0.0000 0.0429 0.9991
vn -0.0000 0.0429 -0.9991
vn -0.0000 0.7508 -0.6605
vn -0.9964 -0.0619 0.0585
vn -0.0000 -0.6895 0.7243
vn 0.9964 -0.0619 0.0585
vn 0.9962 -0.0737 0.0460
vn 0.9963 -0.0818 0.0279
vn 0.9962 -0.0855 0.0138
vn 0.9962 -0.0867 0.0043
vn 0.9962 -0.0867 -0.0043
vn 0.9962 -0.0855 -0.0138
vn 0.9963 -0.0818 -0.0279
vn 0.9962 -0.0737 -0.0460
vn 0.9964 -0.0619 -0.0585
vn -0.0000 -0.8492 0.5280
vn -0.0000 -0.9498 0.3129
vn -0.0000 -0.9879 0.1550
vn -0.0101 -0.0192 -0.9998
vn -0.0000 -0.9879 -0.1550
vn -0.0000 -0.9498 -0.3129
vn -0.0000 -0.8492 -0.5280
vn -0.0000 -0.6895 -0.7243
vn -0.9962 -0.0737 0.0460
vn -0.9963 -0.0818 0.0279
vn -0.9962 -0.0855 0.0138
vn -0.9962 -0.0867 0.0043
vn -0.9962 -0.0867 -0.0043
vn -0.9962 -0.0855 -0.0138
vn -0.9963 -0.0818 -0.0279
vn -0.9962 -0.0737 -0.0460
vn -0.9964 -0.0619 -0.0585
vn -0.0000 0.8470 -0.5316
vn -0.0000 0.9437 -0.3309
vn -0.0000 0.9866 -0.1632
vn -0.0000 0.9987 -0.0502
vn -0.0000 0.9987 0.0502
vn -0.0000 0.9866 0.1632
vn -0.0000 0.9437 0.3309
vn -0.0000 0.8470 0.5316
vn -0.0000 0.7508 0.6605
vn 1.0000 0.0003 -0.0000
vn -0.0000 -0.0001 -1.0000
vn -0.0000 0.0001 1.0000
vn -0.0000 0.0001 -1.0000
vn -1.0000 -0.0003 -0.0000
vn 0.0702 -0.0299 0.9971
vn -0.0005 -0.0515 -0.9987
vn 0.0005 -0.0482 0.9988
vn -0.0020 -0.0813 -0.9967
vn -0.0021 -0.0588 -0.9983
vn -0.0005 -0.0077 -1.0000
vn -0.0001 -0.0074 -1.0000
vn -0.0001 -0.0100 -0.9999
vn -0.0002 -0.0171 -0.9999
vn -0.0102 -0.0116 -0.9999
vn -0.0102 -0.0088 -0.9999
vn -0.0096 -0.0090 -0.9999
vn -0.0073 -0.0601 -0.9982
vn -0.0049 -0.0822 -0.9966
vn -0.0059 -0.0534 -0.9986
vn -1.0000 0.0001 -0.0000
vn 1.0000 -0.0001 -0.0000
vn 0.0016 -0.0841 0.9965
vn 0.0017 -0.0631 0.9980
vn 0.0005 -0.0126 0.9999
vn -0.0001 -0.0118 0.9999
vn -0.0001 -0.0125 0.9999
vn -0.0001 -0.0142 0.9999
vn 0.0701 -0.0237 0.9973
vn 0.0701 -0.0214 0.9973
vn 0.0697 -0.0215 0.9973
vn 0.0690 -0.0711 0.9951
vn 0.0720 -0.0951 0.9929
vn 0.0775 -0.0657 0.9948
vt 0.375000 0.250000
vt 0.625000 0.250000
vt 0.625000 0.333333
vt 0.384729 0.333333
vt 0.375000 0.323604
vt 0.375000 0.500000
vt 0.625000 0.500000
vt 0.625000 0.601427
vt 0.375000 0.601901
vt 0.375000 0.843062
vt 0.384729 0.833333
vt 0.625000 0.833333
vt 0.625000 0.916667
vt 0.384729 0.916667
vt 0.375000 0.906938
vt 0.375000 0.343062
vt 0.625000 0.416667
vt 0.384729 0.416667
vt 0.375000 0.406938
vt 0.218062 0.500000
vt 0.218062 0.511874
vt 0.198604 0.511874
vt 0.198604 0.500000
vt 0.375000 0.000000
vt 0.625000 0.000000
vt 0.625000 0.750000
vt 0.375000 0.750000
vt 0.625000 1.000000
vt 0.375000 1.000000
vt 0.125000 0.500000
vt 0.125000 0.750000
vt 0.875000 0.500000
vt 0.875000 0.750000
vt 0.301396 0.500000
vt 0.301396 0.511874
vt 0.281938 0.511874
vt 0.281938 0.500000
vt 0.375000 0.926395
vt 0.375000 0.426396
vt 0.375000 0.823604
vt 0.186730 0.738125
vt 0.198604 0.738124
vt 0.198604 0.750000
vt 0.229937 0.511875
vt 0.375000 0.416667
vt 0.375000 0.333333
vt 0.375000 0.916667
vt 0.375000 0.833333
vt 0.218062 0.511875
vt 0.198604 0.511876
vt 0.301396 0.511875
vt 0.281938 0.511875
vt 0.363125 0.738125
vt 0.363125 0.651956
vt 0.375000 0.648573
vt 0.363125 0.651482
vt 0.375000 0.648341
vt 0.198604 0.738123
vt 0.313270 0.511875
vt 0.270063 0.738125
vt 0.281938 0.738123
vt 0.281938 0.750000
vt 0.363125 0.511875
vt 0.313270 0.738125
vt 0.301396 0.750000
vt 0.270063 0.511875
vt 0.229937 0.738125
vt 0.218062 0.750000
vt 0.186730 0.511875
vt 0.136875 0.511875
vt 0.136875 0.738125
vt 0.281938 0.738125
vt 0.301396 0.738126
vt 0.363125 0.598518
vt 0.218062 0.738124
vt 0.375000 0.325000
vt 0.625000 0.325000
vt 0.136875 0.534500
vt 0.125000 0.525000
vt 0.136875 0.715500
vt 0.125000 0.725000
vt 0.125000 0.700000
vt 0.136875 0.692875
vt 0.125000 0.675000
vt 0.136875 0.670250
vt 0.125000 0.650000
vt 0.136875 0.647625
vt 0.125000 0.625000
vt 0.136875 0.625000
vt 0.125000 0.600000
vt 0.136875 0.602375
vt 0.125000 0.575000
vt 0.136875 0.579750
vt 0.125000 0.550000
vt 0.136875 0.557125
vt 0.136875 0.534500
vt 0.136875 0.557125
vt 0.136875 0.579750
vt 0.136875 0.602375
vt 0.330804 0.599069
vt 0.330804 0.644873
vt 0.136875 0.647625
vt 0.136875 0.670250
vt 0.125000 0.550000
vt 0.125000 0.575000
vt 0.125000 0.600000
vt 0.136875 0.625000
vt 0.125000 0.650000
vt 0.125000 0.675000
vt 0.125000 0.700000
vt 0.375000 0.400000
vt 0.625000 0.400000
vt 0.375000 0.475000
vt 0.625000 0.475000
vt 0.375000 0.550000
vt 0.625000 0.550000
vt 0.375000 0.625000
vt 0.625000 0.625000
vt 0.375000 0.700000
vt 0.625000 0.700000
vt 0.375000 0.775000
vt 0.625000 0.775000
vt 0.375000 0.850000
vt 0.625000 0.850000
vt 0.375000 0.925000
vt 0.625000 0.925000
vt 0.169196 0.628851
vt 0.169196 0.648244
vt 0.301396 0.738122
vt 0.625000 0.645006
vt 0.218062 0.738126
vt 0.363125 0.601853
vt 0.375000 0.604994
vt 0.330804 0.601927
vt 0.169196 0.601824
vt 0.169196 0.621217
vt 0.330804 0.644467
vt 0.169196 0.628783
vt 0.169196 0.648176
vt 0.169196 0.609458
vt 0.330804 0.647699
vt 0.330804 0.602301
vt 0.169196 0.609390
vt 0.169196 0.609458
vt 0.201518 0.648862
vt 0.201518 0.616541
vt 0.233839 0.649481
vt 0.233839 0.623624
vt 0.266161 0.650100
vt 0.266161 0.630707
vt 0.298482 0.650719
vt 0.298482 0.637790
vt 0.330804 0.651337
vt 0.298482 0.599620
vt 0.266161 0.600171
vt 0.233839 0.600722
vt 0.201518 0.601273
vt 0.201518 0.617434
vt 0.233839 0.613651
vt 0.266161 0.609868
vt 0.298482 0.606085
vt 0.298482 0.643916
vt 0.266161 0.640133
vt 0.233839 0.636350
vt 0.201518 0.632566
vt 0.201518 0.648727
vt 0.233839 0.649278
vt 0.266161 0.649829
vt 0.298482 0.650380
vt 0.330804 0.650931
vt 0.298482 0.602002
vt 0.266161 0.602076
vt 0.233839 0.602151
vt 0.201518 0.616541
vt 0.201518 0.602226
vt 0.169196 0.602300
vt 0.201518 0.616406
vt 0.233839 0.623421
vt 0.266161 0.630436
vt 0.298482 0.637452
vt 0.201518 0.632702
vt 0.233839 0.636553
vt 0.266161 0.640403
vt 0.298482 0.644254
vt 0.330804 0.648105
s 0
usemtl Material
f 65/1/1 4/2/1 49/3/1 58/4/1 72/5/1
f 68/6/2 8/7/2 163/8/2 162/9/2
f 75/10/3 64/11/3 51/12/3 52/13/3 61/14/3 70/15/3
f 69/16/1 58/4/1 49/3/1 50/17/1 55/18/1 76/19/1
f 93/20/4 157/21/4 156/22/4 96/23/4
f 9/24/5 10/25/5 12/2/5 11/1/5
f 11/1/1 12/2/1 16/7/1 15/6/1
f 15/6/6 16/7/6 14/26/6 13/27/6
f 13/27/3 14/26/3 10/28/3 9/29/3
f 11/30/2 15/6/2 13/27/2 9/31/2
f 16/7/7 12/32/7 10/33/7 14/26/7
f 17/24/5 18/25/5 20/2/5 19/1/5
f 19/1/1 20/2/1 24/7/1 23/6/1
f 23/6/6 24/7/6 22/26/6 21/27/6
f 21/27/3 22/26/3 18/28/3 17/29/3
f 19/30/2 23/6/2 21/27/2 17/31/2
f 24/7/7 20/32/7 18/33/7 22/26/7
f 25/24/5 26/25/5 28/2/5 27/1/5
f 27/1/1 28/2/1 32/7/1 31/6/1
f 31/6/6 32/7/6 30/26/6 29/27/6
f 29/27/3 30/26/3 26/28/3 25/29/3
f 27/30/2 31/6/2 29/27/2 25/31/2
f 32/7/7 28/32/7 26/33/7 30/26/7
f 33/24/5 34/25/5 36/2/5 35/1/5
f 35/1/1 36/2/1 40/7/1 39/6/1
f 39/6/6 40/7/6 38/26/6 37/27/6
f 37/27/3 38/26/3 34/28/3 33/29/3
f 35/30/2 39/6/2 37/27/2 33/31/2
f 40/7/7 36/32/7 34/33/7 38/26/7
f 41/24/5 42/25/5 44/2/5 43/1/5
f 43/1/1 44/2/1 48/7/1 47/6/1
f 47/6/6 48/7/6 46/26/6 45/27/6
f 45/27/3 46/26/3 42/28/3 41/29/3
f 43/30/2 47/6/2 45/27/2 41/31/2
f 48/7/7 44/32/7 42/33/7 46/26/7
f 97/34/4 155/35/4 154/36/4 100/37/4
f 71/38/3 61/14/3 52/13/3 2/28/3 66/29/3
f 73/39/1 55/18/1 50/17/1 8/7/1 68/6/1
f 67/27/3 6/26/3 51/12/3 64/11/3 74/40/3
f 85/41/8 158/42/8 95/43/8
f 83/44/4 157/21/4 93/20/4
f 73/45/1 76/19/1 55/18/1
f 69/46/1 72/5/1 58/4/1
f 71/38/3 70/47/3 61/14/3
f 75/10/3 74/48/3 64/11/3
f 69/20/9 152/49/9 153/50/9 72/23/9
f 73/34/9 151/51/9 150/52/9 76/37/9
f 79/53/10 166/54/10 164/55/10 91/27/10
f 5/53/11 169/56/11 171/57/11 67/27/11
f 56/44/9 152/49/9 69/20/9
f 59/41/12 148/58/12 71/43/12
f 53/59/9 151/51/9 73/34/9
f 62/60/12 146/61/12 75/62/12
f 7/63/9 53/59/9 73/34/9 68/6/9
f 63/64/12 5/53/12 67/27/12 74/65/12
f 54/66/9 56/44/9 69/20/9 76/37/9
f 60/67/12 62/60/12 75/62/12 70/68/12
f 57/69/13 3/70/13 65/30/13 72/23/13
f 1/71/14 59/41/14 71/43/14 66/31/14
f 81/59/4 155/35/4 97/34/4
f 87/60/8 160/72/8 99/62/8
f 80/63/4 81/59/4 97/34/4 92/6/4
f 88/64/8 79/53/8 91/27/8 98/65/8
f 82/66/4 83/44/4 93/20/4 100/37/4
f 86/67/8 87/60/8 99/62/8 94/68/8
f 84/69/15 78/70/15 89/30/15 96/23/15
f 77/71/16 85/41/16 95/43/16 90/31/16
f 156/22/1 148/58/1 59/41/1 84/69/1
f 62/60/1 60/67/1 83/44/1 82/66/1
f 88/64/3 159/73/3 151/51/3 53/59/3
f 56/44/3 54/66/3 87/60/3 86/67/3
f 7/63/7 165/74/7 166/54/7 79/53/7
f 5/53/1 63/64/1 81/59/1 80/63/1
f 157/21/17 149/75/17 148/58/17 156/22/17
f 53/59/3 7/63/3 79/53/3 88/64/3
f 3/70/18 57/69/18 85/41/18 77/71/18
f 59/41/19 1/71/19 78/70/19 84/69/19
f 4/2/20 65/1/20 136/76/20 137/77/20
f 65/30/21 3/70/21 127/78/21 136/79/21
f 3/70/22 77/71/22 118/80/22 127/78/22
f 77/71/23 90/31/23 109/81/23 118/80/23
f 118/80/24 109/81/24 108/82/24 117/83/24
f 117/83/25 108/82/25 107/84/25 116/85/25
f 116/85/26 107/84/26 106/86/26 115/87/26
f 115/87/27 106/86/27 105/88/27 114/89/27
f 114/89/28 105/88/28 104/90/28 113/91/28
f 113/91/29 104/90/29 103/92/29 112/93/29
f 112/93/30 103/92/30 102/94/30 111/95/30
f 111/95/31 102/94/31 101/79/31 110/96/31
f 110/96/32 101/79/32 89/30/32 78/70/32
f 127/78/33 118/80/33 117/83/33 126/97/33
f 126/97/34 117/83/34 116/85/34 125/98/34
f 125/98/35 116/85/35 115/87/35 124/99/35
f 166/54/36 165/74/36 183/100/36 189/101/36
f 122/102/37 113/91/37 112/93/37 121/103/37
f 121/103/38 112/93/38 111/95/38 120/83/38
f 120/83/39 111/95/39 110/96/39 119/80/39
f 119/80/40 110/96/40 78/70/40 1/71/40
f 136/79/41 127/78/41 126/97/41 135/104/41
f 135/104/42 126/97/42 125/98/42 134/105/42
f 134/105/43 125/98/43 124/99/43 133/106/43
f 133/106/44 124/99/44 123/107/44 132/88/44
f 132/88/45 123/107/45 122/102/45 131/108/45
f 131/108/46 122/102/46 121/103/46 130/109/46
f 130/109/47 121/103/47 120/83/47 129/110/47
f 129/110/48 120/83/48 119/80/48 128/81/48
f 128/81/49 119/80/49 1/71/49 66/31/49
f 137/77/50 136/76/50 135/111/50 138/112/50
f 138/112/51 135/111/51 134/113/51 139/114/51
f 139/114/52 134/113/52 133/115/52 140/116/52
f 140/116/53 133/115/53 132/117/53 141/118/53
f 141/118/54 132/117/54 131/119/54 142/120/54
f 142/120/55 131/119/55 130/121/55 143/122/55
f 143/122/56 130/121/56 129/123/56 144/124/56
f 144/124/57 129/123/57 128/125/57 145/126/57
f 145/126/58 128/125/58 66/29/58 2/28/58
f 115/87/59 114/89/59 231/127/59 177/128/59
f 148/58/12 149/75/12 70/68/12 71/43/12
f 155/35/60 81/59/60 63/64/60 147/129/60
f 149/75/12 60/67/12 70/68/12
f 146/61/12 147/129/12 74/65/12 75/62/12
f 162/9/2 163/8/2 167/130/2 171/57/2
f 147/129/12 63/64/12 74/65/12
f 153/50/9 57/69/9 72/23/9
f 85/41/61 57/69/61 153/50/61 158/42/61
f 150/52/9 54/66/9 76/37/9
f 86/67/3 161/131/3 152/49/3 56/44/3
f 155/35/17 147/129/17 146/61/17 154/36/17
f 157/21/60 83/44/60 60/67/60 149/75/60
f 162/9/11 165/74/11 7/63/11 68/6/11
f 160/72/3 150/52/3 151/51/3 159/73/3
f 154/36/62 146/61/62 62/60/62 82/66/62
f 156/22/4 84/69/4 96/23/4
f 154/36/4 82/66/4 100/37/4
f 161/131/3 158/42/3 153/50/3 152/49/3
f 159/73/8 88/64/8 98/65/8
f 164/55/10 166/54/10 168/132/10 170/133/10
f 158/42/8 161/131/8 94/68/8 95/43/8
f 87/60/3 54/66/3 150/52/3 160/72/3
f 160/72/8 159/73/8 98/65/8 99/62/8
f 161/131/8 86/67/8 94/68/8
f 171/57/11 169/56/11 165/74/11 162/9/11
f 170/133/10 168/132/10 80/63/10 92/6/10
f 168/132/7 169/56/7 5/53/7 80/63/7
f 171/57/2 167/130/2 6/26/2 67/27/2
f 168/132/59 166/54/59 213/101/59 219/134/59
f 178/135/63 201/136/63 123/107/63 124/99/63
f 169/56/64 168/132/64 219/134/64 225/137/64
f 190/138/63 207/139/63 122/102/63 123/107/63
f 177/128/65 184/140/65 124/99/65 115/87/65
f 165/74/63 169/56/63 195/141/63 196/142/63
f 113/91/66 122/102/66 207/139/66 220/143/66
f 208/144/59 231/127/59 114/89/59 113/91/59
f 176/145/67 185/146/67 184/140/67 177/128/67
f 175/147/68 186/148/68 185/146/68 176/145/68
f 174/149/69 187/150/69 186/148/69 175/147/69
f 173/151/70 188/152/70 187/150/70 174/149/70
f 189/101/71 188/152/71 173/151/71 172/153/71
f 166/54/72 189/101/72 172/153/72
f 189/101/73 183/100/73 182/154/73 188/152/73
f 188/152/74 182/154/74 181/155/74 187/150/74
f 187/150/75 181/155/75 180/156/75 186/148/75
f 186/148/76 180/156/76 179/157/76 185/146/76
f 185/146/77 179/157/77 178/135/77 184/140/77
f 184/140/78 178/135/78 124/99/78
f 179/157/5 200/158/5 201/136/5 178/135/5
f 180/156/79 199/159/79 200/158/79 179/157/79
f 181/155/79 198/160/79 199/159/79 180/156/79
f 182/154/79 197/161/79 198/160/79 181/155/79
f 196/142/5 197/161/5 182/154/5 183/100/5
f 165/74/63 196/142/63 183/100/63
f 196/142/5 195/141/5 194/162/5 197/161/5
f 197/161/79 194/162/79 193/163/79 198/160/79
f 198/160/79 193/163/79 192/164/79 199/159/79
f 199/159/79 192/164/79 191/165/79 200/158/79
f 200/158/5 191/165/5 190/138/5 201/136/5
f 201/136/63 190/138/63 123/107/63
f 191/165/5 206/166/5 207/139/5 190/138/5
f 192/164/79 205/167/79 206/166/79 191/165/79
f 193/163/79 204/168/79 205/167/79 192/164/79
f 194/162/79 203/169/79 204/168/79 193/163/79
f 202/170/5 203/169/5 194/162/5 195/141/5
f 169/56/63 202/170/63 195/141/63
f 219/134/6 213/101/6 212/152/6 218/171/6
f 218/171/80 212/152/80 211/150/80 217/172/80
f 217/172/80 211/150/80 210/148/80 216/173/80
f 216/173/80 210/148/80 209/174/80 215/175/80
f 215/175/6 209/174/6 208/144/6 214/176/6
f 214/176/59 208/144/59 113/91/59
f 220/143/81 207/139/81 206/166/81 221/177/81
f 221/177/82 206/166/82 205/167/82 222/178/82
f 222/178/83 205/167/83 204/168/83 223/179/83
f 223/179/84 204/168/84 203/169/84 224/180/84
f 224/180/85 203/169/85 202/170/85 225/137/85
f 225/137/86 202/170/86 169/56/86
f 225/137/87 219/134/87 218/171/87 224/180/87
f 224/180/88 218/171/88 217/172/88 223/179/88
f 223/179/89 217/172/89 216/173/89 222/178/89
f 222/178/90 216/173/90 215/175/90 221/177/90
f 221/177/91 215/175/91 214/176/91 220/143/91
f 220/143/92 214/176/92 113/91/92
f 177/128/6 231/127/6 230/181/6 176/145/6
f 176/145/80 230/181/80 229/182/80 175/147/80
f 175/147/80 229/182/80 228/183/80 174/149/80
f 174/149/80 228/183/80 227/184/80 173/151/80
f 173/151/6 227/184/6 226/185/6 172/153/6
f 172/153/59 226/185/59 166/54/59
f 209/174/6 230/181/6 231/127/6 208/144/6
f 210/148/80 229/182/80 230/181/80 209/174/80
f 211/150/80 228/183/80 229/182/80 210/148/80
f 212/152/80 227/184/80 228/183/80 211/150/80
f 226/185/6 227/184/6 212/152/6 213/101/6
f 166/54/59 226/185/59 213/101/59
