{
	"asset":{
		"generator":"Khronos glTF Blender I/O v4.0.44",
		"version":"2.0"
	},
	"scene":0,
	"scenes":[
		{
			"name":"Scene",
			"nodes":[
				0,
				1,
				2,
				3,
				4
			]
		}
	],
	"nodes":[
		{
			"mesh":0,
			"name":"Circle",
			"rotation":[
				0,
				0,
				0.7071068286895752,
				0.7071068286895752
			],
			"translation":[
				-0.02000000700354576,
				1.1211967468261719,
				0.3297167122364044
			]
		},
		{
			"mesh":1,
			"name":"Cylinder.001",
			"rotation":[
				0,
				0.8529167771339417,
				0,
				0.5220469236373901
			],
			"translation":[
				0.013243471272289753,
				0.9959959983825684,
				-0.453046053647995
			]
		},
		{
			"mesh":2,
			"name":"Circle.002",
			"rotation":[
				0,
				0,
				-0.7071068286895752,
				0.7071068286895752
			],
			"translation":[
				0.02000000700354576,
				1.1211967468261719,
				0.3297167122364044
			]
		},
		{
			"mesh":3,
			"name":"Cylinder.005",
			"rotation":[
				0,
				0.2339603453874588,
				0,
				0.9722462296485901
			],
			"translation":[
				0.013243486173450947,
				1.4124822616577148,
				-0.4530460238456726
			]
		},
		{
			"mesh":4,
			"name":"klamka.001",
			"rotation":[
				0,
				0,
				-1,
				1.910685676922942e-15
			],
			"translation":[
				0.03542704880237579,
				1.1211968660354614,
				0.3297167122364044
			]
		}
	],
	"animations":[
		{
			"channels":[
				{
					"sampler":0,
					"target":{
						"node":4,
						"path":"translation"
					}
				},
				{
					"sampler":1,
					"target":{
						"node":4,
						"path":"rotation"
					}
				},
				{
					"sampler":2,
					"target":{
						"node":4,
						"path":"scale"
					}
				}
			],
			"name":"klamka.001Action.001",
			"samplers":[
				{
					"input":45,
					"interpolation":"STEP",
					"output":46
				},
				{
					"input":47,
					"interpolation":"LINEAR",
					"output":48
				},
				{
					"input":45,
					"interpolation":"STEP",
					"output":49
				}
			]
		}
	],
	"materials":[
		{
			"doubleSided":true,
			"name":"Material.009",
			"pbrMetallicRoughness":{
				"baseColorFactor":[
					0.4485764503479004,
					0.4485764503479004,
					0.4485764503479004,
					1
				],
				"roughnessFactor":0.7618181705474854
			}
		},
		{
			"doubleSided":true,
			"name":"Material.010",
			"pbrMetallicRoughness":{
				"baseColorFactor":[
					0.31089097261428833,
					0.31089097261428833,
					0.31089097261428833,
					1
				],
				"roughnessFactor":0.7618181705474854
			}
		},
		{
			"doubleSided":true,
			"name":"Material.003",
			"pbrMetallicRoughness":{
				"baseColorFactor":[
					0.4485764503479004,
					0.4485764503479004,
					0.4485764503479004,
					1
				],
				"roughnessFactor":0.7618181705474854
			}
		},
		{
			"doubleSided":true,
			"name":"Material.001",
			"pbrMetallicRoughness":{
				"baseColorFactor":[
					0.23459024727344513,
					0.08437253534793854,
					0.0273189265280962,
					1
				],
				"metallicFactor":0,
				"roughnessFactor":0.5
			}
		},
		{
			"doubleSided":true,
			"name":"Material.004",
			"pbrMetallicRoughness":{
				"baseColorFactor":[
					0.4485764503479004,
					0.4485764503479004,
					0.4485764503479004,
					1
				],
				"roughnessFactor":0.7618181705474854
			}
		},
		{
			"doubleSided":true,
			"name":"Material.005",
			"pbrMetallicRoughness":{
				"baseColorFactor":[
					0.4485764503479004,
					0.4485764503479004,
					0.4485764503479004,
					1
				],
				"roughnessFactor":0.7618181705474854
			}
		},
		{
			"doubleSided":true,
			"name":"Material.006",
			"pbrMetallicRoughness":{
				"baseColorFactor":[
					0.31089097261428833,
					0.31089097261428833,
					0.31089097261428833,
					1
				],
				"roughnessFactor":0.7618181705474854
			}
		},
		{
			"doubleSided":true,
			"name":"Material.002",
			"pbrMetallicRoughness":{
				"baseColorFactor":[
					0.14525924623012543,
					0.053824104368686676,
					0.01832079142332077,
					1
				],
				"metallicFactor":0,
				"roughnessFactor":0.5
			}
		},
		{
			"doubleSided":true,
			"name":"Material.015",
			"pbrMetallicRoughness":{
				"baseColorFactor":[
					0.4485764503479004,
					0.4485764503479004,
					0.4485764503479004,
					1
				],
				"roughnessFactor":0.7618181705474854
			}
		},
		{
			"doubleSided":true,
			"name":"Material.012",
			"pbrMetallicRoughness":{
				"baseColorFactor":[
					0.4485764503479004,
					0.4485764503479004,
					0.4485764503479004,
					1
				],
				"roughnessFactor":0.7618181705474854
			}
		}
	],
	"meshes":[
		{
			"name":"Circle",
			"primitives":[
				{
					"attributes":{
						"POSITION":0,
						"NORMAL":1,
						"TEXCOORD_0":2
					},
					"indices":3,
					"material":0
				},
				{
					"attributes":{
						"POSITION":4,
						"NORMAL":5,
						"TEXCOORD_0":6
					},
					"indices":7,
					"material":1
				}
			]
		},
		{
			"name":"Cylinder.006",
			"primitives":[
				{
					"attributes":{
						"POSITION":8,
						"NORMAL":9,
						"TEXCOORD_0":10
					},
					"indices":11,
					"material":2
				},
				{
					"attributes":{
						"POSITION":12,
						"NORMAL":13,
						"TEXCOORD_0":14
					},
					"indices":15,
					"material":3
				},
				{
					"attributes":{
						"POSITION":16,
						"NORMAL":17,
						"TEXCOORD_0":18
					},
					"indices":19,
					"material":4
				}
			]
		},
		{
			"name":"Circle.002",
			"primitives":[
				{
					"attributes":{
						"POSITION":20,
						"NORMAL":21,
						"TEXCOORD_0":22
					},
					"indices":23,
					"material":5
				},
				{
					"attributes":{
						"POSITION":24,
						"NORMAL":25,
						"TEXCOORD_0":26
					},
					"indices":7,
					"material":6
				}
			]
		},
		{
			"name":"Cylinder.008",
			"primitives":[
				{
					"attributes":{
						"POSITION":27,
						"NORMAL":28,
						"TEXCOORD_0":29
					},
					"indices":19,
					"material":4
				},
				{
					"attributes":{
						"POSITION":30,
						"NORMAL":31,
						"TEXCOORD_0":32
					},
					"indices":33,
					"material":7
				},
				{
					"attributes":{
						"POSITION":34,
						"NORMAL":35,
						"TEXCOORD_0":36
					},
					"indices":11,
					"material":2
				}
			]
		},
		{
			"name":"Circle.005",
			"primitives":[
				{
					"attributes":{
						"POSITION":37,
						"NORMAL":38,
						"TEXCOORD_0":39
					},
					"indices":40,
					"material":8
				},
				{
					"attributes":{
						"POSITION":41,
						"NORMAL":42,
						"TEXCOORD_0":43
					},
					"indices":44,
					"material":9
				}
			]
		}
	],
	"accessors":[
		{
			"bufferView":0,
			"componentType":5126,
			"count":224,
			"max":[
				0.03566955775022507,
				0.01542704738676548,
				0.035669729113578796
			],
			"min":[
				-0.035669926553964615,
				-9.313225746154785e-10,
				-0.03566975146532059
			],
			"type":"VEC3"
		},
		{
			"bufferView":1,
			"componentType":5126,
			"count":224,
			"type":"VEC3"
		},
		{
			"bufferView":2,
			"componentType":5126,
			"count":224,
			"type":"VEC2"
		},
		{
			"bufferView":3,
			"componentType":5123,
			"count":666,
			"type":"SCALAR"
		},
		{
			"bufferView":4,
			"componentType":5126,
			"count":128,
			"max":[
				0.03566955775022507,
				0.01542704738676548,
				0.035669729113578796
			],
			"min":[
				-0.035669926553964615,
				-9.313225746154785e-10,
				-0.03566975146532059
			],
			"type":"VEC3"
		},
		{
			"bufferView":5,
			"componentType":5126,
			"count":128,
			"type":"VEC3"
		},
		{
			"bufferView":6,
			"componentType":5126,
			"count":128,
			"type":"VEC2"
		},
		{
			"bufferView":7,
			"componentType":5123,
			"count":384,
			"type":"SCALAR"
		},
		{
			"bufferView":8,
			"componentType":5126,
			"count":128,
			"max":[
				0.00764562888070941,
				-0.43537721037864685,
				0.00764565821737051
			],
			"min":[
				-0.012049093842506409,
				-0.4731588065624237,
				-0.008111227303743362
			],
			"type":"VEC3"
		},
		{
			"bufferView":9,
			"componentType":5126,
			"count":128,
			"type":"VEC3"
		},
		{
			"bufferView":10,
			"componentType":5126,
			"count":128,
			"type":"VEC2"
		},
		{
			"bufferView":11,
			"componentType":5123,
			"count":396,
			"type":"SCALAR"
		},
		{
			"bufferView":12,
			"componentType":5126,
			"count":64,
			"max":[
				-0.007867581211030483,
				0.9999999403953552,
				8.176652045221999e-05
			],
			"min":[
				-0.7983536720275879,
				-0.9999999403953552,
				-0.4290570914745331
			],
			"type":"VEC3"
		},
		{
			"bufferView":13,
			"componentType":5126,
			"count":64,
			"type":"VEC3"
		},
		{
			"bufferView":14,
			"componentType":5126,
			"count":64,
			"type":"VEC2"
		},
		{
			"bufferView":15,
			"componentType":5123,
			"count":132,
			"type":"SCALAR"
		},
		{
			"bufferView":16,
			"componentType":5126,
			"count":128,
			"max":[
				0.0076456572860479355,
				0.4731588065624237,
				0.0076456572860479355
			],
			"min":[
				-0.012049063108861446,
				0.43537721037864685,
				-0.008111226372420788
			],
			"type":"VEC3"
		},
		{
			"bufferView":17,
			"componentType":5126,
			"count":128,
			"type":"VEC3"
		},
		{
			"bufferView":18,
			"componentType":5126,
			"count":128,
			"type":"VEC2"
		},
		{
			"bufferView":19,
			"componentType":5123,
			"count":396,
			"type":"SCALAR"
		},
		{
			"bufferView":20,
			"componentType":5126,
			"count":224,
			"max":[
				0.035669926553964615,
				0.01542704738676548,
				0.035669729113578796
			],
			"min":[
				-0.03566955775022507,
				-9.313225746154785e-10,
				-0.03566975146532059
			],
			"type":"VEC3"
		},
		{
			"bufferView":21,
			"componentType":5126,
			"count":224,
			"type":"VEC3"
		},
		{
			"bufferView":22,
			"componentType":5126,
			"count":224,
			"type":"VEC2"
		},
		{
			"bufferView":23,
			"componentType":5123,
			"count":666,
			"type":"SCALAR"
		},
		{
			"bufferView":24,
			"componentType":5126,
			"count":128,
			"max":[
				0.035669926553964615,
				0.01542704738676548,
				0.035669729113578796
			],
			"min":[
				-0.03566955775022507,
				-9.313225746154785e-10,
				-0.03566975146532059
			],
			"type":"VEC3"
		},
		{
			"bufferView":25,
			"componentType":5126,
			"count":128,
			"type":"VEC3"
		},
		{
			"bufferView":26,
			"componentType":5126,
			"count":128,
			"type":"VEC2"
		},
		{
			"bufferView":27,
			"componentType":5126,
			"count":128,
			"max":[
				0.00764565821737051,
				0.01889079250395298,
				0.00764565821737051
			],
			"min":[
				-0.012049139477312565,
				-0.01889079250395298,
				-0.008111265487968922
			],
			"type":"VEC3"
		},
		{
			"bufferView":28,
			"componentType":5126,
			"count":128,
			"type":"VEC3"
		},
		{
			"bufferView":29,
			"componentType":5126,
			"count":128,
			"type":"VEC2"
		},
		{
			"bufferView":30,
			"componentType":5126,
			"count":128,
			"max":[
				0.0002568929921835661,
				0.6335136294364929,
				0.8187859058380127
			],
			"min":[
				-0.6153037548065186,
				-1.4164862632751465,
				-0.11550839990377426
			],
			"type":"VEC3"
		},
		{
			"bufferView":31,
			"componentType":5126,
			"count":128,
			"type":"VEC3"
		},
		{
			"bufferView":32,
			"componentType":5126,
			"count":128,
			"type":"VEC2"
		},
		{
			"bufferView":33,
			"componentType":5123,
			"count":228,
			"type":"SCALAR"
		},
		{
			"bufferView":34,
			"componentType":5126,
			"count":128,
			"max":[
				0.007645657751709223,
				-0.8896452188491821,
				0.007645628415048122
			],
			"min":[
				-0.01204913854598999,
				-0.927426815032959,
				-0.008111294358968735
			],
			"type":"VEC3"
		},
		{
			"bufferView":35,
			"componentType":5126,
			"count":128,
			"type":"VEC3"
		},
		{
			"bufferView":36,
			"componentType":5126,
			"count":128,
			"type":"VEC2"
		},
		{
			"bufferView":37,
			"componentType":5126,
			"count":135,
			"max":[
				0.0034646429121494293,
				0.012500286102294922,
				0.012672245502471924
			],
			"min":[
				-0.06187986582517624,
				-0.012499809265136719,
				-0.11463946104049683
			],
			"type":"VEC3"
		},
		{
			"bufferView":38,
			"componentType":5126,
			"count":135,
			"type":"VEC3"
		},
		{
			"bufferView":39,
			"componentType":5126,
			"count":135,
			"type":"VEC2"
		},
		{
			"bufferView":40,
			"componentType":5123,
			"count":468,
			"type":"SCALAR"
		},
		{
			"bufferView":41,
			"componentType":5126,
			"count":119,
			"max":[
				0.1357715129852295,
				0.012496738694608212,
				0.012672245502471924
			],
			"min":[
				0.07042700052261353,
				-0.01250336691737175,
				-0.11463946849107742
			],
			"type":"VEC3"
		},
		{
			"bufferView":42,
			"componentType":5126,
			"count":119,
			"type":"VEC3"
		},
		{
			"bufferView":43,
			"componentType":5126,
			"count":119,
			"type":"VEC2"
		},
		{
			"bufferView":44,
			"componentType":5123,
			"count":426,
			"type":"SCALAR"
		},
		{
			"bufferView":45,
			"componentType":5126,
			"count":2,
			"max":[
				2
			],
			"min":[
				0
			],
			"type":"SCALAR"
		},
		{
			"bufferView":46,
			"componentType":5126,
			"count":2,
			"type":"VEC3"
		},
		{
			"bufferView":47,
			"componentType":5126,
			"count":121,
			"max":[
				2
			],
			"min":[
				0
			],
			"type":"SCALAR"
		},
		{
			"bufferView":48,
			"componentType":5126,
			"count":121,
			"type":"VEC4"
		},
		{
			"bufferView":49,
			"componentType":5126,
			"count":2,
			"type":"VEC3"
		}
	],
	"bufferViews":[
		{
			"buffer":0,
			"byteLength":2688,
			"byteOffset":0,
			"target":34962
		},
		{
			"buffer":0,
			"byteLength":2688,
			"byteOffset":2688,
			"target":34962
		},
		{
			"buffer":0,
			"byteLength":1792,
			"byteOffset":5376,
			"target":34962
		},
		{
			"buffer":0,
			"byteLength":1332,
			"byteOffset":7168,
			"target":34963
		},
		{
			"buffer":0,
			"byteLength":1536,
			"byteOffset":8500,
			"target":34962
		},
		{
			"buffer":0,
			"byteLength":1536,
			"byteOffset":10036,
			"target":34962
		},
		{
			"buffer":0,
			"byteLength":1024,
			"byteOffset":11572,
			"target":34962
		},
		{
			"buffer":0,
			"byteLength":768,
			"byteOffset":12596,
			"target":34963
		},
		{
			"buffer":0,
			"byteLength":1536,
			"byteOffset":13364,
			"target":34962
		},
		{
			"buffer":0,
			"byteLength":1536,
			"byteOffset":14900,
			"target":34962
		},
		{
			"buffer":0,
			"byteLength":1024,
			"byteOffset":16436,
			"target":34962
		},
		{
			"buffer":0,
			"byteLength":792,
			"byteOffset":17460,
			"target":34963
		},
		{
			"buffer":0,
			"byteLength":768,
			"byteOffset":18252,
			"target":34962
		},
		{
			"buffer":0,
			"byteLength":768,
			"byteOffset":19020,
			"target":34962
		},
		{
			"buffer":0,
			"byteLength":512,
			"byteOffset":19788,
			"target":34962
		},
		{
			"buffer":0,
			"byteLength":264,
			"byteOffset":20300,
			"target":34963
		},
		{
			"buffer":0,
			"byteLength":1536,
			"byteOffset":20564,
			"target":34962
		},
		{
			"buffer":0,
			"byteLength":1536,
			"byteOffset":22100,
			"target":34962
		},
		{
			"buffer":0,
			"byteLength":1024,
			"byteOffset":23636,
			"target":34962
		},
		{
			"buffer":0,
			"byteLength":792,
			"byteOffset":24660,
			"target":34963
		},
		{
			"buffer":0,
			"byteLength":2688,
			"byteOffset":25452,
			"target":34962
		},
		{
			"buffer":0,
			"byteLength":2688,
			"byteOffset":28140,
			"target":34962
		},
		{
			"buffer":0,
			"byteLength":1792,
			"byteOffset":30828,
			"target":34962
		},
		{
			"buffer":0,
			"byteLength":1332,
			"byteOffset":32620,
			"target":34963
		},
		{
			"buffer":0,
			"byteLength":1536,
			"byteOffset":33952,
			"target":34962
		},
		{
			"buffer":0,
			"byteLength":1536,
			"byteOffset":35488,
			"target":34962
		},
		{
			"buffer":0,
			"byteLength":1024,
			"byteOffset":37024,
			"target":34962
		},
		{
			"buffer":0,
			"byteLength":1536,
			"byteOffset":38048,
			"target":34962
		},
		{
			"buffer":0,
			"byteLength":1536,
			"byteOffset":39584,
			"target":34962
		},
		{
			"buffer":0,
			"byteLength":1024,
			"byteOffset":41120,
			"target":34962
		},
		{
			"buffer":0,
			"byteLength":1536,
			"byteOffset":42144,
			"target":34962
		},
		{
			"buffer":0,
			"byteLength":1536,
			"byteOffset":43680,
			"target":34962
		},
		{
			"buffer":0,
			"byteLength":1024,
			"byteOffset":45216,
			"target":34962
		},
		{
			"buffer":0,
			"byteLength":456,
			"byteOffset":46240,
			"target":34963
		},
		{
			"buffer":0,
			"byteLength":1536,
			"byteOffset":46696,
			"target":34962
		},
		{
			"buffer":0,
			"byteLength":1536,
			"byteOffset":48232,
			"target":34962
		},
		{
			"buffer":0,
			"byteLength":1024,
			"byteOffset":49768,
			"target":34962
		},
		{
			"buffer":0,
			"byteLength":1620,
			"byteOffset":50792,
			"target":34962
		},
		{
			"buffer":0,
			"byteLength":1620,
			"byteOffset":52412,
			"target":34962
		},
		{
			"buffer":0,
			"byteLength":1080,
			"byteOffset":54032,
			"target":34962
		},
		{
			"buffer":0,
			"byteLength":936,
			"byteOffset":55112,
			"target":34963
		},
		{
			"buffer":0,
			"byteLength":1428,
			"byteOffset":56048,
			"target":34962
		},
		{
			"buffer":0,
			"byteLength":1428,
			"byteOffset":57476,
			"target":34962
		},
		{
			"buffer":0,
			"byteLength":952,
			"byteOffset":58904,
			"target":34962
		},
		{
			"buffer":0,
			"byteLength":852,
			"byteOffset":59856,
			"target":34963
		},
		{
			"buffer":0,
			"byteLength":8,
			"byteOffset":60708
		},
		{
			"buffer":0,
			"byteLength":24,
			"byteOffset":60716
		},
		{
			"buffer":0,
			"byteLength":484,
			"byteOffset":60740
		},
		{
			"buffer":0,
			"byteLength":1936,
			"byteOffset":61224
		},
		{
			"buffer":0,
			"byteLength":24,
			"byteOffset":63160
		}
	],
	"buffers":[
		{
			"byteLength":63184,
			"uri":"door.bin"
		}
	]
}
