# Blender 4.0.2
# www.blender.org
mtllib drip.mtl
o Cube.002
v 0.188905 1.695374 0.070546
v 0.188905 1.714638 0.070546
v 0.188905 1.695374 0.006611
v 0.188905 1.714638 0.006611
v 0.208169 1.695374 0.070546
v 0.208169 1.714638 0.070546
v 0.208169 1.695374 0.006611
v 0.208169 1.714638 0.006611
v 0.188905 1.695374 0.105723
v 0.188905 1.714638 0.105723
v 0.208169 1.714638 0.105723
v 0.208169 1.695374 0.105723
v 0.188905 1.695374 0.115354
v 0.188905 1.714638 0.115354
v 0.208169 1.714638 0.115354
v 0.208169 1.695374 0.115354
v 0.208169 1.727999 0.105723
v 0.188905 1.727999 0.105723
v 0.208169 1.727999 0.115354
v 0.188905 1.727999 0.115354
v -0.199963 -0.024991 0.199963
v -0.025008 0.024992 0.025008
v -0.199963 -0.024991 -0.199963
v -0.025008 0.024992 -0.025008
v 0.199963 -0.024991 0.199963
v 0.025008 0.024992 0.025008
v 0.199963 -0.024991 -0.199963
v 0.025008 0.024992 -0.025008
v -0.199963 0.024992 0.199963
v -0.199963 0.024992 -0.199963
v 0.199963 0.024992 -0.199963
v 0.199963 0.024992 0.199963
v -0.035367 0.024992 0.000000
v -0.000000 0.024992 -0.035367
v 0.035367 0.024992 0.000000
v -0.000000 0.024992 0.035367
v -0.035367 1.655167 0.000000
v -0.035367 1.823741 0.000000
v -0.025008 1.823741 -0.025008
v -0.000000 1.823741 -0.035367
v 0.025008 1.823741 -0.025008
v 0.035367 1.823741 0.000000
v 0.025008 1.823741 0.025008
v -0.000000 1.823741 0.035367
v -0.025008 1.823741 0.025008
v -0.000000 1.823741 0.000000
v -0.025008 1.655167 -0.025008
v -0.000000 1.655167 -0.035367
v 0.025008 1.655167 -0.025008
v 0.035367 1.655167 0.000000
v 0.025008 1.655167 0.025008
v -0.000000 1.655167 0.035367
v -0.025008 1.655167 0.025008
v -0.048537 1.693496 0.011671
v -0.048537 1.693496 -0.011671
v -0.020105 1.655167 -0.048537
v 0.020105 1.655167 -0.048537
v 0.048537 1.693450 -0.011717
v 0.048537 1.693450 0.011717
v 0.020105 1.655167 0.048537
v -0.020105 1.655167 0.048537
v -0.035367 1.755167 0.000000
v -0.025008 1.755167 -0.025008
v -0.000000 1.755167 -0.035367
v 0.025008 1.755167 -0.025008
v 0.035367 1.755167 0.000000
v 0.025008 1.755167 0.025008
v -0.000000 1.755167 0.035367
v -0.025008 1.755167 0.025008
v -0.048537 1.716838 0.011671
v -0.048537 1.716838 -0.011671
v -0.020105 1.755167 -0.048537
v 0.020105 1.755167 -0.048537
v 0.048537 1.716884 -0.011717
v 0.048537 1.716884 0.011717
v 0.020105 1.755167 0.048537
v -0.020105 1.755167 0.048537
v 0.048537 1.655167 -0.020105
v 0.048537 1.655167 0.020105
v 0.048537 1.755167 -0.020105
v 0.048537 1.755167 0.020105
v 0.048537 1.688596 0.000000
v 0.048537 1.721738 0.000000
v 0.048537 1.705167 -0.016571
v 0.048537 1.705167 0.016571
v 0.348537 1.688596 0.000000
v 0.348537 1.693450 0.011717
v 0.348537 1.721738 0.000000
v 0.348537 1.716884 0.011717
v 0.348537 1.705167 -0.016571
v 0.348537 1.716884 -0.011717
v 0.348537 1.705167 0.016571
v 0.348537 1.693450 -0.011717
v 0.348537 1.705167 0.000000
v -0.048537 1.655167 0.020105
v -0.048537 1.655167 -0.020105
v -0.048537 1.755167 0.020105
v -0.048537 1.755167 -0.020105
v -0.048537 1.688662 0.000000
v -0.048537 1.721672 0.000000
v -0.048537 1.705167 -0.016505
v -0.048537 1.705167 0.016505
v -0.348537 1.688662 0.000000
v -0.348537 1.693496 -0.011671
v -0.348537 1.721672 0.000000
v -0.348537 1.716838 -0.011671
v -0.348537 1.705167 -0.016505
v -0.348537 1.705167 0.016505
v -0.348537 1.693496 0.011671
v -0.348537 1.716838 0.011671
v -0.348537 1.705167 0.000000
v -0.208169 1.695535 0.070812
v -0.208169 1.714799 0.070812
v -0.208169 1.695535 0.006877
v -0.208169 1.714799 0.006877
v -0.188905 1.695535 0.070812
v -0.188905 1.714799 0.070812
v -0.188905 1.695535 0.006877
v -0.188905 1.714799 0.006877
v -0.208169 1.695535 0.105988
v -0.208169 1.714799 0.105988
v -0.188905 1.714799 0.105988
v -0.188905 1.695535 0.105988
v -0.208169 1.695535 0.115619
v -0.208169 1.714799 0.115619
v -0.188905 1.714799 0.115619
v -0.188905 1.695535 0.115619
v -0.188905 1.728160 0.105988
v -0.208169 1.728160 0.105988
v -0.188905 1.728160 0.115619
v -0.208169 1.728160 0.115619
vn -1.0000 -0.0000 -0.0000
vn -0.0000 -0.0000 -1.0000
vn 1.0000 -0.0000 -0.0000
vn -0.0000 -1.0000 -0.0000
vn -0.0000 1.0000 -0.0000
vn -0.0000 -0.0000 1.0000
vn 0.3827 -0.0000 0.9239
vn 0.9239 -0.0000 0.3827
vn -0.9239 -0.0000 0.3827
vn 0.9239 -0.0000 -0.3827
vn -0.9239 -0.0000 -0.3827
vn -0.3827 -0.0000 -0.9239
vn -0.3827 -0.0000 0.9239
vn 0.3827 -0.0000 -0.9239
vn -0.7071 -0.0000 0.7071
vn -0.7071 -0.0000 -0.7071
vn -0.0000 -0.9239 -0.3827
vn -0.0000 -0.9239 0.3827
vn 0.7071 -0.0000 -0.7071
vn 0.7071 -0.0000 0.7071
vn -0.0000 0.9239 -0.3827
vn -0.0000 -0.3827 -0.9239
vn -0.0000 -0.3827 0.9239
vn -0.0000 0.3827 -0.9239
vn -0.0000 0.3827 0.9239
vn -0.0000 0.9239 0.3827
vt 0.375000 0.000000
vt 0.625000 0.000000
vt 0.625000 0.250000
vt 0.375000 0.250000
vt 0.625000 0.500000
vt 0.375000 0.500000
vt 0.625000 0.750000
vt 0.375000 0.750000
vt 0.125000 0.750000
vt 0.125000 0.500000
vt 0.875000 0.500000
vt 0.875000 0.750000
vt 0.625000 1.000000
vt 0.375000 1.000000
vt 0.750000 0.643315
vt 0.731685 0.643315
vt 0.768315 0.643315
vt 0.768315 0.625000
vt 0.768315 0.606685
vt 0.750000 0.606685
vt 0.731685 0.606685
vt 0.731685 0.625000
vt 0.750000 0.625000
vt 0.000000 0.000000
s 1
f 1/1/1 2/2/1 4/3/1 3/4/1
f 3/4/2 4/3/2 8/5/2 7/6/2
f 7/6/3 8/5/3 6/7/3 5/8/3
f 1/9/4 5/8/4 12/8/4 9/9/4
f 3/10/4 7/6/4 5/8/4 1/9/4
f 8/5/5 4/11/5 2/12/5 6/7/5
f 11/7/2 10/12/2 18/12/2 17/7/2
f 6/7/5 2/12/5 10/12/5 11/7/5
f 5/8/3 6/7/3 11/7/3 12/8/3
f 2/2/1 1/1/1 9/1/1 10/2/1
f 16/8/6 15/7/6 14/13/6 13/14/6
f 12/8/3 11/7/3 15/7/3 16/8/3
f 9/9/4 12/8/4 16/8/4 13/9/4
f 10/2/1 9/1/1 13/1/1 14/2/1
f 17/7/5 18/12/5 20/12/5 19/7/5
f 10/2/1 14/2/1 20/2/1 18/2/1
f 15/7/3 11/7/3 17/7/3 19/7/3
f 14/13/6 15/7/6 19/7/6 20/13/6
f 21/1/1 29/2/1 30/3/1 23/4/1
f 23/4/2 30/3/2 31/5/2 27/6/2
f 27/6/3 31/5/3 32/7/3 25/8/3
f 25/8/6 32/7/6 29/13/6 21/14/6
f 23/10/4 27/6/4 25/8/4 21/9/4
f 36/15/7 26/16/7 43/16/7 44/15/7
f 22/17/5 33/18/5 24/19/5 30/11/5 29/12/5
f 24/19/5 34/20/5 28/21/5 31/5/5 30/11/5
f 28/21/5 35/22/5 26/16/5 32/7/5 31/5/5
f 26/16/5 36/15/5 22/17/5 29/12/5 32/7/5
f 26/16/8 35/22/8 42/22/8 43/16/8
f 33/18/9 22/17/9 45/17/9 38/18/9
f 35/22/10 28/21/10 41/21/10 42/22/10
f 46/23/5 38/18/5 45/17/5 44/15/5
f 42/22/5 46/23/5 44/15/5 43/16/5
f 41/21/5 40/20/5 46/23/5 42/22/5
f 40/20/5 39/19/5 38/18/5 46/23/5
f 24/19/11 33/18/11 38/18/11 39/19/11
f 34/20/12 24/19/12 39/19/12 40/20/12
f 22/17/13 36/15/13 44/15/13 45/17/13
f 28/21/14 34/20/14 40/20/14 41/21/14
f 47/24/5 96/24/5 95/24/5 37/24/5
f 52/24/5 60/24/5 79/24/5 51/24/5
f 48/24/5 56/24/5 96/24/5 47/24/5
f 53/24/5 61/24/5 60/24/5 52/24/5
f 49/24/5 57/24/5 56/24/5 48/24/5
f 50/24/5 78/24/5 57/24/5 49/24/5
f 37/24/5 95/24/5 61/24/5 53/24/5
f 51/24/5 79/24/5 78/24/5 50/24/5
f 63/24/4 62/24/4 97/24/4 98/24/4
f 68/24/4 67/24/4 81/24/4 76/24/4
f 64/24/4 63/24/4 98/24/4 72/24/4
f 69/24/4 68/24/4 76/24/4 77/24/4
f 65/24/4 64/24/4 72/24/4 73/24/4
f 66/24/4 65/24/4 73/24/4 80/24/4
f 62/24/4 69/24/4 77/24/4 97/24/4
f 67/24/4 66/24/4 80/24/4 81/24/4
f 57/24/15 78/24/15 80/24/15 73/24/15
f 52/24/7 51/24/7 67/24/7 68/24/7
f 47/24/11 37/24/11 62/24/11 63/24/11
f 79/24/16 60/24/16 76/24/16 81/24/16
f 100/24/17 70/24/17 110/24/17 105/24/17
f 49/24/14 48/24/14 64/24/14 65/24/14
f 56/24/6 57/24/6 73/24/6 72/24/6
f 51/24/8 50/24/8 66/24/8 67/24/8
f 83/24/18 74/24/18 91/24/18 88/24/18
f 53/24/13 52/24/13 68/24/13 69/24/13
f 60/24/2 61/24/2 77/24/2 76/24/2
f 37/24/9 53/24/9 69/24/9 62/24/9
f 61/24/19 95/24/19 97/24/19 77/24/19
f 48/24/12 47/24/12 63/24/12 64/24/12
f 96/24/20 56/24/20 72/24/20 98/24/20
f 50/24/10 49/24/10 65/24/10 66/24/10
f 59/24/1 82/24/1 58/24/1 78/24/1 79/24/1
f 74/24/1 83/24/1 75/24/1 81/24/1 80/24/1
f 58/24/1 84/24/1 74/24/1 80/24/1 78/24/1
f 75/24/1 85/24/1 59/24/1 79/24/1 81/24/1
f 82/24/21 59/24/21 87/24/21 86/24/21
f 85/24/22 75/24/22 89/24/22 92/24/22
f 74/24/23 84/24/23 90/24/23 91/24/23
f 94/24/1 92/24/1 89/24/1 88/24/1
f 90/24/1 94/24/1 88/24/1 91/24/1
f 93/24/1 86/24/1 94/24/1 90/24/1
f 86/24/1 87/24/1 92/24/1 94/24/1
f 59/24/24 85/24/24 92/24/24 87/24/24
f 75/24/17 83/24/17 88/24/17 89/24/17
f 84/24/25 58/24/25 93/24/25 90/24/25
f 58/24/26 82/24/26 86/24/26 93/24/26
f 55/24/3 99/24/3 54/24/3 95/24/3 96/24/3
f 70/24/3 100/24/3 71/24/3 98/24/3 97/24/3
f 71/24/3 101/24/3 55/24/3 96/24/3 98/24/3
f 54/24/3 102/24/3 70/24/3 97/24/3 95/24/3
f 99/24/26 55/24/26 104/24/26 103/24/26
f 70/24/22 102/24/22 108/24/22 110/24/22
f 101/24/23 71/24/23 106/24/23 107/24/23
f 111/24/3 107/24/3 106/24/3 105/24/3
f 108/24/3 111/24/3 105/24/3 110/24/3
f 109/24/3 103/24/3 111/24/3 108/24/3
f 103/24/3 104/24/3 107/24/3 111/24/3
f 102/24/24 54/24/24 109/24/24 108/24/24
f 71/24/18 100/24/18 105/24/18 106/24/18
f 55/24/25 101/24/25 107/24/25 104/24/25
f 54/24/21 99/24/21 103/24/21 109/24/21
f 112/1/1 113/2/1 115/3/1 114/4/1
f 114/4/2 115/3/2 119/5/2 118/6/2
f 118/6/3 119/5/3 117/7/3 116/8/3
f 112/9/4 116/8/4 123/8/4 120/9/4
f 114/10/4 118/6/4 116/8/4 112/9/4
f 119/5/5 115/11/5 113/12/5 117/7/5
f 122/7/2 121/12/2 129/12/2 128/7/2
f 117/7/5 113/12/5 121/12/5 122/7/5
f 116/8/3 117/7/3 122/7/3 123/8/3
f 113/2/1 112/1/1 120/1/1 121/2/1
f 127/8/6 126/7/6 125/13/6 124/14/6
f 123/8/3 122/7/3 126/7/3 127/8/3
f 120/9/4 123/8/4 127/8/4 124/9/4
f 121/2/1 120/1/1 124/1/1 125/2/1
f 128/7/5 129/12/5 131/12/5 130/7/5
f 121/2/1 125/2/1 131/2/1 129/2/1
f 126/7/3 122/7/3 128/7/3 130/7/3
f 125/13/6 126/7/6 130/7/6 131/13/6
o Cube.003
v 0.270930 1.346165 0.117717
v 0.270930 1.525718 0.117717
v 0.270930 1.346165 0.021194
v 0.270930 1.525718 0.021194
v 0.198537 1.316240 0.005106
v 0.198537 1.607761 0.005106
v 0.198537 1.316240 0.133804
v 0.198537 1.607761 0.133804
v 0.126145 1.346165 0.117717
v 0.126145 1.525718 0.117717
v 0.126145 1.346165 0.021194
v 0.126145 1.525718 0.021194
v 0.243745 1.607761 0.007862
v 0.276218 1.435942 0.010618
v 0.276218 1.326492 0.069455
v 0.276218 1.545391 0.069455
v 0.276218 1.435942 0.128293
v 0.243745 1.321366 0.131049
v 0.243745 1.321366 0.007862
v 0.243745 1.607761 0.131049
v 0.198537 1.435942 0.157935
v 0.198537 1.607761 0.069455
v 0.198537 1.435942 -0.019024
v 0.198537 1.271352 0.069455
v 0.153329 1.607761 0.007862
v 0.120857 1.435942 0.010618
v 0.120857 1.326492 0.069455
v 0.120857 1.545391 0.069455
v 0.120857 1.435942 0.128293
v 0.153329 1.321366 0.131049
v 0.153329 1.321366 0.007862
v 0.153329 1.607761 0.131049
v 0.244267 1.435942 -0.015301
v 0.287315 1.435942 0.069455
v 0.244267 1.278279 0.069455
v 0.244267 1.435942 0.154211
v 0.244267 1.607761 0.069455
v 0.152808 1.435942 -0.015301
v 0.109760 1.435942 0.069455
v 0.152808 1.278279 0.069455
v 0.152808 1.435942 0.154211
v 0.152808 1.607761 0.069455
v 0.175933 1.607761 0.006484
v 0.175933 1.318803 0.132426
v 0.175933 1.318803 0.006484
v 0.175933 1.607761 0.132426
v 0.175673 1.435942 -0.017162
v 0.175673 1.274816 0.069455
v 0.175673 1.435942 0.156073
v 0.175673 1.607761 0.069455
v 0.221141 1.607761 0.006484
v 0.221141 1.318803 0.132426
v 0.221141 1.318803 0.006484
v 0.221141 1.607761 0.132426
v 0.221402 1.435942 -0.017162
v 0.221402 1.274816 0.069455
v 0.221402 1.435942 0.156073
v 0.221402 1.607761 0.069455
v 0.206068 1.701309 0.048476
v 0.213599 1.701309 0.048935
v 0.191006 1.701309 0.048476
v 0.183476 1.701309 0.048935
v 0.213772 1.701309 0.069455
v 0.206155 1.701309 0.069455
v 0.213599 1.701309 0.089976
v 0.183476 1.701309 0.089976
v 0.183302 1.701309 0.069455
v 0.190920 1.701309 0.069455
v 0.191006 1.701309 0.090435
v 0.206068 1.701309 0.090435
v 0.185061 1.728383 0.042779
v 0.198537 1.737731 0.042779
v 0.212014 1.728383 0.042779
v 0.212170 1.728687 0.069455
v 0.198537 1.738152 0.069455
v 0.184905 1.728687 0.069455
v 0.212014 1.728383 0.096132
v 0.198537 1.737731 0.096132
v 0.185061 1.728383 0.096132
v 0.205252 1.715213 0.096729
v 0.198537 1.719520 0.096729
v 0.191822 1.715213 0.096729
v 0.205330 1.715364 0.069455
v 0.198537 1.719730 0.069455
v 0.191744 1.715364 0.069455
v 0.205252 1.715213 0.042182
v 0.198537 1.719520 0.042182
v 0.191822 1.715213 0.042182
v 0.166143 1.654535 0.091308
v 0.165770 1.654535 0.069455
v 0.182340 1.654535 0.047114
v 0.182153 1.654535 0.069455
v 0.166143 1.654535 0.047603
v 0.182340 1.654535 0.091797
v 0.214921 1.654535 0.069455
v 0.214734 1.654535 0.091797
v 0.214734 1.654535 0.047114
v 0.230931 1.654535 0.047603
v 0.231305 1.654535 0.069455
v 0.230931 1.654535 0.091308
vn 0.0807 -0.1974 -0.9770
vn 0.0808 -0.1976 -0.9769
vn 0.0704 0.1361 -0.9882
vn 0.0704 0.1348 -0.9884
vn 0.6273 -0.0146 -0.7786
vn 0.6521 0.1112 -0.7500
vn 0.6266 -0.0178 -0.7792
vn 0.5892 -0.1479 -0.7943
vn 0.9819 -0.0896 -0.1667
vn 0.9859 -0.0000 -0.1674
vn 1.0000 -0.0000 -0.0000
vn 0.9959 -0.0909 -0.0000
vn 0.9667 0.2104 -0.1459
vn 0.9716 0.2365 -0.0000
vn 0.9667 0.2104 0.1459
vn 0.9859 -0.0000 0.1674
vn 0.9819 -0.0896 0.1667
vn 0.1250 -0.8131 -0.5685
vn 0.1250 -0.8128 -0.5690
vn 0.7574 -0.5489 -0.3536
vn 0.7574 -0.5489 0.3536
vn 0.1250 -0.8131 0.5685
vn 0.1250 -0.8128 0.5690
vn 0.5892 -0.1479 0.7943
vn 0.6266 -0.0178 0.7792
vn 0.6273 -0.0146 0.7786
vn 0.6521 0.1112 0.7500
vn 0.0704 0.1361 0.9882
vn -0.0000 0.1378 0.9905
vn 0.0807 -0.1974 0.9770
vn -0.0000 -0.1978 0.9802
vn 0.9386 0.3355 -0.0799
vn 0.9479 0.3187 -0.0000
vn -0.0000 1.0000 -0.0000
vn 0.9386 0.3355 0.0799
vn -0.0807 -0.1974 -0.9770
vn -0.0808 -0.1976 -0.9769
vn -0.5892 -0.1479 -0.7943
vn -0.6266 -0.0178 -0.7792
vn -0.6273 -0.0146 -0.7786
vn -0.6521 0.1112 -0.7500
vn -0.0704 0.1361 -0.9882
vn -0.0704 0.1348 -0.9884
vn -0.9819 -0.0896 -0.1667
vn -0.9959 -0.0909 -0.0000
vn -1.0000 -0.0000 -0.0000
vn -0.9859 -0.0000 -0.1674
vn -0.9819 -0.0896 0.1667
vn -0.9859 -0.0000 0.1674
vn -0.9667 0.2104 0.1459
vn -0.9716 0.2365 -0.0000
vn -0.9667 0.2104 -0.1459
vn -0.1250 -0.8131 -0.5685
vn -0.1250 -0.8128 -0.5690
vn -0.1250 -0.8131 0.5685
vn -0.1250 -0.8128 0.5690
vn -0.7574 -0.5489 0.3536
vn -0.7574 -0.5489 -0.3536
vn -0.5892 -0.1479 0.7943
vn -0.6273 -0.0146 0.7786
vn -0.6266 -0.0178 0.7792
vn -0.0807 -0.1974 0.9770
vn -0.0704 0.1361 0.9882
vn -0.6521 0.1112 0.7500
vn -0.9479 0.3187 -0.0000
vn -0.9386 0.3355 -0.0799
vn -0.9386 0.3355 0.0799
vn 0.9870 -0.1608 -0.0000
vn 0.9879 -0.1551 0.0056
vn 0.9940 -0.1092 0.0047
vn 0.9928 -0.1197 -0.0000
vn -0.9879 -0.1551 0.0056
vn -0.9870 -0.1608 -0.0000
vn -0.9928 -0.1197 -0.0000
vn -0.9940 -0.1092 0.0047
vn -0.0704 0.1348 0.9884
vn -0.0808 -0.1976 0.9769
vn -0.0000 -0.8199 0.5726
vn -0.0000 -0.8199 -0.5726
vn -0.0000 0.1378 -0.9905
vn -0.0000 -0.1978 -0.9802
vn -0.9512 0.3086 -0.0000
vn -0.9541 0.2992 0.0110
vn -0.9833 0.1817 0.0094
vn -0.9805 0.1967 -0.0000
vn -0.9879 -0.1551 -0.0056
vn -0.9940 -0.1092 -0.0047
vn 0.0808 -0.1976 0.9769
vn 0.0704 0.1348 0.9884
vn 0.9940 -0.1092 -0.0047
vn 0.9983 -0.0578 -0.0000
vn 0.9983 -0.0578 -0.0036
vn -0.3073 -0.2601 0.9154
vn -0.9983 0.0576 0.0073
vn -0.9983 0.0576 -0.0000
vn -0.9833 0.1817 -0.0094
vn -0.9983 0.0576 -0.0073
vn 0.0399 0.0398 -0.9984
vn -0.0399 0.0398 -0.9984
vn 0.9541 0.2992 0.0110
vn 0.9512 0.3086 -0.0000
vn 0.9805 0.1967 -0.0000
vn 0.9833 0.1817 0.0094
vn 0.0399 0.0398 0.9984
vn 0.9879 -0.1551 -0.0056
vn -0.9541 0.2992 -0.0110
vn -0.0399 0.0398 0.9984
vn 0.9541 0.2992 -0.0110
vn 0.9833 0.1817 -0.0094
vn 0.9983 -0.0578 0.0036
vn -0.3073 -0.2601 -0.9154
vn -0.5701 0.8215 -0.0128
vn -0.5701 0.8215 -0.0000
vn 0.5701 0.8215 -0.0128
vn 0.5701 0.8215 -0.0000
vn 0.9983 0.0576 -0.0073
vn 0.9983 0.0576 -0.0000
vn -0.5701 0.8215 0.0128
vn 0.5701 0.8215 0.0128
vn 0.9983 0.0576 0.0073
vn -0.0224 0.0332 0.9992
vn -0.0000 0.0332 0.9994
vn 0.0224 0.0332 0.9992
vn 0.3073 -0.2601 0.9154
vn 0.5403 -0.8415 -0.0064
vn 0.5403 -0.8415 -0.0000
vn -0.5403 -0.8415 -0.0064
vn -0.5403 -0.8415 -0.0000
vn -0.9983 -0.0578 -0.0036
vn -0.9983 -0.0578 -0.0000
vn 0.5403 -0.8415 0.0064
vn -0.5403 -0.8415 0.0064
vn -0.9983 -0.0578 0.0036
vn -0.0224 0.0332 -0.9992
vn -0.0000 0.0332 -0.9994
vn 0.0224 0.0332 -0.9992
vn 0.3073 -0.2601 -0.9154
vn -0.0363 0.6555 0.7543
vn 0.9903 -0.1387 -0.0052
vn 0.9903 -0.1387 -0.0000
vn -0.0363 0.6555 -0.7543
vn 0.9903 -0.1387 0.0052
vn 0.0363 0.6555 0.7543
vn 0.0363 0.6555 -0.7543
vn -0.9903 -0.1387 -0.0000
vn -0.9903 -0.1387 -0.0052
vn -0.9903 -0.1387 0.0052
vt 0.375000 0.406250
vt 0.500000 0.407118
vt 0.500000 0.439236
vt 0.375000 0.437500
vt 0.625000 0.406250
vt 0.625000 0.437500
vt 0.625000 0.500000
vt 0.500000 0.517361
vt 0.375000 0.500000
vt 0.500000 0.625000
vt 0.392361 0.625000
vt 0.607639 0.625000
vt 0.625000 0.750000
vt 0.500000 0.732639
vt 0.375000 0.750000
vt 0.281250 0.500000
vt 0.312500 0.500000
vt 0.314236 0.625000
vt 0.282118 0.625000
vt 0.312500 0.750000
vt 0.281250 0.750000
vt 0.500000 0.810764
vt 0.375000 0.812500
vt 0.625000 0.812500
vt 0.500000 0.842882
vt 0.625000 0.843750
vt 0.625000 0.875000
vt 0.500000 0.875000
vt 0.375000 0.843750
vt 0.375000 0.875000
vt 0.687500 0.500000
vt 0.685764 0.625000
vt 0.718750 0.500000
vt 0.750000 0.500000
vt 0.750000 0.625000
vt 0.717882 0.625000
vt 0.750000 0.750000
vt 0.718750 0.750000
vt 0.687500 0.750000
vt 0.500000 0.517361
vt 0.392361 0.625000
vt 0.500000 0.732639
vt 0.607639 0.625000
vt 0.500000 0.810764
vt 0.685764 0.625000
vt 0.717882 0.625000
vt 0.250000 0.625000
vt 0.250000 0.750000
vt 0.250000 0.500000
vt 0.500000 0.375000
vt 0.625000 0.375000
vt 0.375000 0.375000
vt 0.717882 0.625000
vt 0.687500 0.750000
vt 0.685764 0.625000
vt 0.718750 0.500000
vt 0.687500 0.500000
vt 0.625000 0.812500
vt 0.625000 0.437500
vt 0.625000 0.406250
s 1
f 184/25/27 186/26/27 164/27/28 150/28/28
f 186/26/29 182/29/29 144/30/30 164/27/30
f 164/27/31 144/30/32 135/31/32 145/32/33
f 150/28/34 164/27/31 145/32/33 134/33/34
f 134/33/35 145/32/36 165/34/37 146/35/38
f 145/32/36 135/31/39 147/36/40 165/34/37
f 165/34/37 147/36/40 133/37/41 148/38/42
f 146/35/38 165/34/37 148/38/42 132/39/43
f 184/40/44 150/41/45 166/42/45 187/43/44
f 150/41/46 134/33/46 146/35/46 166/42/46
f 166/42/47 146/35/47 132/39/47 149/44/47
f 187/43/48 166/42/49 149/44/49 183/45/48
f 132/39/50 148/38/51 167/46/52 149/47/50
f 148/38/51 133/37/53 151/48/53 167/46/52
f 188/49/54 185/50/54 139/51/55 152/52/55
f 183/53/56 188/49/56 152/52/57 138/54/57
f 135/31/39 144/55/58 168/56/59 147/36/40
f 182/57/60 137/58/60 153/59/60 189/60/60
f 189/60/60 153/59/60 139/61/60 185/62/60
f 147/36/40 168/56/59 151/63/61 133/37/41
f 176/25/62 162/28/63 169/27/63 178/26/62
f 162/28/64 142/33/64 157/64/65 169/27/66
f 169/27/66 157/64/65 143/31/67 156/30/67
f 178/26/68 169/27/69 156/30/69 174/29/68
f 142/33/70 158/65/71 170/34/72 157/64/73
f 158/65/71 140/39/74 160/66/75 170/34/72
f 170/34/72 160/66/75 141/37/76 159/67/77
f 157/64/73 170/34/72 159/67/77 143/31/78
f 176/40/79 179/43/79 171/42/80 162/41/80
f 179/43/81 175/45/81 161/44/82 171/42/82
f 171/42/83 161/44/83 140/39/83 158/65/83
f 162/41/84 171/42/84 158/65/84 142/33/84
f 140/39/85 161/47/85 172/68/86 160/66/87
f 175/53/88 138/54/57 152/52/57 180/49/88
f 180/49/89 152/52/55 139/51/55 177/50/89
f 160/66/87 172/68/86 163/48/90 141/37/90
f 143/31/78 159/67/77 173/69/91 156/55/92
f 159/67/77 141/37/76 163/63/93 173/69/91
f 181/70/60 177/62/60 139/61/60 153/59/60
f 174/57/60 181/70/60 153/59/60 137/58/60
f 223/70/94 222/57/95 192/57/96 199/70/97
f 228/57/98 226/60/99 195/60/100 190/57/101
f 172/68/102 180/49/89 177/50/89 163/48/102
f 161/47/103 175/53/88 180/49/88 172/68/103
f 155/71/104 138/72/104 175/45/81 179/43/81
f 136/73/105 155/71/105 179/43/79 176/40/79
f 154/74/106 178/26/68 174/29/68 137/75/106
f 136/76/107 176/25/62 178/26/62 154/74/107
f 221/69/108 220/63/109 197/63/110 198/69/111
f 226/60/99 227/62/112 201/62/113 195/60/100
f 149/47/114 167/46/114 188/49/56 183/53/56
f 167/46/115 151/48/115 185/50/54 188/49/54
f 155/71/104 187/43/48 183/45/48 138/72/104
f 136/73/105 184/40/44 187/43/44 155/71/105
f 154/74/106 137/75/106 182/29/29 186/26/29
f 136/76/107 154/74/107 186/26/27 184/25/27
f 200/62/116 199/70/97 216/77/117 213/62/118
f 197/48/119 200/50/119 213/50/119 210/48/119
f 198/69/111 197/63/110 210/78/120 207/79/121
f 193/55/122 198/69/111 207/79/121 202/55/123
f 229/30/124 228/29/124 190/29/124 191/30/124
f 222/29/125 224/30/125 193/30/125 192/29/125
f 231/63/126 230/56/127 194/56/128 196/63/129
f 227/50/130 231/48/130 196/48/130 201/50/130
f 225/62/131 223/70/94 199/70/97 200/62/116
f 224/55/132 221/69/108 198/69/111 193/55/122
f 220/48/133 225/50/133 200/50/133 197/48/133
f 230/56/127 229/55/134 191/55/135 194/56/128
f 199/70/97 192/57/96 219/80/136 216/77/117
f 192/29/137 193/30/137 202/30/137 219/29/137
f 202/55/138 207/79/139 206/56/139 203/81/138
f 203/81/140 206/56/141 205/56/141 204/81/140
f 204/81/142 205/56/143 194/56/128 191/55/135
f 207/79/139 210/78/144 209/78/144 206/56/139
f 206/56/141 209/78/145 208/63/145 205/56/141
f 205/56/143 208/63/146 196/63/129 194/56/128
f 210/48/147 213/50/147 212/50/148 209/82/148
f 209/82/148 212/50/148 211/50/149 208/48/149
f 208/48/150 211/50/150 201/50/150 196/48/150
f 213/62/151 216/77/152 215/77/152 212/62/151
f 212/62/153 215/77/154 214/60/154 211/62/153
f 211/62/155 214/60/156 195/60/100 201/62/113
f 216/77/152 219/80/157 218/80/157 215/77/152
f 215/77/154 218/80/158 217/57/158 214/60/154
f 214/60/156 217/57/159 190/57/101 195/60/100
f 219/29/160 202/30/160 203/83/161 218/84/161
f 218/84/161 203/83/161 204/83/162 217/29/162
f 217/29/163 204/83/163 191/30/163 190/29/163
f 163/48/164 177/50/164 225/50/164 220/48/164
f 156/55/92 173/69/91 221/69/108 224/55/132
f 177/62/165 181/70/166 223/70/94 225/62/131
f 174/29/167 156/30/167 224/30/167 222/29/167
f 173/69/91 163/63/93 220/63/109 221/69/108
f 181/70/166 174/57/168 222/57/95 223/70/94
f 168/56/59 144/55/58 229/55/134 230/56/127
f 185/50/169 151/48/169 231/48/169 227/50/169
f 151/63/61 168/56/59 230/56/127 231/63/126
f 144/30/170 182/29/170 228/29/170 229/30/170
f 189/60/171 185/62/172 227/62/112 226/60/99
f 182/57/173 189/60/171 226/60/99 228/57/98
