# Blender 4.0.2
# www.blender.org
mtllib drip.mtl
o Cube.003
v 0.270930 1.346165 0.117717
v 0.270930 1.525718 0.117717
v 0.270930 1.346165 0.021194
v 0.270930 1.525718 0.021194
v 0.198537 1.316240 0.005106
v 0.198537 1.607761 0.005106
v 0.198537 1.316240 0.133804
v 0.198537 1.607761 0.133804
v 0.126145 1.346165 0.117717
v 0.126145 1.525718 0.117717
v 0.126145 1.346165 0.021194
v 0.126145 1.525718 0.021194
v 0.243745 1.607761 0.007862
v 0.276218 1.435942 0.010618
v 0.276218 1.326492 0.069455
v 0.276218 1.545391 0.069455
v 0.276218 1.435942 0.128293
v 0.243745 1.321366 0.131049
v 0.243745 1.321366 0.007862
v 0.243745 1.607761 0.131049
v 0.198537 1.435942 0.157935
v 0.198537 1.607761 0.069455
v 0.198537 1.435942 -0.019024
v 0.198537 1.271352 0.069455
v 0.153329 1.607761 0.007862
v 0.120857 1.435942 0.010618
v 0.120857 1.326492 0.069455
v 0.120857 1.545391 0.069455
v 0.120857 1.435942 0.128293
v 0.153329 1.321366 0.131049
v 0.153329 1.321366 0.007862
v 0.153329 1.607761 0.131049
v 0.244267 1.435942 -0.015301
v 0.287315 1.435942 0.069455
v 0.244267 1.278279 0.069455
v 0.244267 1.435942 0.154211
v 0.244267 1.607761 0.069455
v 0.152808 1.435942 -0.015301
v 0.109760 1.435942 0.069455
v 0.152808 1.278279 0.069455
v 0.152808 1.435942 0.154211
v 0.152808 1.607761 0.069455
v 0.175933 1.607761 0.006484
v 0.175933 1.318803 0.132426
v 0.175933 1.318803 0.006484
v 0.175933 1.607761 0.132426
v 0.175673 1.435942 -0.017162
v 0.175673 1.274816 0.069455
v 0.175673 1.435942 0.156073
v 0.175673 1.607761 0.069455
v 0.221141 1.607761 0.006484
v 0.221141 1.318803 0.132426
v 0.221141 1.318803 0.006484
v 0.221141 1.607761 0.132426
v 0.221402 1.435942 -0.017162
v 0.221402 1.274816 0.069455
v 0.221402 1.435942 0.156073
v 0.221402 1.607761 0.069455
v 0.206068 1.701309 0.048476
v 0.213599 1.701309 0.048935
v 0.191006 1.701309 0.048476
v 0.183476 1.701309 0.048935
v 0.213772 1.701309 0.069455
v 0.206155 1.701309 0.069455
v 0.213599 1.701309 0.089976
v 0.183476 1.701309 0.089976
v 0.183302 1.701309 0.069455
v 0.190920 1.701309 0.069455
v 0.191006 1.701309 0.090435
v 0.206068 1.701309 0.090435
v 0.185061 1.728383 0.042779
v 0.198537 1.737731 0.042779
v 0.212014 1.728383 0.042779
v 0.212170 1.728687 0.069455
v 0.198537 1.738152 0.069455
v 0.184905 1.728687 0.069455
v 0.212014 1.728383 0.096132
v 0.198537 1.737731 0.096132
v 0.185061 1.728383 0.096132
v 0.205252 1.715213 0.096729
v 0.198537 1.719520 0.096729
v 0.191822 1.715213 0.096729
v 0.205330 1.715364 0.069455
v 0.198537 1.719730 0.069455
v 0.191744 1.715364 0.069455
v 0.205252 1.715213 0.042182
v 0.198537 1.719520 0.042182
v 0.191822 1.715213 0.042182
v 0.166143 1.654535 0.091308
v 0.165770 1.654535 0.069455
v 0.182340 1.654535 0.047114
v 0.182153 1.654535 0.069455
v 0.166143 1.654535 0.047603
v 0.182340 1.654535 0.091797
v 0.214921 1.654535 0.069455
v 0.214734 1.654535 0.091797
v 0.214734 1.654535 0.047114
v 0.230931 1.654535 0.047603
v 0.231305 1.654535 0.069455
v 0.230931 1.654535 0.091308
vn 0.0807 -0.1974 -0.9770
vn 0.0767 -0.0311 -0.9966
vn 0.0767 -0.0321 -0.9965
vn 0.0808 -0.1976 -0.9769
vn 0.0704 0.1361 -0.9882
vn 0.0704 0.1348 -0.9884
vn 0.6268 -0.0167 -0.7790
vn 0.6521 0.1112 -0.7500
vn 0.6264 -0.0185 -0.7793
vn 0.5892 -0.1479 -0.7943
vn 0.9819 -0.0896 -0.1667
vn 0.9859 -0.0000 -0.1674
vn 1.0000 -0.0000 -0.0000
vn 0.9959 -0.0909 -0.0000
vn 0.9680 0.2034 -0.1472
vn 0.9646 0.2637 -0.0000
vn 0.9680 0.2034 0.1472
vn 0.9859 -0.0000 0.1674
vn 0.9819 -0.0896 0.1667
vn 0.1250 -0.8131 -0.5685
vn 0.1250 -0.8128 -0.5690
vn 0.7574 -0.5489 -0.3536
vn 0.7574 -0.5489 0.3536
vn 0.1250 -0.8131 0.5685
vn 0.1250 -0.8128 0.5690
vn 0.5892 -0.1479 0.7943
vn 0.6264 -0.0185 0.7793
vn 0.6268 -0.0167 0.7790
vn 0.6521 0.1112 0.7500
vn 0.0767 -0.0311 0.9966
vn 0.0704 0.1361 0.9882
vn -0.0000 0.1378 0.9905
vn -0.0000 -0.0301 0.9995
vn 0.0807 -0.1974 0.9770
vn -0.0000 -0.1978 0.9802
vn 0.9408 0.3306 -0.0746
vn 0.9474 0.3201 -0.0000
vn -0.0000 1.0000 -0.0000
vn 0.9408 0.3306 0.0746
vn -0.0807 -0.1974 -0.9770
vn -0.0808 -0.1976 -0.9769
vn -0.0767 -0.0321 -0.9965
vn -0.0767 -0.0311 -0.9966
vn -0.5892 -0.1479 -0.7943
vn -0.6264 -0.0185 -0.7793
vn -0.6268 -0.0167 -0.7790
vn -0.6521 0.1112 -0.7500
vn -0.0704 0.1348 -0.9884
vn -0.0704 0.1361 -0.9882
vn -0.9819 -0.0896 -0.1667
vn -0.9959 -0.0909 -0.0000
vn -1.0000 -0.0000 -0.0000
vn -0.9859 -0.0000 -0.1674
vn -0.9819 -0.0896 0.1667
vn -0.9859 -0.0000 0.1674
vn -0.9680 0.2034 0.1472
vn -0.9646 0.2637 -0.0000
vn -0.9680 0.2034 -0.1472
vn -0.1250 -0.8131 -0.5685
vn -0.1250 -0.8128 -0.5690
vn -0.1250 -0.8131 0.5685
vn -0.1250 -0.8128 0.5690
vn -0.7574 -0.5489 0.3536
vn -0.7574 -0.5489 -0.3536
vn -0.5892 -0.1479 0.7943
vn -0.6268 -0.0167 0.7790
vn -0.6264 -0.0185 0.7793
vn -0.0807 -0.1974 0.9770
vn -0.0767 -0.0311 0.9966
vn -0.0704 0.1361 0.9882
vn -0.6521 0.1112 0.7500
vn -0.9474 0.3201 -0.0000
vn -0.9408 0.3306 -0.0746
vn -0.9408 0.3306 0.0746
vn 0.9870 -0.1610 -0.0000
vn 0.9876 -0.1567 0.0056
vn 0.9935 -0.1138 0.0048
vn 0.9927 -0.1208 -0.0000
vn -0.9876 -0.1567 0.0056
vn -0.9870 -0.1610 -0.0000
vn -0.9927 -0.1208 -0.0000
vn -0.9935 -0.1138 0.0048
vn -0.0767 -0.0321 0.9965
vn -0.0704 0.1348 0.9884
vn -0.0808 -0.1976 0.9769
vn -0.0000 -0.8199 0.5726
vn -0.0000 -0.8199 -0.5726
vn -0.0000 -0.0301 -0.9995
vn -0.0000 0.1378 -0.9905
vn -0.0000 -0.1978 -0.9802
vn -0.9508 0.3097 -0.0000
vn -0.9531 0.3024 0.0111
vn -0.9803 0.1971 0.0097
vn -0.9786 0.2060 -0.0000
vn -0.9876 -0.1567 -0.0056
vn -0.9935 -0.1138 -0.0048
vn 0.0808 -0.1976 0.9769
vn 0.0767 -0.0321 0.9965
vn 0.0704 0.1348 0.9884
vn 0.9935 -0.1138 -0.0048
vn 0.9983 -0.0578 -0.0000
vn 0.9983 -0.0578 -0.0036
vn -0.1605 -0.0936 0.9826
vn -0.1890 -0.1256 0.9739
vn -0.2044 -0.1530 0.9669
vn -0.0975 -0.0431 0.9943
vn -0.9983 0.0576 0.0073
vn -0.9983 0.0576 -0.0000
vn -0.9803 0.1971 -0.0097
vn -0.9983 0.0576 -0.0073
vn 0.0399 0.0398 -0.9984
vn 0.1890 -0.1256 -0.9739
vn 0.1604 -0.0936 -0.9826
vn -0.0399 0.0398 -0.9984
vn -0.1604 -0.0936 -0.9826
vn -0.1890 -0.1256 -0.9739
vn 0.9531 0.3024 0.0111
vn 0.9508 0.3097 -0.0000
vn 0.9786 0.2060 -0.0000
vn 0.9803 0.1971 0.0097
vn 0.0399 0.0398 0.9984
vn 0.1604 -0.0936 0.9826
vn 0.1890 -0.1256 0.9739
vn 0.9876 -0.1567 -0.0056
vn -0.9531 0.3024 -0.0111
vn -0.0399 0.0398 0.9984
vn 0.9531 0.3024 -0.0111
vn 0.9803 0.1971 -0.0097
vn 0.9983 -0.0578 0.0036
vn -0.0975 -0.0431 -0.9943
vn -0.2044 -0.1530 -0.9669
vn -0.5701 0.8215 -0.0128
vn -0.5701 0.8215 -0.0000
vn 0.5701 0.8215 -0.0128
vn 0.5701 0.8215 -0.0000
vn 0.9983 0.0576 -0.0073
vn 0.9983 0.0576 -0.0000
vn -0.5701 0.8215 0.0128
vn 0.5701 0.8215 0.0128
vn 0.9983 0.0576 0.0073
vn -0.0000 0.0332 0.9994
vn 0.2044 -0.1530 0.9669
vn 0.0975 -0.0431 0.9943
vn 0.5403 -0.8415 -0.0064
vn 0.5403 -0.8415 -0.0000
vn -0.5403 -0.8415 -0.0064
vn -0.5403 -0.8415 -0.0000
vn -0.9983 -0.0578 -0.0036
vn -0.9983 -0.0578 -0.0000
vn 0.5403 -0.8415 0.0064
vn -0.5403 -0.8415 0.0064
vn -0.9983 -0.0578 0.0036
vn -0.0000 0.0332 -0.9994
vn 0.0975 -0.0431 -0.9943
vn 0.2044 -0.1530 -0.9669
vn -0.0363 0.6555 0.7543
vn 0.9903 -0.1387 -0.0052
vn 0.9903 -0.1387 -0.0000
vn -0.0363 0.6555 -0.7543
vn 0.9903 -0.1387 0.0052
vn 0.0363 0.6555 0.7543
vn 0.0363 0.6555 -0.7543
vn -0.9903 -0.1387 -0.0000
vn -0.9903 -0.1387 -0.0052
vn -0.9903 -0.1387 0.0052
vt 0.375000 0.406250
vt 0.500000 0.407118
vt 0.500000 0.439236
vt 0.375000 0.437500
vt 0.625000 0.406250
vt 0.625000 0.437500
vt 0.625000 0.500000
vt 0.500000 0.517361
vt 0.375000 0.500000
vt 0.500000 0.625000
vt 0.392361 0.625000
vt 0.607639 0.625000
vt 0.625000 0.750000
vt 0.500000 0.732639
vt 0.375000 0.750000
vt 0.281250 0.500000
vt 0.312500 0.500000
vt 0.314236 0.625000
vt 0.282118 0.625000
vt 0.312500 0.750000
vt 0.281250 0.750000
vt 0.500000 0.810764
vt 0.375000 0.812500
vt 0.625000 0.812500
vt 0.500000 0.842882
vt 0.625000 0.843750
vt 0.625000 0.875000
vt 0.500000 0.875000
vt 0.375000 0.843750
vt 0.375000 0.875000
vt 0.687500 0.500000
vt 0.685764 0.625000
vt 0.718750 0.500000
vt 0.750000 0.500000
vt 0.750000 0.625000
vt 0.717882 0.625000
vt 0.750000 0.750000
vt 0.718750 0.750000
vt 0.687500 0.750000
vt 0.500000 0.517361
vt 0.392361 0.625000
vt 0.500000 0.732639
vt 0.607639 0.625000
vt 0.500000 0.810764
vt 0.685764 0.625000
vt 0.717882 0.625000
vt 0.250000 0.625000
vt 0.250000 0.750000
vt 0.250000 0.500000
vt 0.500000 0.375000
vt 0.625000 0.375000
vt 0.375000 0.375000
vt 0.717882 0.625000
vt 0.687500 0.750000
vt 0.685764 0.625000
vt 0.718750 0.500000
vt 0.687500 0.500000
vt 0.625000 0.812500
vt 0.625000 0.437500
vt 0.625000 0.406250
s 1
f 53/1/1 55/2/2 33/3/3 19/4/4
f 55/2/2 51/5/5 13/6/6 33/3/3
f 33/3/7 13/6/8 4/7/8 14/8/9
f 19/4/10 33/3/7 14/8/9 3/9/10
f 3/9/11 14/8/12 34/10/13 15/11/14
f 14/8/12 4/7/15 16/12/16 34/10/13
f 34/10/13 16/12/16 2/13/17 17/14/18
f 15/11/14 34/10/13 17/14/18 1/15/19
f 53/16/20 19/17/21 35/18/21 56/19/20
f 19/17/22 3/9/22 15/11/22 35/18/22
f 35/18/23 15/11/23 1/15/23 18/20/23
f 56/19/24 35/18/25 18/20/25 52/21/24
f 1/15/26 17/14/27 36/22/28 18/23/26
f 17/14/27 2/13/29 20/24/29 36/22/28
f 57/25/30 54/26/31 8/27/32 21/28/33
f 52/29/34 57/25/30 21/28/33 7/30/35
f 4/7/15 13/31/36 37/32/37 16/12/16
f 51/33/38 6/34/38 22/35/38 58/36/38
f 58/36/38 22/35/38 8/37/38 54/38/38
f 16/12/16 37/32/37 20/39/39 2/13/17
f 45/1/40 31/4/41 38/3/42 47/2/43
f 31/4/44 11/9/44 26/40/45 38/3/46
f 38/3/46 26/40/45 12/7/47 25/6/47
f 47/2/43 38/3/42 25/6/48 43/5/49
f 11/9/50 27/41/51 39/10/52 26/40/53
f 27/41/51 9/15/54 29/42/55 39/10/52
f 39/10/52 29/42/55 10/13/56 28/43/57
f 26/40/53 39/10/52 28/43/57 12/7/58
f 45/16/59 48/19/59 40/18/60 31/17/60
f 48/19/61 44/21/61 30/20/62 40/18/62
f 40/18/63 30/20/63 9/15/63 27/41/63
f 31/17/64 40/18/64 27/41/64 11/9/64
f 9/15/65 30/23/65 41/44/66 29/42/67
f 44/29/68 7/30/35 21/28/33 49/25/69
f 49/25/69 21/28/33 8/27/32 46/26/70
f 29/42/67 41/44/66 32/24/71 10/13/71
f 12/7/58 28/43/57 42/45/72 25/31/73
f 28/43/57 10/13/56 32/39/74 42/45/72
f 50/46/38 46/38/38 8/37/38 22/35/38
f 43/33/38 50/46/38 22/35/38 6/34/38
f 92/46/75 91/33/76 61/33/77 68/46/78
f 97/33/79 95/36/80 64/36/81 59/33/82
f 41/44/83 49/25/69 46/26/70 32/24/84
f 30/23/85 44/29/68 49/25/69 41/44/83
f 24/47/86 7/48/86 44/21/61 48/19/61
f 5/49/87 24/47/87 48/19/59 45/16/59
f 23/50/88 47/2/43 43/5/49 6/51/89
f 5/52/90 45/1/40 47/2/43 23/50/88
f 90/45/91 89/39/92 66/39/93 67/45/94
f 95/36/80 96/38/95 70/38/96 64/36/81
f 18/23/97 36/22/98 57/25/30 52/29/34
f 36/22/98 20/24/99 54/26/31 57/25/30
f 24/47/86 56/19/24 52/21/24 7/48/86
f 5/49/87 53/16/20 56/19/20 24/47/87
f 23/50/88 6/51/89 51/5/5 55/2/2
f 5/52/90 23/50/88 55/2/2 53/1/1
f 69/38/100 68/46/78 85/53/101 82/38/102
f 66/24/103 69/26/104 82/26/105 79/24/106
f 67/45/94 66/39/93 79/54/107 76/55/108
f 62/31/109 67/45/94 76/55/108 71/31/110
f 98/6/111 97/5/111 59/5/112 60/6/113
f 91/5/114 93/6/114 62/6/115 61/5/116
f 100/39/117 99/32/118 63/32/119 65/39/120
f 96/26/121 100/24/121 65/24/122 70/26/123
f 94/38/124 92/46/75 68/46/78 69/38/100
f 93/31/125 90/45/91 67/45/94 62/31/109
f 89/24/126 94/26/126 69/26/104 66/24/103
f 99/32/118 98/31/127 60/31/128 63/32/119
f 68/46/78 61/33/77 88/56/129 85/53/101
f 61/5/116 62/6/115 71/6/130 88/5/131
f 71/31/132 76/55/133 75/32/133 72/57/132
f 72/57/134 75/32/135 74/32/135 73/57/134
f 73/57/136 74/32/137 63/32/119 60/31/128
f 76/55/133 79/54/138 78/54/138 75/32/133
f 75/32/135 78/54/139 77/39/139 74/32/135
f 74/32/137 77/39/140 65/39/120 63/32/119
f 79/24/106 82/26/105 81/26/141 78/58/141
f 78/58/141 81/26/141 80/26/142 77/24/143
f 77/24/143 80/26/142 70/26/123 65/24/122
f 82/38/144 85/53/145 84/53/145 81/38/144
f 81/38/146 84/53/147 83/36/147 80/38/146
f 80/38/148 83/36/149 64/36/81 70/38/96
f 85/53/145 88/56/150 87/56/150 84/53/145
f 84/53/147 87/56/151 86/33/151 83/36/147
f 83/36/149 86/33/152 59/33/82 64/36/81
f 88/5/131 71/6/130 72/59/153 87/60/153
f 87/60/153 72/59/153 73/59/154 86/5/155
f 86/5/155 73/59/154 60/6/113 59/5/112
f 32/24/156 46/26/156 94/26/156 89/24/156
f 25/31/73 42/45/72 90/45/91 93/31/125
f 46/38/157 50/46/158 92/46/75 94/38/124
f 43/5/159 25/6/159 93/6/159 91/5/159
f 42/45/72 32/39/74 89/39/92 90/45/91
f 50/46/158 43/33/160 91/33/76 92/46/75
f 37/32/37 13/31/36 98/31/127 99/32/118
f 54/26/161 20/24/161 100/24/161 96/26/161
f 20/39/39 37/32/37 99/32/118 100/39/117
f 13/6/162 51/5/162 97/5/162 98/6/162
f 58/36/163 54/38/164 96/38/95 95/36/80
f 51/33/165 58/36/163 95/36/80 97/33/79
o Cube.001
v 0.188905 1.695374 0.070546
v 0.188905 1.714638 0.070546
v 0.188905 1.695374 0.006611
v 0.188905 1.714638 0.006611
v 0.208169 1.695374 0.070546
v 0.208169 1.714638 0.070546
v 0.208169 1.695374 0.006611
v 0.208169 1.714638 0.006611
v 0.188905 1.695374 0.105723
v 0.188905 1.714638 0.105723
v 0.208169 1.714638 0.105723
v 0.208169 1.695374 0.105723
v 0.188905 1.695374 0.115354
v 0.188905 1.714638 0.115354
v 0.208169 1.714638 0.115354
v 0.208169 1.695374 0.115354
v 0.208169 1.727999 0.105723
v 0.188905 1.727999 0.105723
v 0.208169 1.727999 0.115354
v 0.188905 1.727999 0.115354
v -0.199963 -0.024991 0.199963
v -0.025008 0.024992 0.025008
v -0.199963 -0.024991 -0.199963
v -0.025008 0.024992 -0.025008
v 0.199963 -0.024991 0.199963
v 0.025008 0.024992 0.025008
v 0.199963 -0.024991 -0.199963
v 0.025008 0.024992 -0.025008
v -0.199963 0.024992 0.199963
v -0.199963 0.024992 -0.199963
v 0.199963 0.024992 -0.199963
v 0.199963 0.024992 0.199963
v -0.035367 0.024992 0.000000
v -0.000000 0.024992 -0.035367
v 0.035367 0.024992 0.000000
v -0.000000 0.024992 0.035367
v -0.035367 1.823741 0.000000
v -0.025008 1.823741 -0.025008
v -0.000000 1.823741 -0.035367
v 0.025008 1.823741 -0.025008
v 0.035367 1.823741 0.000000
v 0.025008 1.823741 0.025008
v -0.000000 1.823741 0.035367
v -0.025008 1.823741 0.025008
v -0.000000 1.823741 0.000000
v -0.208169 1.695535 0.070812
v -0.208169 1.714799 0.070812
v -0.208169 1.695535 0.006877
v -0.208169 1.714799 0.006877
v -0.188905 1.695535 0.070812
v -0.188905 1.714799 0.070812
v -0.188905 1.695535 0.006877
v -0.188905 1.714799 0.006877
v -0.208169 1.695535 0.105988
v -0.208169 1.714799 0.105988
v -0.188905 1.714799 0.105988
v -0.188905 1.695535 0.105988
v -0.208169 1.695535 0.115619
v -0.208169 1.714799 0.115619
v -0.188905 1.714799 0.115619
v -0.188905 1.695535 0.115619
v -0.188905 1.728160 0.105988
v -0.208169 1.728160 0.105988
v -0.188905 1.728160 0.115619
v -0.208169 1.728160 0.115619
v -0.035367 1.655167 0.000000
v -0.025008 1.655167 -0.025008
v -0.000000 1.655167 -0.035367
v 0.025008 1.655167 -0.025008
v 0.035367 1.655167 0.000000
v 0.025008 1.655167 0.025008
v -0.000000 1.655167 0.035367
v -0.025008 1.655167 0.025008
v -0.048537 1.693496 0.011671
v -0.048537 1.693496 -0.011671
v -0.020105 1.655167 -0.048537
v 0.020105 1.655167 -0.048537
v 0.048537 1.693450 -0.011717
v 0.048537 1.693450 0.011717
v 0.020105 1.655167 0.048537
v -0.020105 1.655167 0.048537
v -0.035367 1.755167 0.000000
v -0.025008 1.755167 -0.025008
v -0.000000 1.755167 -0.035367
v 0.025008 1.755167 -0.025008
v 0.035367 1.755167 0.000000
v 0.025008 1.755167 0.025008
v -0.000000 1.755167 0.035367
v -0.025008 1.755167 0.025008
v -0.048537 1.716838 0.011671
v -0.048537 1.716838 -0.011671
v -0.020105 1.755167 -0.048537
v 0.020105 1.755167 -0.048537
v 0.048537 1.716884 -0.011717
v 0.048537 1.716884 0.011717
v 0.020105 1.755167 0.048537
v -0.020105 1.755167 0.048537
v 0.048537 1.655167 -0.020105
v 0.048537 1.655167 0.020105
v 0.048537 1.755167 -0.020105
v 0.048537 1.755167 0.020105
v 0.048537 1.688596 0.000000
v 0.048537 1.721738 0.000000
v 0.048537 1.705167 -0.016571
v 0.048537 1.705167 0.016571
v 0.348537 1.688596 0.000000
v 0.348537 1.693450 0.011717
v 0.348537 1.721738 0.000000
v 0.348537 1.716884 0.011717
v 0.348537 1.705167 -0.016571
v 0.348537 1.716884 -0.011717
v 0.348537 1.705167 0.016571
v 0.348537 1.693450 -0.011717
v -0.048537 1.655167 0.020105
v -0.048537 1.655167 -0.020105
v -0.048537 1.755167 0.020105
v -0.048537 1.755167 -0.020105
v -0.048537 1.688662 0.000000
v -0.048537 1.721672 0.000000
v -0.048537 1.705167 -0.016505
v -0.048537 1.705167 0.016505
v -0.348537 1.688662 0.000000
v -0.348537 1.693496 -0.011671
v -0.348537 1.721672 0.000000
v -0.348537 1.716838 -0.011671
v -0.348537 1.705167 -0.016505
v -0.348537 1.705167 0.016505
v -0.348537 1.693496 0.011671
v -0.348537 1.716838 0.011671
vn -1.0000 -0.0000 -0.0000
vn -0.0000 -0.0000 -1.0000
vn 1.0000 -0.0000 -0.0000
vn -0.0000 -1.0000 -0.0000
vn -0.0000 1.0000 -0.0000
vn -0.0000 -0.0000 1.0000
vn 0.3827 -0.0000 0.9239
vn 0.9239 -0.0000 0.3827
vn -0.9239 -0.0000 0.3827
vn 0.9239 -0.0000 -0.3827
vn -0.9239 -0.0000 -0.3827
vn -0.3827 -0.0000 -0.9239
vn -0.3827 -0.0000 0.9239
vn 0.3827 -0.0000 -0.9239
vn 0.7071 -0.0000 -0.7071
vn 0.7071 -0.0000 0.7071
vn -0.0000 0.9239 0.3827
vn -0.0000 0.9239 -0.3827
vn -0.7071 -0.0000 0.7071
vn -0.7071 -0.0000 -0.7071
vn -0.0000 -0.9239 0.3827
vn -0.0000 0.3827 0.9239
vn -0.0000 0.3827 -0.9239
vn -0.0000 -0.3827 0.9239
vn -0.0000 -0.3827 -0.9239
vn -0.0000 -0.9239 -0.3827
vt 0.375000 0.000000
vt 0.625000 0.000000
vt 0.625000 0.250000
vt 0.375000 0.250000
vt 0.625000 0.500000
vt 0.375000 0.500000
vt 0.625000 0.750000
vt 0.375000 0.750000
vt 0.125000 0.750000
vt 0.125000 0.500000
vt 0.875000 0.500000
vt 0.875000 0.750000
vt 0.625000 1.000000
vt 0.375000 1.000000
vt 0.750000 0.643315
vt 0.731685 0.643315
vt 0.768315 0.643315
vt 0.768315 0.625000
vt 0.768315 0.606685
vt 0.750000 0.606685
vt 0.731685 0.606685
vt 0.731685 0.625000
vt 0.750000 0.625000
vt 0.000000 0.000000
s 1
f 101/61/166 102/62/166 104/63/166 103/64/166
f 103/64/167 104/63/167 108/65/167 107/66/167
f 107/66/168 108/65/168 106/67/168 105/68/168
f 101/69/169 105/68/169 112/68/169 109/69/169
f 103/70/169 107/66/169 105/68/169 101/69/169
f 108/65/170 104/71/170 102/72/170 106/67/170
f 111/67/167 110/72/167 118/72/167 117/67/167
f 106/67/170 102/72/170 110/72/170 111/67/170
f 105/68/168 106/67/168 111/67/168 112/68/168
f 102/62/166 101/61/166 109/61/166 110/62/166
f 116/68/171 115/67/171 114/73/171 113/74/171
f 112/68/168 111/67/168 115/67/168 116/68/168
f 109/69/169 112/68/169 116/68/169 113/69/169
f 110/62/166 109/61/166 113/61/166 114/62/166
f 117/67/170 118/72/170 120/72/170 119/67/170
f 110/62/166 114/62/166 120/62/166 118/62/166
f 115/67/168 111/67/168 117/67/168 119/67/168
f 114/73/171 115/67/171 119/67/171 120/73/171
f 121/61/166 129/62/166 130/63/166 123/64/166
f 123/64/167 130/63/167 131/65/167 127/66/167
f 127/66/168 131/65/168 132/67/168 125/68/168
f 125/68/171 132/67/171 129/73/171 121/74/171
f 123/70/169 127/66/169 125/68/169 121/69/169
f 136/75/172 126/76/172 142/76/172 143/75/172
f 122/77/170 133/78/170 124/79/170 130/71/170 129/72/170
f 124/79/170 134/80/170 128/81/170 131/65/170 130/71/170
f 128/81/170 135/82/170 126/76/170 132/67/170 131/65/170
f 126/76/170 136/75/170 122/77/170 129/72/170 132/67/170
f 126/76/173 135/82/173 141/82/173 142/76/173
f 133/78/174 122/77/174 144/77/174 137/78/174
f 135/82/175 128/81/175 140/81/175 141/82/175
f 145/83/170 137/78/170 144/77/170 143/75/170
f 141/82/170 145/83/170 143/75/170 142/76/170
f 140/81/170 139/80/170 145/83/170 141/82/170
f 139/80/170 138/79/170 137/78/170 145/83/170
f 124/79/176 133/78/176 137/78/176 138/79/176
f 134/80/177 124/79/177 138/79/177 139/80/177
f 122/77/178 136/75/178 143/75/178 144/77/178
f 128/81/179 134/80/179 139/80/179 140/81/179
f 146/61/166 147/62/166 149/63/166 148/64/166
f 148/64/167 149/63/167 153/65/167 152/66/167
f 152/66/168 153/65/168 151/67/168 150/68/168
f 146/69/169 150/68/169 157/68/169 154/69/169
f 148/70/169 152/66/169 150/68/169 146/69/169
f 153/65/170 149/71/170 147/72/170 151/67/170
f 156/67/167 155/72/167 163/72/167 162/67/167
f 151/67/170 147/72/170 155/72/170 156/67/170
f 150/68/168 151/67/168 156/67/168 157/68/168
f 147/62/166 146/61/166 154/61/166 155/62/166
f 161/68/171 160/67/171 159/73/171 158/74/171
f 157/68/168 156/67/168 160/67/168 161/68/168
f 154/69/169 157/68/169 161/68/169 158/69/169
f 155/62/166 154/61/166 158/61/166 159/62/166
f 162/67/170 163/72/170 165/72/170 164/67/170
f 155/62/166 159/62/166 165/62/166 163/62/166
f 160/67/168 156/67/168 162/67/168 164/67/168
f 159/73/171 160/67/171 164/67/171 165/73/171
f 167/84/169 166/84/169 214/84/169 215/84/169
f 172/84/169 171/84/169 199/84/169 180/84/169
f 168/84/169 167/84/169 215/84/169 176/84/169
f 173/84/169 172/84/169 180/84/169 181/84/169
f 169/84/169 168/84/169 176/84/169 177/84/169
f 170/84/169 169/84/169 177/84/169 198/84/169
f 166/84/169 173/84/169 181/84/169 214/84/169
f 171/84/169 170/84/169 198/84/169 199/84/169
f 183/84/170 217/84/170 216/84/170 182/84/170
f 188/84/170 196/84/170 201/84/170 187/84/170
f 184/84/170 192/84/170 217/84/170 183/84/170
f 189/84/170 197/84/170 196/84/170 188/84/170
f 185/84/170 193/84/170 192/84/170 184/84/170
f 186/84/170 200/84/170 193/84/170 185/84/170
f 182/84/170 216/84/170 197/84/170 189/84/170
f 187/84/170 201/84/170 200/84/170 186/84/170
f 177/84/180 193/84/180 200/84/180 198/84/180
f 172/84/177 188/84/177 187/84/177 171/84/177
f 167/84/173 183/84/173 182/84/173 166/84/173
f 199/84/181 201/84/181 196/84/181 180/84/181
f 219/84/182 224/84/182 229/84/182 190/84/182
f 169/84/178 185/84/178 184/84/178 168/84/178
f 176/84/167 192/84/167 193/84/167 177/84/167
f 171/84/176 187/84/176 186/84/176 170/84/176
f 203/84/183 208/84/183 211/84/183 194/84/183
f 173/84/179 189/84/179 188/84/179 172/84/179
f 180/84/171 196/84/171 197/84/171 181/84/171
f 166/84/175 182/84/175 189/84/175 173/84/175
f 181/84/184 197/84/184 216/84/184 214/84/184
f 168/84/172 184/84/172 183/84/172 167/84/172
f 215/84/185 217/84/185 192/84/185 176/84/185
f 170/84/174 186/84/174 185/84/174 169/84/174
f 179/84/168 199/84/168 198/84/168 178/84/168 202/84/168
f 194/84/168 200/84/168 201/84/168 195/84/168 203/84/168
f 178/84/168 198/84/168 200/84/168 194/84/168 204/84/168
f 195/84/168 201/84/168 199/84/168 179/84/168 205/84/168
f 202/84/186 206/84/186 207/84/186 179/84/186
f 205/84/187 212/84/187 209/84/187 195/84/187
f 194/84/188 211/84/188 210/84/188 204/84/188
f 207/84/168 206/84/168 213/84/168 210/84/168 211/84/168 208/84/168 209/84/168 212/84/168
s 0
f 202/84/168 178/84/168 204/84/168 194/84/168 203/84/168 195/84/168 205/84/168 179/84/168
s 1
f 179/84/189 207/84/189 212/84/189 205/84/189
f 195/84/182 209/84/182 208/84/182 203/84/182
f 204/84/190 210/84/190 213/84/190 178/84/190
f 178/84/191 213/84/191 206/84/191 202/84/191
f 175/84/166 215/84/166 214/84/166 174/84/166 218/84/166
f 190/84/166 216/84/166 217/84/166 191/84/166 219/84/166
f 191/84/166 217/84/166 215/84/166 175/84/166 220/84/166
f 174/84/166 214/84/166 216/84/166 190/84/166 221/84/166
f 218/84/191 222/84/191 223/84/191 175/84/191
f 190/84/187 229/84/187 227/84/187 221/84/187
f 220/84/188 226/84/188 225/84/188 191/84/188
f 223/84/166 222/84/166 228/84/166 227/84/166 229/84/166 224/84/166 225/84/166 226/84/166
s 0
f 218/84/168 175/84/168 220/84/168 191/84/168 219/84/168 190/84/168 221/84/168 174/84/168
s 1
f 221/84/189 227/84/189 228/84/189 174/84/189
f 191/84/183 225/84/183 224/84/183 219/84/183
f 175/84/190 223/84/190 226/84/190 220/84/190
f 174/84/186 228/84/186 222/84/186 218/84/186
