{
	"asset":{
		"generator":"Khronos glTF Blender I/O v4.0.44",
		"version":"2.0"
	},
	"scene":0,
	"scenes":[
		{
			"name":"Scene",
			"nodes":[
				0,
				1,
				2,
				3,
				4,
				34
			]
		}
	],
	"nodes":[
		{
			"name":"Empty",
			"rotation":[
				0.70710688829422,
				0,
				0,
				0.7071066498756409
			],
			"scale":[
				14.584674835205078,
				14.584674835205078,
				14.584674835205078
			],
			"translation":[
				5.861316204071045,
				-11.364770889282227,
				55.68278121948242
			]
		},
		{
			"name":"Empty.001",
			"rotation":[
				0.5,
				0.5,
				-0.5,
				0.5
			],
			"scale":[
				14.448373794555664,
				14.448373794555664,
				14.448373794555664
			],
			"translation":[
				-63.88982391357422,
				-11.292096138000488,
				26.442378997802734
			]
		},
		{
			"mesh":0,
			"name":"Cube",
			"scale":[
				0.0928429439663887,
				0.0928429439663887,
				0.0928429439663887
			],
			"translation":[
				0.0013517141342163086,
				1.1740903854370117,
				-0.06625735759735107
			]
		},
		{
			"mesh":1,
			"name":"Cube.001",
			"scale":[
				0.0928429439663887,
				0.0928429439663887,
				0.0928429439663887
			],
			"translation":[
				0.0013515949249267578,
				0.0416259765625,
				0.03942680358886719
			]
		},
		{
			"mesh":2,
			"name":"Cube.002",
			"scale":[
				0.0928429439663887,
				0.0928429439663887,
				0.0928429439663887
			],
			"translation":[
				-0.02468729019165039,
				1.4190422296524048,
				-0.1080315113067627
			]
		},
		{
			"name":"spine.006",
			"rotation":[
				-0.011743620038032532,
				-0.00034382136072963476,
				-0.0036514452658593655,
				0.9999243021011353
			],
			"scale":[
				1,
				0.9999999403953552,
				0.9999998807907104
			],
			"translation":[
				1.5729284541521338e-10,
				0.6041480898857117,
				-1.3379356289533462e-07
			]
		},
		{
			"children":[
				5
			],
			"name":"spine.005",
			"rotation":[
				-0.09485778957605362,
				-3.3502055296619204e-11,
				-2.2684830014441104e-08,
				0.9954908490180969
			],
			"scale":[
				1,
				1,
				0.9999998807907104
			],
			"translation":[
				-7.098321930243401e-12,
				0.6375024318695068,
				5.665611979566165e-07
			]
		},
		{
			"children":[
				6
			],
			"name":"spine.004",
			"rotation":[
				0.20173783600330353,
				1.1678935152303893e-07,
				2.4054948255525233e-08,
				0.9794395565986633
			],
			"scale":[
				1,
				1.0000001192092896,
				1.0000001192092896
			],
			"translation":[
				-9.406462275762806e-10,
				1.8555514812469482,
				-1.4900797928873999e-08
			]
		},
		{
			"name":"hand.L",
			"rotation":[
				0.021318964660167694,
				0.004184364341199398,
				-0.0038194525986909866,
				0.9997566938400269
			],
			"scale":[
				0.9999999403953552,
				1.000000238418579,
				1.0000001192092896
			],
			"translation":[
				3.866851329803467e-06,
				2.332167387008667,
				-1.3969838619232178e-07
			]
		},
		{
			"children":[
				8
			],
			"name":"forearm.L",
			"rotation":[
				0.015269506722688675,
				-0.08335582166910172,
				0.008181479759514332,
				0.9963693022727966
			],
			"scale":[
				1,
				0.9999999403953552,
				0.9999999403953552
			],
			"translation":[
				5.513429641723633e-07,
				3.3368730545043945,
				-2.5331974029541016e-07
			]
		},
		{
			"children":[
				9
			],
			"name":"upper_arm.L",
			"rotation":[
				0.16429150104522705,
				0.7204113602638245,
				-0.1758437603712082,
				0.6504573822021484
			],
			"scale":[
				1.0000001192092896,
				1.0000001192092896,
				1
			],
			"translation":[
				-0.380327969789505,
				2.435882568359375,
				-0.10604240000247955
			]
		},
		{
			"children":[
				10
			],
			"name":"shoulder.L",
			"rotation":[
				-0.6051545739173889,
				-0.345862478017807,
				-0.3561343848705292,
				0.6223627924919128
			],
			"scale":[
				1,
				0.9999999403953552,
				1.0000001192092896
			],
			"translation":[
				0.18955731391906738,
				1.1886452436447144,
				1.0461528301239014
			]
		},
		{
			"name":"hand.R",
			"rotation":[
				0.02131897583603859,
				-0.004184333607554436,
				0.0038194656372070312,
				0.9997566938400269
			],
			"scale":[
				1,
				1,
				0.9999999403953552
			],
			"translation":[
				-1.0579824447631836e-06,
				2.332167148590088,
				-8.568167686462402e-08
			]
		},
		{
			"children":[
				12
			],
			"name":"forearm.R",
			"rotation":[
				0.015269543044269085,
				0.08335590362548828,
				-0.008181479759514332,
				0.9963693022727966
			],
			"scale":[
				1,
				0.9999998807907104,
				0.9999998211860657
			],
			"translation":[
				-1.4901161193847656e-08,
				3.3368723392486572,
				-1.341104507446289e-07
			]
		},
		{
			"children":[
				13
			],
			"name":"upper_arm.R",
			"rotation":[
				0.16429144144058228,
				-0.720411479473114,
				0.17584367096424103,
				0.6504572629928589
			],
			"scale":[
				1.0000001192092896,
				1.0000001192092896,
				1.0000001192092896
			],
			"translation":[
				0.38032832741737366,
				2.4358818531036377,
				-0.10604443401098251
			]
		},
		{
			"children":[
				14
			],
			"name":"shoulder.R",
			"rotation":[
				-0.6051545739173889,
				0.3458625078201294,
				0.3561345040798187,
				0.6223627328872681
			],
			"scale":[
				1.0000001192092896,
				1.000000238418579,
				1.0000001192092896
			],
			"translation":[
				-0.16309429705142975,
				1.1886452436447144,
				1.0461528301239014
			]
		},
		{
			"name":"breast.L",
			"rotation":[
				5.414203130271744e-08,
				0.6969361901283264,
				0.717133104801178,
				5.261723146077202e-08
			],
			"scale":[
				1,
				1,
				1.000000238418579
			],
			"translation":[
				1.1540497541427612,
				-0.18054741621017456,
				-0.11979193985462189
			]
		},
		{
			"name":"breast.R",
			"rotation":[
				5.414203130271744e-08,
				0.6969361901283264,
				0.717133104801178,
				5.261723146077202e-08
			],
			"scale":[
				1,
				1,
				1.000000238418579
			],
			"translation":[
				-1.127586841583252,
				-0.18054741621017456,
				-0.11979193985462189
			]
		},
		{
			"children":[
				7,
				11,
				15,
				16,
				17
			],
			"name":"spine.003",
			"rotation":[
				0.08186306059360504,
				-5.917501312069362e-06,
				-0.003639155998826027,
				0.9966369271278381
			],
			"scale":[
				1.0000001192092896,
				1,
				1.0000001192092896
			],
			"translation":[
				-6.548361852765083e-09,
				1.8238261938095093,
				-2.3847434249546495e-07
			]
		},
		{
			"children":[
				18
			],
			"name":"spine.002",
			"rotation":[
				-0.15721395611763,
				0.00028190072043798864,
				0.0036282262299209833,
				0.9875578880310059
			],
			"scale":[
				0.9999998807907104,
				1.0000001192092896,
				1.0000001192092896
			],
			"translation":[
				-9.313225746154785e-10,
				1.316536545753479,
				-1.043081283569336e-07
			]
		},
		{
			"children":[
				19
			],
			"name":"spine.001",
			"rotation":[
				-0.06447646021842957,
				0,
				0,
				0.9979192614555359
			],
			"scale":[
				1,
				1,
				0.9999999403953552
			],
			"translation":[
				9.313225746154785e-10,
				1.4666780233383179,
				-2.9802322387695312e-08
			]
		},
		{
			"name":"pelvis.L",
			"rotation":[
				-0.2759169340133667,
				-0.5682340860366821,
				-0.6567237973213196,
				0.41193899512290955
			],
			"scale":[
				1,
				1.0000003576278687,
				1
			],
			"translation":[
				9.313225746154785e-10,
				-0.4444074034690857,
				0.11456906795501709
			]
		},
		{
			"name":"pelvis.R",
			"rotation":[
				-0.2759169340133667,
				0.5682340860366821,
				0.6567237973213196,
				0.41193899512290955
			],
			"scale":[
				1,
				1.0000003576278687,
				1
			],
			"translation":[
				9.313225746154785e-10,
				-0.4444074034690857,
				0.11456906795501709
			]
		},
		{
			"name":"toe.L",
			"rotation":[
				7.777832422561914e-08,
				0.9612486958503723,
				-0.27568262815475464,
				1.8716205829605315e-07
			],
			"scale":[
				1,
				1.0000001192092896,
				1.0000001192092896
			],
			"translation":[
				-3.54603088226213e-07,
				1.2453174591064453,
				2.8429781195882242e-08
			]
		},
		{
			"name":"heel.02.L",
			"rotation":[
				0.6797055006027222,
				0.6797054409980774,
				-0.19493690133094788,
				0.19493725895881653
			],
			"scale":[
				1,
				1,
				1.0000001192092896
			],
			"translation":[
				-0.36614158749580383,
				0.19242101907730103,
				0.8478134274482727
			]
		},
		{
			"children":[
				23,
				24
			],
			"name":"foot.L",
			"rotation":[
				-0.5273635387420654,
				2.025698790930619e-07,
				-1.2573326557685505e-07,
				0.8496397733688354
			],
			"scale":[
				1,
				0.9999998807907104,
				1
			],
			"translation":[
				0,
				4.376490116119385,
				-5.21540641784668e-08
			]
		},
		{
			"children":[
				25
			],
			"name":"shin.L",
			"rotation":[
				0.10445007681846619,
				0,
				0,
				0.9945301413536072
			],
			"translation":[
				-1.1920928955078125e-07,
				3.582705020904541,
				3.725290298461914e-08
			]
		},
		{
			"children":[
				26
			],
			"name":"thigh.L",
			"rotation":[
				0.9835923314094543,
				0,
				0,
				0.18040558695793152
			],
			"scale":[
				1,
				1,
				1.0000008344650269
			],
			"translation":[
				1.8263132572174072,
				-0.859332263469696,
				0.6474113464355469
			]
		},
		{
			"name":"toe.R",
			"rotation":[
				7.777832422561914e-08,
				-0.9612486958503723,
				0.27568262815475464,
				1.8716205829605315e-07
			],
			"scale":[
				1,
				1.0000001192092896,
				1.0000001192092896
			],
			"translation":[
				2.3539379867543175e-07,
				1.2453174591064453,
				1.4545946669386467e-08
			]
		},
		{
			"name":"heel.02.R",
			"rotation":[
				0.6797055006027222,
				-0.6797054409980774,
				0.19493693113327026,
				0.19493724405765533
			],
			"scale":[
				1,
				1,
				1.0000001192092896
			],
			"translation":[
				0.3661417067050934,
				0.19242101907730103,
				0.8478134274482727
			]
		},
		{
			"children":[
				28,
				29
			],
			"name":"foot.R",
			"rotation":[
				-0.5273635387420654,
				-2.025698790930619e-07,
				1.2573326557685505e-07,
				0.8496397733688354
			],
			"scale":[
				1,
				0.9999998807907104,
				1
			],
			"translation":[
				0,
				4.376490116119385,
				-5.21540641784668e-08
			]
		},
		{
			"children":[
				30
			],
			"name":"shin.R",
			"rotation":[
				0.10445007681846619,
				0,
				0,
				0.9945301413536072
			],
			"translation":[
				2.384185791015625e-07,
				3.582705020904541,
				3.725290298461914e-08
			]
		},
		{
			"children":[
				31
			],
			"name":"thigh.R",
			"rotation":[
				0.9835923314094543,
				0,
				0,
				0.18040558695793152
			],
			"scale":[
				1,
				1,
				1.0000008344650269
			],
			"translation":[
				-1.8263133764266968,
				-0.859332263469696,
				0.6474113464355469
			]
		},
		{
			"children":[
				20,
				21,
				22,
				27,
				32
			],
			"name":"spine",
			"rotation":[
				0.12581966817378998,
				0,
				0,
				0.9920531511306763
			],
			"scale":[
				1,
				0.9999999403953552,
				0.9999999403953552
			],
			"translation":[
				0.0018250290304422379,
				-0.34354591369628906,
				-0.385617196559906
			]
		},
		{
			"children":[
				33
			],
			"name":"metarig",
			"scale":[
				0.0928429439663887,
				0.0928429439663887,
				0.0928429439663887
			],
			"translation":[
				0.0011821985244750977,
				0.9339790344238281,
				-0.030188322067260742
			]
		}
	],
	"meshes":[
		{
			"name":"Cube.001",
			"primitives":[
				{
					"attributes":{
						"POSITION":0,
						"NORMAL":1,
						"TEXCOORD_0":2
					},
					"indices":3
				}
			]
		},
		{
			"name":"Cube",
			"primitives":[
				{
					"attributes":{
						"POSITION":4,
						"NORMAL":5,
						"TEXCOORD_0":6
					},
					"indices":7
				}
			]
		},
		{
			"name":"Cube.002",
			"primitives":[
				{
					"attributes":{
						"POSITION":8,
						"NORMAL":9,
						"TEXCOORD_0":10
					},
					"indices":11
				}
			]
		}
	],
	"skins":[
		{
			"inverseBindMatrices":12,
			"joints":[
				33,
				20,
				19,
				18,
				7,
				6,
				5,
				11,
				10,
				9,
				8,
				15,
				14,
				13,
				12,
				16,
				17,
				21,
				22,
				27,
				26,
				25,
				23,
				24,
				32,
				31,
				30,
				28,
				29
			],
			"name":"metarig"
		}
	],
	"accessors":[
		{
			"bufferView":0,
			"componentType":5126,
			"count":1388,
			"max":[
				7.978513717651367,
				7.437654495239258,
				2.1419894695281982
			],
			"min":[
				-7.978515625,
				-11.929428100585938,
				-2.201979398727417
			],
			"type":"VEC3"
		},
		{
			"bufferView":1,
			"componentType":5126,
			"count":1388,
			"type":"VEC3"
		},
		{
			"bufferView":2,
			"componentType":5126,
			"count":1388,
			"type":"VEC2"
		},
		{
			"bufferView":3,
			"componentType":5123,
			"count":2052,
			"type":"SCALAR"
		},
		{
			"bufferView":4,
			"componentType":5126,
			"count":512,
			"max":[
				2.4980883598327637,
				0.7278597950935364,
				1.4594680070877075
			],
			"min":[
				-2.4980883598327637,
				-0.6525306701660156,
				-1.5537235736846924
			],
			"type":"VEC3"
		},
		{
			"bufferView":5,
			"componentType":5126,
			"count":512,
			"type":"VEC3"
		},
		{
			"bufferView":6,
			"componentType":5126,
			"count":512,
			"type":"VEC2"
		},
		{
			"bufferView":7,
			"componentType":5123,
			"count":768,
			"type":"SCALAR"
		},
		{
			"bufferView":8,
			"componentType":5126,
			"count":684,
			"max":[
				10.305275917053223,
				0.43938785791397095,
				0.9582136869430542
			],
			"min":[
				-9.292898178100586,
				-0.5065227746963501,
				-0.897687554359436
			],
			"type":"VEC3"
		},
		{
			"bufferView":9,
			"componentType":5126,
			"count":684,
			"type":"VEC3"
		},
		{
			"bufferView":10,
			"componentType":5126,
			"count":684,
			"type":"VEC2"
		},
		{
			"bufferView":11,
			"componentType":5123,
			"count":1020,
			"type":"SCALAR"
		},
		{
			"bufferView":12,
			"componentType":5126,
			"count":29,
			"type":"MAT4"
		}
	],
	"bufferViews":[
		{
			"buffer":0,
			"byteLength":16656,
			"byteOffset":0,
			"target":34962
		},
		{
			"buffer":0,
			"byteLength":16656,
			"byteOffset":16656,
			"target":34962
		},
		{
			"buffer":0,
			"byteLength":11104,
			"byteOffset":33312,
			"target":34962
		},
		{
			"buffer":0,
			"byteLength":4104,
			"byteOffset":44416,
			"target":34963
		},
		{
			"buffer":0,
			"byteLength":6144,
			"byteOffset":48520,
			"target":34962
		},
		{
			"buffer":0,
			"byteLength":6144,
			"byteOffset":54664,
			"target":34962
		},
		{
			"buffer":0,
			"byteLength":4096,
			"byteOffset":60808,
			"target":34962
		},
		{
			"buffer":0,
			"byteLength":1536,
			"byteOffset":64904,
			"target":34963
		},
		{
			"buffer":0,
			"byteLength":8208,
			"byteOffset":66440,
			"target":34962
		},
		{
			"buffer":0,
			"byteLength":8208,
			"byteOffset":74648,
			"target":34962
		},
		{
			"buffer":0,
			"byteLength":5472,
			"byteOffset":82856,
			"target":34962
		},
		{
			"buffer":0,
			"byteLength":2040,
			"byteOffset":88328,
			"target":34963
		},
		{
			"buffer":0,
			"byteLength":1856,
			"byteOffset":90368
		}
	],
	"buffers":[
		{
			"byteLength":92224,
			"uri":"human.bin"
		}
	]
}
