# Blender 4.0.2
# www.blender.org
mtllib table.mtl
o Cube.004
v 3.757205 -3.125070 2.420175
v 3.757205 1.120588 2.420175
v 3.757205 -3.125070 2.006623
v 3.757205 1.120588 2.006623
v 4.170758 -3.125070 2.420175
v 4.170758 1.120588 2.420175
v 4.170758 -3.125070 2.006623
v 4.170758 1.120588 2.006623
v -4.170758 1.120588 2.420175
v -4.170758 1.120588 -2.420175
v 4.170757 1.120588 2.420175
v 4.170757 1.120588 -2.420175
v 3.343652 1.120588 -1.593070
v 3.343652 1.120588 -2.420175
v 4.170757 1.120588 -1.593070
v 4.170757 1.120588 -2.420175
v -4.170758 1.120588 -1.593070
v -4.170758 1.120588 -2.420175
v -3.343653 1.120588 -1.593070
v -3.343653 1.120588 -2.420175
v -4.170758 1.120588 2.420175
v -4.170758 1.120588 1.593070
v -3.343653 1.120588 2.420175
v -3.343653 1.120588 1.593070
v 3.343653 1.120588 2.420175
v 3.343653 1.120588 1.593070
v 4.170758 1.120588 2.420175
v 4.170758 1.120588 1.593070
v -4.170758 1.599355 2.420175
v -4.170758 1.599355 -2.420175
v 4.170757 1.599355 -2.420175
v 4.170757 1.599355 2.420175
v -4.623932 1.585775 2.683140
v -4.623932 1.862927 2.683140
v -4.623932 1.862927 -2.683141
v 4.623933 1.862927 -2.683141
v 4.623933 1.862927 2.683140
v -4.623932 1.585775 -2.683141
v 4.623933 1.585775 -2.683141
v 4.623933 1.585775 2.683140
v -4.170758 -3.125070 -2.006623
v -4.170758 1.120588 -2.006623
v -4.170758 -3.125070 -2.420175
v -4.170758 1.120588 -2.420175
v -3.757205 -3.125070 -2.006623
v -3.757205 1.120588 -2.006623
v -3.757205 -3.125070 -2.420175
v -3.757205 1.120588 -2.420175
v -4.170758 -3.125070 2.420175
v -4.170758 1.120588 2.420175
v -4.170758 -3.125070 2.006623
v -4.170758 1.120588 2.006623
v -3.757205 -3.125070 2.420175
v -3.757205 1.120588 2.420175
v -3.757205 -3.125070 2.006623
v -3.757205 1.120588 2.006623
v 3.757205 -3.125070 -2.006623
v 3.757205 1.120588 -2.006623
v 3.757205 -3.125070 -2.420175
v 3.757205 1.120588 -2.420175
v 4.170757 -3.125070 -2.006623
v 4.170757 1.120588 -2.006623
v 4.170757 -3.125070 -2.420175
v 4.170757 1.120588 -2.420175
vn -1.0000 -0.0000 -0.0000
vn -0.0000 -0.0000 -1.0000
vn 1.0000 -0.0000 -0.0000
vn -0.0000 -0.0000 1.0000
vn -0.0000 -1.0000 -0.0000
vn -0.0000 1.0000 -0.0000
vn -0.0300 -0.9996 -0.0000
vn 0.0300 -0.9996 -0.0000
vn -0.0000 -0.9987 0.0516
vn -0.0000 -0.9987 -0.0516
vt 0.198310 0.808817
vt 0.198310 0.554328
vt 0.247888 0.554328
vt 0.247888 0.808817
vt 0.594931 0.808817
vt 0.594931 0.554328
vt 0.644509 0.554328
vt 0.644509 0.808817
vt 0.297466 0.554328
vt 0.297466 0.808817
vt 0.795867 0.754490
vt 0.795867 0.500000
vt 0.845445 0.500000
vt 0.845445 0.754490
vt 0.148733 0.858395
vt 0.099155 0.858395
vt 0.099155 0.808817
vt 0.148733 0.808817
vt 0.321661 0.554328
vt 0.000000 0.554328
vt 0.000000 0.000000
vt 0.321661 0.000000
vt 0.337424 0.527164
vt 0.627560 0.527164
vt 0.643322 0.554328
vt 0.321661 0.554328
vt 0.627560 0.027164
vt 0.337424 0.027164
vt 0.321661 0.000000
vt 0.643322 -0.000000
vt 0.966684 -0.000000
vt 0.966684 0.500000
vt 0.676548 0.500000
vt 0.676548 0.000000
vt 0.049578 0.808817
vt 0.049578 0.858395
vt 0.000000 0.858395
vt 0.000000 0.808817
vt 0.198310 0.858395
vt 0.148733 0.858395
vt 0.148733 0.808817
vt 0.198310 0.808817
vt 0.297466 0.858395
vt 0.247888 0.858395
vt 0.297466 0.808817
vt 0.837626 0.790136
vt 0.837626 0.839714
vt 0.788049 0.839714
vt 0.788049 0.790136
vt 0.995382 0.500000
vt 0.966684 0.500000
vt 0.966684 0.000000
vt 0.995382 0.000000
vt 0.767169 0.790136
vt 0.738471 0.790136
vt 0.738471 0.500000
vt 0.767169 0.500000
vt 0.705246 1.000000
vt 0.676548 1.000000
vt 0.705246 0.500000
vt 0.795867 0.790136
vt 0.795867 0.500000
vt 0.721858 0.821661
vt 0.705246 0.821661
vt 0.705246 0.500000
vt 0.721858 0.500000
vt 0.659935 0.554328
vt 0.643322 0.554328
vt 0.643322 0.000000
vt 0.659935 0.000000
vt 0.738471 0.821661
vt 0.676548 0.554328
vt 0.659935 0.554328
vt 0.659935 0.000000
s 0
usemtl Material.004
f 1/1/1 2/2/1 4/3/1 3/4/1
f 3/5/2 4/6/2 8/7/2 7/8/2
f 7/4/3 8/3/3 6/9/3 5/10/3
f 5/11/4 6/12/4 2/13/4 1/14/4
f 3/15/5 7/16/5 5/17/5 1/18/5
usemtl Material.001
f 35/19/6 34/20/6 37/21/6 36/22/6
f 32/23/7 31/24/7 39/25/7 40/26/7
f 30/27/8 29/28/8 33/29/8 38/30/8
f 10/31/5 12/32/5 11/33/5 9/34/5
f 16/35/6 14/36/6 13/37/6 15/38/6
f 20/39/6 18/40/6 17/41/6 19/42/6
f 24/43/6 22/44/6 21/4/6 23/45/6
f 28/46/6 26/47/6 25/48/6 27/49/6
f 11/50/4 32/51/4 29/52/4 9/53/4
f 12/54/3 31/55/3 32/56/3 11/57/3
f 10/58/2 30/59/2 31/33/2 12/60/2
f 9/61/1 29/54/1 30/57/1 10/62/1
f 33/63/1 34/64/1 35/65/1 38/66/1
f 38/67/2 35/68/2 36/69/2 39/70/2
f 39/71/3 36/63/3 37/66/3 40/56/3
f 40/72/4 37/73/4 34/74/4 33/34/4
f 31/24/9 30/27/9 38/30/9 39/25/9
f 29/28/10 32/23/10 40/26/10 33/29/10
f 41/1/1 42/2/1 44/3/1 43/4/1
f 43/5/2 44/6/2 48/7/2 47/8/2
f 47/4/3 48/3/3 46/9/3 45/10/3
f 45/11/4 46/12/4 42/13/4 41/14/4
f 43/15/5 47/16/5 45/17/5 41/18/5
usemtl Material.002
f 49/1/1 50/2/1 52/3/1 51/4/1
f 51/5/2 52/6/2 56/7/2 55/8/2
f 55/4/3 56/3/3 54/9/3 53/10/3
f 53/11/4 54/12/4 50/13/4 49/14/4
f 51/15/5 55/16/5 53/17/5 49/18/5
usemtl Material.003
f 57/1/1 58/2/1 60/3/1 59/4/1
f 59/5/2 60/6/2 64/7/2 63/8/2
f 63/4/3 64/3/3 62/9/3 61/10/3
f 61/11/4 62/12/4 58/13/4 57/14/4
f 59/15/5 63/16/5 61/17/5 57/18/5
