# Blender 4.0.2
# www.blender.org
mtllib wardrobe.mtl
o Cube
v -0.021341 0.970106 -0.368196
v 0.483378 -0.990000 -0.376974
v 0.483378 0.990000 -0.376974
v -0.006979 -0.959907 -0.329646
v -0.006979 0.959907 -0.329646
v 0.483378 -0.953143 -0.326889
v 0.483378 0.953144 -0.326889
v -0.006979 -0.959907 0.083026
v -0.006979 0.959907 0.083025
v 0.483378 -0.953144 0.083026
v 0.483378 0.953144 0.083025
v -0.021341 -0.970106 0.534247
v 0.483378 -0.990000 0.543026
v 0.483378 0.990000 0.543025
v -0.006979 -0.959907 0.495697
v -0.006979 0.959907 0.495697
v 0.483378 -0.953144 0.492940
v 0.483378 0.953143 0.492940
v -0.021341 0.990000 -0.376974
v -0.021341 -0.990000 -0.376974
v -0.021341 0.990000 0.543025
v -0.021341 -0.990000 0.543026
v -0.021341 0.970105 0.083025
v -0.021341 0.970105 0.534246
v -0.021341 -0.970105 0.083026
v -0.021341 -0.970105 -0.368195
v -0.026301 0.970105 0.083025
v -0.026301 -0.970105 0.083026
v -0.026301 0.970106 -0.368196
v -0.026301 -0.970105 -0.368195
v -0.026301 0.970105 0.534246
v -0.026301 -0.970106 0.534247
v 0.504703 0.953144 0.085595
v 0.504703 -0.962488 0.085596
v 0.481972 -0.962488 0.085596
v 0.481972 0.953144 0.085595
v 0.481972 0.962488 0.496295
v 0.481972 -0.953144 0.496296
v 0.504703 0.962488 0.496295
v 0.504703 -0.953144 0.496296
v 0.504703 0.953144 0.082506
v 0.504703 -0.962488 0.082504
v 0.481972 -0.962488 0.082504
v 0.481972 0.953144 0.082506
v 0.481972 0.962489 -0.328194
v 0.481972 -0.953143 -0.328196
v 0.504703 0.962489 -0.328194
v 0.504703 -0.953143 -0.328196
vn -0.0000 -0.0000 -1.0000
vn 1.0000 -0.0000 -0.0000
vn -0.0056 -0.0000 1.0000
vn -0.0138 -0.9999 -0.0000
vn -0.0138 0.9999 -0.0000
vn -0.0000 -1.0000 -0.0000
vn -0.0000 -0.0000 1.0000
vn -0.0056 -0.0000 -1.0000
vn -0.0000 1.0000 -0.0000
vn -1.0000 -0.0000 -0.0000
vn -0.0000 0.9997 -0.0227
vn -0.0000 -0.9997 0.0227
vn -0.0000 0.9997 0.0227
vn -0.0000 -0.9997 -0.0227
vt 0.375000 0.250000
vt 0.625000 0.250000
vt 0.625000 0.500000
vt 0.375000 0.500000
vt 0.375000 0.125000
vt 0.625000 0.125000
vt 0.625000 0.625000
vt 0.875000 0.625000
vt 0.875000 0.500000
vt 0.125000 0.500000
vt 0.125000 0.625000
vt 0.375000 0.625000
vt 0.377512 0.247614
vt 0.377512 0.125000
vt 0.377512 0.247614
vt 0.622488 0.247614
vt 0.622488 0.247614
vt 0.622488 0.125000
vt 0.375000 0.750000
vt 0.625000 0.750000
s 0
usemtl Material.006
f 20/1/1 19/2/1 3/3/1 2/4/1
f 8/5/2 4/1/2 5/2/2 9/6/2
f 4/1/3 6/4/3 7/3/3 5/2/3
f 2/4/2 3/3/2 7/3/2 6/4/2
f 14/3/2 18/3/2 11/7/2 7/3/2 3/3/2
f 7/3/4 11/7/4 9/8/4 5/9/4
f 4/10/5 8/11/5 10/12/5 6/4/5
f 22/10/6 20/10/6 2/4/6 13/4/6
f 10/12/2 17/4/2 13/4/2 2/4/2 6/4/2
f 22/1/7 13/4/7 14/3/7 21/2/7
f 8/5/2 9/6/2 16/2/2 15/1/2
f 15/1/8 16/2/8 18/3/8 17/4/8
f 13/4/2 17/4/2 18/3/2 14/3/2
f 18/3/4 16/9/4 9/8/4 11/7/4
f 15/10/5 17/4/5 10/12/5 8/11/5
f 14/3/9 3/3/9 19/9/9 21/9/9
f 12/13/10 25/14/10 26/15/10 20/1/10 22/1/10
f 26/15/10 1/16/10 19/2/10 20/1/10
f 24/17/10 12/13/10 22/1/10 21/2/10
f 23/18/10 24/17/10 21/2/10 19/2/10 1/16/10
f 33/4/2 39/19/2 40/20/2 34/3/2
f 36/4/10 35/3/10 38/20/10 37/19/10
f 40/20/7 39/19/7 37/19/7 38/20/7
f 39/19/11 33/4/11 36/4/11 37/19/11
f 34/3/12 40/20/12 38/20/12 35/3/12
f 33/4/1 34/3/1 35/3/1 36/4/1
f 41/4/2 42/3/2 48/20/2 47/19/2
f 44/4/10 45/19/10 46/20/10 43/3/10
f 48/20/1 46/20/1 45/19/1 47/19/1
f 47/19/13 45/19/13 44/4/13 41/4/13
f 42/3/14 43/3/14 46/20/14 48/20/14
f 41/4/7 44/4/7 43/3/7 42/3/7
usemtl Material.007
f 25/14/2 26/15/2 1/16/2 23/18/2
f 25/14/2 23/18/2 24/17/2 12/13/2
f 26/15/6 25/14/6 28/14/6 30/15/6
f 12/13/7 24/17/7 31/17/7 32/13/7
f 28/14/10 27/18/10 29/16/10 30/15/10
f 28/14/10 32/13/10 31/17/10 27/18/10
f 23/18/9 1/16/9 29/16/9 27/18/9
f 25/14/6 12/13/6 32/13/6 28/14/6
f 24/17/9 23/18/9 27/18/9 31/17/9
f 1/16/1 26/15/1 30/15/1 29/16/1
o Cube.002
v 0.535038 -0.229028 0.241133
v 0.535038 0.226622 0.241133
v 0.535038 -0.229028 0.199781
v 0.535038 0.226622 0.199781
v 0.504703 -0.229028 0.199781
v 0.504703 0.226622 0.241133
v 0.504703 -0.229028 0.241133
v 0.519871 0.226622 0.199781
v 0.519871 -0.229028 0.199781
v 0.519871 -0.229028 0.241133
v 0.519871 0.226622 0.241133
v 0.535038 0.246622 0.199781
v 0.535038 0.246622 0.241133
v 0.519871 0.246622 0.199781
v 0.504703 0.246622 0.241133
v 0.504703 0.246622 0.199781
v 0.519871 0.246622 0.241133
v 0.504703 0.226622 0.199781
v 0.535038 -0.249028 0.241133
v 0.535038 -0.249028 0.199781
v 0.519871 -0.249028 0.199781
v 0.504703 -0.249028 0.199781
v 0.504703 -0.249028 0.241133
v 0.519871 -0.249028 0.241133
v 0.535038 -0.229028 -0.037598
v 0.535038 0.226622 -0.037598
v 0.535038 -0.229028 0.003754
v 0.535038 0.226622 0.003754
v 0.504703 -0.229028 0.003754
v 0.504703 0.226622 -0.037598
v 0.504703 -0.229028 -0.037598
v 0.519871 0.226622 0.003754
v 0.519871 -0.229028 0.003754
v 0.519871 -0.229028 -0.037598
v 0.519871 0.226622 -0.037598
v 0.535038 0.246622 0.003754
v 0.535038 0.246622 -0.037598
v 0.519871 0.246622 0.003754
v 0.504703 0.246622 -0.037598
v 0.504703 0.246622 0.003754
v 0.519871 0.246622 -0.037598
v 0.504703 0.226622 0.003754
v 0.535038 -0.249028 -0.037598
v 0.535038 -0.249028 0.003754
v 0.519871 -0.249028 0.003754
v 0.504703 -0.249028 0.003754
v 0.504703 -0.249028 -0.037598
v 0.519871 -0.249028 -0.037598
vn -0.0000 -1.0000 -0.0000
vn -1.0000 -0.0000 -0.0000
vn -0.0000 -0.0000 -1.0000
vn 1.0000 -0.0000 -0.0000
vn -0.0000 -0.0000 1.0000
vn -0.0000 1.0000 -0.0000
vt 0.625000 0.250000
vt 0.625000 0.375000
vt 0.625000 0.875000
vt 0.625000 1.000000
vt 0.375000 0.375000
vt 0.375000 0.875000
vt 0.625000 0.500000
vt 0.375000 0.500000
vt 0.375000 0.000000
vt 0.625000 0.000000
vt 0.375000 0.250000
vt 0.375000 0.750000
vt 0.625000 0.750000
vt 0.375000 1.000000
vt 0.750000 0.500000
vt 0.875000 0.500000
vt 0.875000 0.750000
vt 0.750000 0.750000
vt 0.250000 0.500000
vt 0.250000 0.750000
vt 0.125000 0.500000
vt 0.125000 0.750000
s 0
usemtl Material
f 66/21/15 56/22/15 59/23/15 54/24/15
f 57/25/16 58/26/16 59/23/16 56/22/16
f 57/25/17 56/22/17 52/27/17 51/28/17
f 51/29/18 52/30/18 50/21/18 49/31/18
f 49/32/19 58/26/19 72/26/19 67/32/19
f 56/22/17 66/21/17 64/21/17 62/22/17
f 53/31/17 57/25/17 69/25/17 70/31/17
f 49/32/19 50/33/19 59/23/19 58/26/19
f 57/25/20 53/32/20 55/34/20 58/26/20
f 62/35/20 64/36/20 63/37/20 65/38/20
f 60/27/20 62/35/20 65/38/20 61/33/20
f 50/21/18 52/30/18 60/30/18 61/21/18
f 59/23/19 50/33/19 61/33/19 65/23/19
f 54/24/19 59/23/19 65/23/19 63/24/19
f 52/27/17 56/22/17 62/22/17 60/27/17
f 66/33/16 54/27/16 63/27/16 64/33/16
f 69/39/15 68/28/15 67/32/15 72/40/15
f 70/41/15 69/39/15 72/40/15 71/42/15
f 57/25/17 51/28/17 68/28/17 69/25/17
f 51/29/18 49/31/18 67/31/18 68/29/18
f 58/26/19 55/34/19 71/34/19 72/26/19
f 55/28/16 53/32/16 70/32/16 71/28/16
f 90/21/15 78/24/15 83/23/15 80/22/15
f 81/25/16 80/22/16 83/23/16 82/26/16
f 81/25/19 75/28/19 76/27/19 80/22/19
f 75/29/18 73/31/18 74/21/18 76/30/18
f 73/32/17 91/32/17 96/26/17 82/26/17
f 80/22/19 86/22/19 88/21/19 90/21/19
f 77/31/19 94/31/19 93/25/19 81/25/19
f 73/32/17 82/26/17 83/23/17 74/33/17
f 81/25/20 82/26/20 79/34/20 77/32/20
f 86/35/20 89/38/20 87/37/20 88/36/20
f 84/27/20 85/33/20 89/38/20 86/35/20
f 74/21/18 85/21/18 84/30/18 76/30/18
f 83/23/17 89/23/17 85/33/17 74/33/17
f 78/24/17 87/24/17 89/23/17 83/23/17
f 76/27/19 84/27/19 86/22/19 80/22/19
f 90/33/16 88/33/16 87/27/16 78/27/16
f 93/39/15 96/40/15 91/32/15 92/28/15
f 94/41/15 95/42/15 96/40/15 93/39/15
f 81/25/19 93/25/19 92/28/19 75/28/19
f 75/29/18 92/29/18 91/31/18 73/31/18
f 82/26/17 96/26/17 95/34/17 79/34/17
f 79/28/16 95/28/16 94/32/16 77/32/16
