# Blender 4.0.2
# www.blender.org
mtllib wardrobe with glass.mtl
o Cube
v -0.021341 0.970106 -0.368196
v 0.483378 -0.990000 -0.376974
v 0.483378 0.990000 -0.376974
v -0.006979 -0.959907 -0.329646
v -0.006979 0.959907 -0.329646
v 0.483378 -0.953143 -0.326889
v 0.483378 0.953144 -0.326889
v -0.006979 -0.959907 0.083026
v -0.006979 0.959907 0.083025
v 0.483378 -0.953144 0.083026
v 0.483378 0.953144 0.083025
v -0.021341 -0.970106 0.534247
v 0.483378 -0.990000 0.543026
v 0.483378 0.990000 0.543025
v -0.006979 -0.959907 0.495697
v -0.006979 0.959907 0.495697
v 0.483378 -0.953144 0.492940
v 0.483378 0.953143 0.492940
v -0.021341 0.990000 -0.376974
v -0.021341 -0.990000 -0.376974
v -0.021341 0.990000 0.543025
v -0.021341 -0.990000 0.543026
v -0.021341 0.970105 0.083025
v -0.021341 0.970105 0.534246
v -0.021341 -0.970105 0.083026
v -0.021341 -0.970105 -0.368195
v -0.026301 0.970105 0.083025
v -0.026301 -0.970105 0.083026
v -0.026301 0.970106 -0.368196
v -0.026301 -0.970105 -0.368195
v -0.026301 0.970105 0.534246
v -0.026301 -0.970106 0.534247
v 0.506109 -0.953144 0.082239
v 0.506109 -0.397976 0.082241
v 0.483378 -0.953144 0.082239
v 0.483378 -0.397976 0.082241
v 0.483378 -0.397976 0.492940
v 0.483378 -0.953144 0.492940
v 0.506109 -0.953144 0.492940
v 0.506109 -0.397976 0.492940
v 0.504703 0.957816 0.082505
v 0.504703 -0.957816 0.082505
v 0.481972 -0.957816 0.082505
v 0.481972 0.957816 0.082505
v 0.481972 0.957816 -0.328194
v 0.481972 -0.957816 -0.328196
v 0.504703 0.957816 -0.328194
v 0.504703 -0.957816 -0.328196
v 0.506109 -0.694242 0.441666
v 0.506109 -0.652890 0.441666
v 0.521277 -0.694242 0.441666
v 0.536444 -0.652890 0.441666
v 0.536444 -0.694242 0.441666
v 0.521277 -0.652890 0.428863
v 0.521277 -0.652890 0.137180
v 0.521277 -0.694242 0.137180
v 0.521277 -0.694242 0.428863
v 0.506109 -0.652890 0.137180
v 0.506109 -0.652890 0.428863
v 0.506109 -0.694242 0.137180
v 0.536444 -0.694242 0.428863
v 0.536444 -0.694242 0.137180
v 0.536444 -0.652890 0.428863
v 0.536444 -0.652890 0.137180
v 0.506109 0.920478 0.460275
v 0.506109 -0.365311 0.460275
v 0.483378 -0.363523 0.458488
v 0.483378 0.918691 0.458488
v 0.483378 0.918691 0.116693
v 0.483378 -0.363523 0.116691
v 0.506109 0.920478 0.114906
v 0.506109 -0.365311 0.114904
v 0.521277 -0.191031 0.124377
v 0.506109 -0.191031 0.124377
v 0.506109 -0.232383 0.124377
v 0.521277 -0.232383 0.124377
v 0.536444 -0.232383 0.124377
v 0.536444 -0.191031 0.124377
v 0.506109 -0.232383 0.428863
v 0.521277 -0.191031 0.441666
v 0.536444 -0.191031 0.137180
v 0.536444 -0.191031 0.428863
v 0.536444 -0.232383 0.137180
v 0.536444 -0.232383 0.428863
v 0.506109 -0.232383 0.137180
v 0.506109 -0.191031 0.428863
v 0.506109 -0.191031 0.137180
v 0.521277 -0.232383 0.428863
v 0.521277 -0.232383 0.137180
v 0.521277 -0.191031 0.137180
v 0.521277 -0.191031 0.428863
v 0.536444 -0.232383 0.441666
v 0.536444 -0.191031 0.441666
v 0.521277 -0.232383 0.441666
v 0.506109 -0.191031 0.441666
v 0.506109 -0.232383 0.441666
v 0.521277 -0.652890 0.441666
v 0.506109 -0.694242 0.428863
v 0.536444 -0.652890 0.124377
v 0.536444 -0.694242 0.124377
v 0.521277 -0.694242 0.124377
v 0.506109 -0.694242 0.124377
v 0.506109 -0.652890 0.124377
v 0.521277 -0.652890 0.124377
v 0.506109 0.953143 0.492940
v 0.506109 -0.397976 0.492940
v 0.506109 0.953143 0.082241
v 0.506109 -0.397976 0.082239
v 0.483378 -0.397976 0.492940
v 0.483378 0.953143 0.492940
v 0.483378 0.953143 0.082241
v 0.483378 -0.397976 0.082239
v 0.501248 -0.365311 0.460275
v 0.488239 -0.363523 0.458488
v 0.488239 -0.363523 0.116691
v 0.501248 -0.365311 0.114904
v 0.501248 -0.365311 0.460275
v 0.501248 -0.365311 0.114904
v 0.488239 -0.363523 0.458488
v 0.488239 -0.363523 0.116691
v 0.501248 0.918691 0.460275
v 0.501248 0.918691 0.114904
v 0.488239 0.920478 0.458488
v 0.488239 0.920478 0.116691
v 0.506109 -0.232383 0.019493
v 0.506109 -0.191031 0.019493
v 0.521277 -0.232383 0.019493
v 0.536444 -0.191031 0.019493
v 0.536444 -0.232383 0.019493
v 0.521277 -0.191031 0.006690
v 0.521277 -0.191031 -0.284993
v 0.521277 -0.232383 -0.284993
v 0.521277 -0.232383 0.006690
v 0.506109 -0.191031 -0.284993
v 0.506109 -0.191031 0.006690
v 0.506109 -0.232383 -0.284993
v 0.536444 -0.232383 0.006690
v 0.536444 -0.232383 -0.284993
v 0.536444 -0.191031 0.006690
v 0.536444 -0.191031 -0.284993
v 0.521277 -0.191031 0.019493
v 0.506109 -0.232383 0.006690
v 0.536444 -0.191031 -0.297796
v 0.536444 -0.232383 -0.297796
v 0.521277 -0.232383 -0.297796
v 0.506109 -0.232383 -0.297796
v 0.506109 -0.191031 -0.297796
v 0.521277 -0.191031 -0.297796
vn -0.0000 -0.0000 -1.0000
vn 1.0000 -0.0000 -0.0000
vn -0.0056 -0.0000 1.0000
vn -0.0138 -0.9999 -0.0000
vn -0.0138 0.9999 -0.0000
vn -0.0000 -1.0000 -0.0000
vn -0.0000 -0.0000 1.0000
vn -0.0056 -0.0000 -1.0000
vn -0.0000 1.0000 -0.0000
vn -1.0000 -0.0000 -0.0000
vn 0.0784 0.9969 -0.0000
vn 0.0784 -0.0000 -0.9969
vn 0.0784 -0.9969 -0.0000
vn 0.0784 -0.0000 0.9969
vn -0.1361 -0.9907 -0.0000
vn -0.1361 -0.0000 -0.9907
vn -0.0000 -0.0000 -0.0000
vn 0.1361 0.9907 -0.0000
vn -0.1361 -0.0000 0.9907
vt 0.375000 0.250000
vt 0.625000 0.250000
vt 0.625000 0.500000
vt 0.375000 0.500000
vt 0.375000 0.125000
vt 0.625000 0.125000
vt 0.625000 0.625000
vt 0.875000 0.625000
vt 0.875000 0.500000
vt 0.125000 0.500000
vt 0.125000 0.625000
vt 0.375000 0.625000
vt 0.377512 0.247614
vt 0.377512 0.125000
vt 0.622488 0.247614
vt 0.622488 0.125000
vt 0.625000 0.750000
vt 0.625000 0.375000
vt 0.375000 0.750000
vt 0.625000 1.000000
vt 0.625000 0.875000
vt 0.625000 0.000000
vt 0.750000 0.750000
vt 0.750000 0.500000
vt 0.875000 0.750000
vt 0.375000 0.375000
vt 0.375000 0.875000
vt 0.375000 1.000000
vt 0.375000 0.000000
vt 0.125000 0.750000
vt 0.250000 0.750000
vt 0.250000 0.500000
vt 0.618956 0.519884
vt 0.381044 0.519884
vt 0.381044 0.730116
vt 0.618956 0.730116
vt 0.381375 0.520972
vt 0.618625 0.520972
vt 0.618625 0.729028
vt 0.381375 0.729028
s 0
usemtl drewno
f 20/1/1 19/2/1 3/3/1 2/4/1
f 8/5/2 4/1/2 5/2/2 9/6/2
f 4/1/3 6/4/3 7/3/3 5/2/3
f 2/4/2 3/3/2 7/3/2 6/4/2
f 14/3/2 18/3/2 11/7/2 7/3/2 3/3/2
f 7/3/4 11/7/4 9/8/4 5/9/4
f 4/10/5 8/11/5 10/12/5 6/4/5
f 22/10/6 20/10/6 2/4/6 13/4/6
f 10/12/2 17/4/2 13/4/2 2/4/2 6/4/2
f 22/1/7 13/4/7 14/3/7 21/2/7
f 8/5/2 9/6/2 16/2/2 15/1/2
f 15/1/8 16/2/8 18/3/8 17/4/8
f 13/4/2 17/4/2 18/3/2 14/3/2
f 18/3/4 16/9/4 9/8/4 11/7/4
f 15/10/5 17/4/5 10/12/5 8/11/5
f 14/3/9 3/3/9 19/9/9 21/9/9
f 12/13/10 25/14/10 26/13/10 20/1/10 22/1/10
f 26/13/10 1/15/10 19/2/10 20/1/10
f 24/15/10 12/13/10 22/1/10 21/2/10
f 23/16/10 24/15/10 21/2/10 19/2/10 1/15/10
f 34/19/9 36/19/9 37/4/9 40/4/9
f 33/17/1 35/17/1 36/19/1 34/19/1
f 37/4/10 36/19/10 35/17/10 38/3/10
f 40/4/2 39/3/2 33/17/2 34/19/2
f 41/4/2 42/3/2 48/17/2 47/19/2
f 44/4/10 45/19/10 46/17/10 43/3/10
f 48/17/1 46/17/1 45/19/1 47/19/1
f 47/19/9 45/19/9 44/4/9 41/4/9
f 42/3/6 43/3/6 46/17/6 48/17/6
f 41/4/7 44/4/7 43/3/7 42/3/7
f 106/3/6 109/3/6 112/17/6 108/17/6
f 105/4/7 110/4/7 109/3/7 106/3/7
f 108/17/1 112/17/1 111/19/1 107/19/1
f 107/19/9 111/19/9 110/4/9 105/4/9
f 40/4/7 37/4/7 38/3/7 39/3/7
f 39/3/6 38/3/6 35/17/6 33/17/6
f 66/33/2 65/34/2 105/4/2 106/3/2
f 65/34/2 71/35/2 107/19/2 105/4/2
f 71/35/2 72/36/2 108/17/2 107/19/2
f 72/36/2 66/33/2 106/3/2 108/17/2
f 68/37/10 67/38/10 109/3/10 110/4/10
f 70/39/10 69/40/10 111/19/10 112/17/10
f 67/38/10 70/39/10 112/17/10 109/3/10
f 69/40/10 68/37/10 110/4/10 111/19/10
f 72/36/11 70/39/11 67/38/11 66/33/11
f 65/34/12 66/33/12 67/38/12 68/37/12
f 71/35/13 65/34/13 68/37/13 69/40/13
f 72/36/14 71/35/14 69/40/14 70/39/14
f 116/36/15 113/33/15 114/38/15 115/39/15
f 118/36/16 120/39/16 124/39/16 122/36/16
f 116/36/7 115/39/7 120/39/7 118/36/7
f 115/39/17 114/38/17 119/38/17 120/39/17
f 114/38/7 113/33/7 117/33/7 119/38/7
f 113/33/17 116/36/17 118/36/17 117/33/17
f 122/36/18 124/39/18 123/38/18 121/33/18
f 119/38/19 117/33/19 121/33/19 123/38/19
usemtl płyta
f 25/14/2 26/13/2 1/15/2 23/16/2
f 25/14/2 23/16/2 24/15/2 12/13/2
f 26/13/6 25/14/6 28/14/6 30/13/6
f 12/13/7 24/15/7 31/15/7 32/13/7
f 28/14/10 27/16/10 29/15/10 30/13/10
f 28/14/10 32/13/10 31/15/10 27/16/10
f 23/16/9 1/15/9 29/15/9 27/16/9
f 25/14/6 12/13/6 32/13/6 28/14/6
f 24/15/9 23/16/9 27/16/9 31/15/9
f 1/15/1 26/13/1 30/13/1 29/15/1
usemtl klamka
f 98/17/10 49/17/10 50/3/10 59/3/10
f 61/3/6 53/3/6 51/18/6 57/18/6
f 59/20/9 50/20/9 97/21/9 54/21/9
f 54/21/9 97/21/9 52/17/9 63/17/9
f 63/2/2 52/2/2 53/22/2 61/22/2
f 53/3/7 52/17/7 97/23/7 51/24/7
f 51/24/7 97/23/7 50/25/7 49/9/7
f 56/26/7 55/27/7 58/28/7 60/19/7
f 64/19/9 55/27/9 54/21/9 63/17/9
f 60/1/6 102/1/6 101/26/6 56/26/6
f 57/18/6 51/18/6 49/2/6 98/2/6
f 64/19/9 99/19/9 104/27/9 55/27/9
f 62/29/2 64/1/2 63/2/2 61/22/2
f 56/26/6 62/4/6 61/3/6 57/18/6
f 56/26/10 57/18/10 54/21/10 55/27/10
f 98/2/1 59/20/1 54/21/1 57/18/1
f 87/4/10 74/4/10 75/19/10 85/19/10
f 90/27/9 73/27/9 74/28/9 87/28/9
f 83/29/2 77/29/2 78/1/2 81/1/2
f 89/26/6 76/26/6 77/4/6 83/4/6
f 75/10/1 74/30/1 73/31/1 76/32/1
f 76/32/1 73/31/1 78/19/1 77/4/1
f 79/2/1 86/20/1 91/21/1 88/18/1
f 89/26/10 88/18/10 91/21/10 90/27/10
f 89/26/6 83/4/6 84/3/6 88/18/6
f 83/29/2 81/1/2 82/2/2 84/22/2
f 81/19/9 78/19/9 73/27/9 90/27/9
f 88/18/6 94/18/6 96/2/6 79/2/6
f 85/1/6 75/1/6 76/26/6 89/26/6
f 81/19/9 90/27/9 91/21/9 82/17/9
f 89/26/7 90/27/7 87/28/7 85/19/7
f 94/24/7 80/23/7 95/25/7 96/9/7
f 92/3/7 93/17/7 80/23/7 94/24/7
f 82/2/2 93/2/2 92/22/2 84/22/2
f 91/21/9 80/21/9 93/17/9 82/17/9
f 86/20/9 95/20/9 80/21/9 91/21/9
f 84/3/6 92/3/6 94/18/6 88/18/6
f 79/17/10 96/17/10 95/3/10 86/3/10
f 101/32/1 104/31/1 99/19/1 100/4/1
f 102/10/1 103/30/1 104/31/1 101/32/1
f 56/26/6 101/26/6 100/4/6 62/4/6
f 62/29/2 100/29/2 99/1/2 64/1/2
f 55/27/9 104/27/9 103/28/9 58/28/9
f 58/4/10 103/4/10 102/19/10 60/19/10
f 142/17/10 125/17/10 126/3/10 135/3/10
f 137/3/6 129/3/6 127/18/6 133/18/6
f 135/20/9 126/20/9 141/21/9 130/21/9
f 130/21/9 141/21/9 128/17/9 139/17/9
f 139/2/2 128/2/2 129/22/2 137/22/2
f 129/3/7 128/17/7 141/23/7 127/24/7
f 127/24/7 141/23/7 126/25/7 125/9/7
f 132/26/7 131/27/7 134/28/7 136/19/7
f 140/19/9 131/27/9 130/21/9 139/17/9
f 136/1/6 146/1/6 145/26/6 132/26/6
f 133/18/6 127/18/6 125/2/6 142/2/6
f 140/19/9 143/19/9 148/27/9 131/27/9
f 138/29/2 140/1/2 139/2/2 137/22/2
f 132/26/6 138/4/6 137/3/6 133/18/6
f 132/26/10 133/18/10 130/21/10 131/27/10
f 142/2/1 135/20/1 130/21/1 133/18/1
f 145/32/1 148/31/1 143/19/1 144/4/1
f 146/10/1 147/30/1 148/31/1 145/32/1
f 132/26/6 145/26/6 144/4/6 138/4/6
f 138/29/2 144/29/2 143/1/2 140/1/2
f 131/27/9 148/27/9 147/28/9 134/28/9
f 134/4/10 147/4/10 146/19/10 136/19/10
usemtl szyba
f 120/39/10 119/38/10 123/38/10 124/39/10
f 117/33/2 118/36/2 122/36/2 121/33/2
