# Blender 4.0.2
# www.blender.org
mtllib WARDROBE.mtl
g Cube_Cube
v -0.507241 -0.930601 -0.722253
v -0.507241 0.930601 -0.722253
v 0.507241 -0.949686 -0.736305
v 0.507241 0.949686 -0.736305
v -0.478373 -0.920818 -0.660548
v -0.478373 0.920818 -0.660548
v 0.507241 -0.914330 -0.656135
v 0.507241 0.914330 -0.656135
v -0.507241 -0.930601 0.000000
v -0.507241 0.930601 0.000000
v -0.478373 -0.920818 0.000000
v -0.478373 0.920818 0.000000
v 0.507241 -0.914330 0.000000
v 0.507241 0.914330 0.000000
v -0.507241 -0.930601 0.722253
v -0.507241 0.930601 0.722253
v 0.507241 -0.949686 0.736305
v 0.507241 0.949686 0.736305
v -0.478373 -0.920818 0.660548
v -0.478373 0.920818 0.660548
v 0.507241 -0.914330 0.656135
v 0.507241 0.914330 0.656135
v -0.507241 0.949686 -0.736305
v -0.507241 -0.949686 -0.736305
v -0.507241 0.949686 0.736305
v -0.507241 -0.949686 0.736305
vn -0.0000 -0.0000 -1.0000
vn 1.0000 -0.0000 -0.0000
vn -0.0045 -0.0000 1.0000
vn -0.0066 -1.0000 -0.0000
vn -0.0066 1.0000 -0.0000
vn -0.0000 -1.0000 -0.0000
vn -0.0000 -0.0000 1.0000
vn -0.0045 -0.0000 -1.0000
vn -0.0000 1.0000 -0.0000
vn -1.0000 -0.0000 -0.0000
vt 0.375000 0.250000
vt 0.625000 0.250000
vt 0.625000 0.500000
vt 0.375000 0.500000
vt 0.375000 0.125000
vt 0.625000 0.125000
vt 0.625000 0.625000
vt 0.875000 0.625000
vt 0.875000 0.500000
vt 0.125000 0.500000
vt 0.125000 0.625000
vt 0.375000 0.625000
vt 0.377512 0.247614
vt 0.377512 0.125000
vt 0.377512 0.247614
vt 0.622488 0.247614
vt 0.622488 0.247614
vt 0.622488 0.125000
s 0
usemtl Material.003
f 24/1/1 23/2/1 4/3/1 3/4/1
f 11/5/2 5/1/2 6/2/2 12/6/2
f 5/1/3 7/4/3 8/3/3 6/2/3
f 3/4/2 4/3/2 8/3/2 7/4/2
f 18/3/2 22/3/2 14/7/2 8/3/2 4/3/2
f 8/3/4 14/7/4 12/8/4 6/9/4
f 5/10/5 11/11/5 13/12/5 7/4/5
f 26/10/6 24/10/6 3/4/6 17/4/6
f 13/12/2 21/4/2 17/4/2 3/4/2 7/4/2
f 26/1/7 17/4/7 18/3/7 25/2/7
f 11/5/2 12/6/2 20/2/2 19/1/2
f 19/1/8 20/2/8 22/3/8 21/4/8
f 17/4/2 21/4/2 22/3/2 18/3/2
f 22/3/4 20/9/4 12/8/4 14/7/4
f 19/10/5 21/4/5 13/12/5 11/11/5
f 18/3/9 4/3/9 23/9/9 25/9/9
f 15/13/10 9/14/10 1/15/10 24/1/10 26/1/10
f 1/15/10 2/16/10 23/2/10 24/1/10
f 16/17/10 15/13/10 26/1/10 25/2/10
f 10/18/10 16/17/10 25/2/10 23/2/10 2/16/10
g Cube.003_Cube.006
v 0.550103 0.186113 -0.230921
v 0.550103 -0.361657 -0.230921
v 0.550103 0.186113 -0.191934
v 0.550103 -0.361657 -0.191934
v 0.594107 0.186113 -0.230921
v 0.594107 -0.361657 -0.230921
v 0.594107 0.186113 -0.191934
v 0.594107 -0.361657 -0.191934
v 0.572105 0.186113 -0.191934
v 0.572105 -0.361657 -0.191934
v 0.572105 0.186113 -0.230921
v 0.572105 -0.361657 -0.230921
v 0.550103 -0.380933 -0.230921
v 0.550103 -0.380933 -0.191934
v 0.572105 -0.380933 -0.191934
v 0.594107 -0.380933 -0.191934
v 0.594107 -0.380933 -0.230921
v 0.572105 -0.380933 -0.230921
v 0.550103 0.186113 -0.191934
v 0.550103 0.186113 -0.230921
v 0.572105 0.186113 -0.191934
v 0.594107 0.186113 -0.230921
v 0.594107 0.186113 -0.191934
v 0.572105 0.186113 -0.230921
v 0.550103 -0.380933 -0.230921
v 0.550103 -0.380933 -0.191934
v 0.572105 -0.380933 -0.191934
v 0.594107 -0.380933 -0.191934
v 0.594107 -0.380933 -0.230921
v 0.572105 -0.380933 -0.230921
v 0.550103 0.212080 -0.191934
v 0.550103 0.212080 -0.230921
v 0.572105 0.212080 -0.191934
v 0.594107 0.212080 -0.230921
v 0.594107 0.212080 -0.191934
v 0.572105 0.212080 -0.230921
v 0.550103 0.914330 -0.002473
v 0.550103 -0.923295 -0.002473
v 0.504413 -0.923295 -0.002473
v 0.504413 0.914330 -0.002473
v 0.504413 0.923295 -0.659865
v 0.504413 -0.914330 -0.659866
v 0.550103 0.923295 -0.659865
v 0.550103 -0.914330 -0.659866
vn -1.0000 -0.0000 -0.0000
vn -0.0000 -0.0000 1.0000
vn 1.0000 -0.0000 -0.0000
vn -0.0000 -1.0000 -0.0000
vn -0.0000 -0.0000 -1.0000
vn -0.0000 1.0000 -0.0000
vn -0.0000 -0.9999 -0.0136
vn -0.0000 0.9999 0.0136
vt 0.375000 0.375000
vt 0.375000 0.875000
vt 0.625000 0.875000
vt 0.625000 0.375000
vt 0.625000 0.500000
vt 0.375000 0.500000
vt 0.625000 0.750000
vt 0.375000 0.750000
vt 0.375000 0.250000
vt 0.375000 1.000000
vt 0.625000 0.250000
vt 0.625000 1.000000
vt 0.625000 0.000000
vt 0.750000 0.500000
vt 0.875000 0.500000
vt 0.875000 0.750000
vt 0.750000 0.750000
vt 0.375000 0.000000
vt 0.250000 0.500000
vt 0.250000 0.750000
vt 0.125000 0.500000
vt 0.125000 0.750000
s 0
usemtl Material.003
f 30/29/11 28/31/11 39/31/11 40/29/11
f 53/32/14 52/33/14 51/34/14 56/35/14
f 54/23/14 53/32/14 56/35/14 55/25/14
f 40/29/14 39/31/14 51/31/14 52/29/14
f 27/36/14 29/27/14 45/27/14 46/36/14
f 59/37/16 61/24/16 60/26/16 62/38/16
f 57/39/16 59/37/16 62/38/16 58/40/16
f 46/36/11 45/27/11 57/27/11 58/36/11
f 63/24/11 69/26/11 70/25/11 64/23/11
f 66/24/13 65/23/13 68/25/13 67/26/13
f 70/25/12 69/26/12 67/26/12 68/25/12
f 69/26/17 63/24/17 66/24/17 67/26/17
f 64/23/18 70/25/18 68/25/18 65/23/18
f 63/24/15 64/23/15 65/23/15 66/24/15
usemtl Material.002
f 35/19/11 37/20/11 38/21/11 36/22/11
f 35/19/12 36/22/12 34/23/12 33/24/12
f 33/24/13 34/23/13 32/25/13 31/26/13
f 29/27/14 27/28/14 37/20/14 35/19/14
f 29/27/14 35/19/14 47/19/14 45/27/14
f 38/21/15 32/25/15 43/25/15 44/21/15
f 32/25/13 34/23/13 42/23/13 43/25/13
f 37/20/14 27/28/14 46/28/14 50/20/14
f 31/26/15 32/25/15 38/21/15 37/20/15
f 30/29/16 36/22/16 38/21/16 28/30/16
f 33/24/14 31/26/14 48/26/14 49/24/14
f 41/22/14 40/29/14 52/29/14 53/22/14
f 36/22/12 30/29/12 40/29/12 41/22/12
f 28/30/15 38/21/15 44/21/15 39/30/15
f 34/23/12 36/22/12 41/22/12 42/23/12
f 49/24/13 48/26/13 60/26/13 61/24/13
f 47/19/12 49/24/12 61/24/12 59/19/12
f 42/23/14 41/22/14 53/22/14 54/23/14
f 44/21/14 43/25/14 55/25/14 56/21/14
f 43/25/14 42/23/14 54/23/14 55/25/14
f 35/19/14 33/24/14 49/24/14 47/19/14
f 39/30/14 44/21/14 56/21/14 51/30/14
f 31/26/14 37/20/14 50/20/14 48/26/14
f 50/20/15 46/28/15 58/28/15 62/20/15
f 48/26/15 50/20/15 62/20/15 60/26/15
f 45/27/12 47/19/12 59/19/12 57/27/12
g Cube.001_Cube.007
v 0.550103 0.186113 0.230921
v 0.550103 -0.361657 0.230921
v 0.550103 0.186113 0.191934
v 0.550103 -0.361657 0.191934
v 0.594107 0.186113 0.230921
v 0.594107 -0.361657 0.230921
v 0.594107 0.186113 0.191934
v 0.594107 -0.361657 0.191934
v 0.572105 0.186113 0.191934
v 0.572105 -0.361657 0.191934
v 0.572105 0.186113 0.230921
v 0.572105 -0.361657 0.230921
v 0.550103 -0.380933 0.230921
v 0.550103 -0.380933 0.191934
v 0.572105 -0.380933 0.191934
v 0.594107 -0.380933 0.191934
v 0.594107 -0.380933 0.230921
v 0.572105 -0.380933 0.230921
v 0.550103 0.186113 0.191934
v 0.550103 0.186113 0.230921
v 0.572105 0.186113 0.191934
v 0.594107 0.186113 0.230921
v 0.594107 0.186113 0.191934
v 0.572105 0.186113 0.230921
v 0.550103 -0.380933 0.230921
v 0.550103 -0.380933 0.191934
v 0.572105 -0.380933 0.191934
v 0.594107 -0.380933 0.191934
v 0.594107 -0.380933 0.230921
v 0.572105 -0.380933 0.230921
v 0.550103 0.212080 0.191934
v 0.550103 0.212080 0.230921
v 0.572105 0.212080 0.191934
v 0.594107 0.212080 0.230921
v 0.594107 0.212080 0.191934
v 0.572105 0.212080 0.230921
v 0.550103 0.914330 0.002473
v 0.550103 -0.923295 0.002474
v 0.504413 -0.923295 0.002474
v 0.504413 0.914330 0.002473
v 0.504413 0.923295 0.659865
v 0.504413 -0.914330 0.659866
v 0.550103 0.923295 0.659865
v 0.550103 -0.914330 0.659866
vn -1.0000 -0.0000 -0.0000
vn -0.0000 -0.0000 -1.0000
vn 1.0000 -0.0000 -0.0000
vn -0.0000 -1.0000 -0.0000
vn -0.0000 -0.0000 1.0000
vn -0.0000 1.0000 -0.0000
vn -0.0000 -0.9999 0.0136
vn -0.0000 0.9999 -0.0136
vt 0.375000 0.375000
vt 0.375000 0.875000
vt 0.625000 0.875000
vt 0.625000 0.375000
vt 0.625000 0.500000
vt 0.375000 0.500000
vt 0.625000 0.750000
vt 0.375000 0.750000
vt 0.375000 0.250000
vt 0.375000 1.000000
vt 0.625000 0.250000
vt 0.625000 1.000000
vt 0.625000 0.000000
vt 0.750000 0.500000
vt 0.875000 0.500000
vt 0.875000 0.750000
vt 0.750000 0.750000
vt 0.375000 0.000000
vt 0.250000 0.500000
vt 0.250000 0.750000
vt 0.125000 0.500000
vt 0.125000 0.750000
s 0
usemtl Material.003
f 74/51/19 84/51/19 83/53/19 72/53/19
f 97/54/22 100/57/22 95/56/22 96/55/22
f 98/45/22 99/47/22 100/57/22 97/54/22
f 84/51/22 96/51/22 95/53/22 83/53/22
f 71/58/22 90/58/22 89/49/22 73/49/22
f 103/59/24 106/60/24 104/48/24 105/46/24
f 101/61/24 102/62/24 106/60/24 103/59/24
f 90/58/19 102/58/19 101/49/19 89/49/19
f 107/46/19 108/45/19 114/47/19 113/48/19
f 110/46/21 111/48/21 112/47/21 109/45/21
f 114/47/20 112/47/20 111/48/20 113/48/20
f 113/48/25 111/48/25 110/46/25 107/46/25
f 108/45/26 109/45/26 112/47/26 114/47/26
f 107/46/23 110/46/23 109/45/23 108/45/23
usemtl Material.002
f 79/41/19 80/44/19 82/43/19 81/42/19
f 79/41/20 77/46/20 78/45/20 80/44/20
f 77/46/21 75/48/21 76/47/21 78/45/21
f 73/49/22 79/41/22 81/42/22 71/50/22
f 73/49/22 89/49/22 91/41/22 79/41/22
f 82/43/23 88/43/23 87/47/23 76/47/23
f 76/47/21 87/47/21 86/45/21 78/45/21
f 81/42/22 94/42/22 90/50/22 71/50/22
f 75/48/23 81/42/23 82/43/23 76/47/23
f 74/51/24 72/52/24 82/43/24 80/44/24
f 77/46/22 93/46/22 92/48/22 75/48/22
f 85/44/22 97/44/22 96/51/22 84/51/22
f 80/44/20 85/44/20 84/51/20 74/51/20
f 72/52/23 83/52/23 88/43/23 82/43/23
f 78/45/20 86/45/20 85/44/20 80/44/20
f 93/46/21 105/46/21 104/48/21 92/48/21
f 91/41/20 103/41/20 105/46/20 93/46/20
f 86/45/22 98/45/22 97/44/22 85/44/22
f 88/43/22 100/43/22 99/47/22 87/47/22
f 87/47/22 99/47/22 98/45/22 86/45/22
f 79/41/22 91/41/22 93/46/22 77/46/22
f 83/52/22 95/52/22 100/43/22 88/43/22
f 75/48/22 92/48/22 94/42/22 81/42/22
f 94/42/23 106/42/23 102/50/23 90/50/23
f 92/48/23 104/48/23 106/42/23 94/42/23
f 89/49/20 101/49/20 103/41/20 91/41/20
g Cube.002_Cube.008
v -0.507241 -0.930601 -0.722253
v -0.507241 0.930601 -0.722253
v -0.507241 -0.930601 0.000000
v -0.507241 0.930601 0.000000
v -0.507241 -0.930601 0.722253
v -0.507241 0.930601 0.722253
v -0.507241 0.930601 0.000000
v -0.507241 -0.930601 0.000000
v -0.507241 0.930601 -0.722253
v -0.507241 -0.930601 -0.722253
v -0.507241 0.930601 0.722253
v -0.507241 -0.930601 0.722253
v -0.517211 0.930601 0.000000
v -0.517211 -0.930601 0.000000
v -0.517211 0.930601 -0.722253
v -0.517211 -0.930601 -0.722253
v -0.517211 0.930601 0.722253
v -0.517211 -0.930601 0.722253
vn 1.0000 -0.0000 -0.0000
vn -0.0000 -1.0000 -0.0000
vn -0.0000 -0.0000 1.0000
vn -0.0000 1.0000 -0.0000
vn -1.0000 -0.0000 -0.0000
vn -0.0000 -0.0000 -1.0000
vt 0.377512 0.125000
vt 0.377512 0.247614
vt 0.622488 0.247614
vt 0.622488 0.125000
vt 0.622488 0.247614
vt 0.377512 0.247614
s 0
usemtl Material.001
f 117/63/27 115/64/27 116/65/27 118/66/27
f 117/63/27 118/66/27 120/67/27 119/68/27
f 124/64/28 122/63/28 128/63/28 130/64/28
f 126/68/29 125/67/29 131/67/29 132/68/29
f 118/66/30 116/65/30 123/65/30 121/66/30
f 117/63/30 119/68/30 126/68/30 122/63/30
f 120/67/30 118/66/30 121/66/30 125/67/30
f 116/65/30 115/64/30 124/64/30 123/65/30
f 119/68/30 120/67/30 125/67/30 126/68/30
f 115/64/30 117/63/30 122/63/30 124/64/30
f 128/63/31 127/66/31 129/65/31 130/64/31
f 128/63/31 132/68/31 131/67/31 127/66/31
f 121/66/30 123/65/30 129/65/30 127/66/30
f 122/63/28 126/68/28 132/68/28 128/63/28
f 125/67/30 121/66/30 127/66/30 131/67/30
f 123/65/32 124/64/32 130/64/32 129/65/32
